<?xml version="1.0" encoding="UTF-8" standalone="no"?>
<svg xmlns:rdf="http://www.w3.org/1999/02/22-rdf-syntax-ns#" xmlns="http://www.w3.org/2000/svg" xml:space="preserve" height="500" viewBox="0 0 500 500" width="500" version="1.1" xmlns:cc="http://creativecommons.org/ns#" xmlns:dc="http://purl.org/dc/elements/1.1/"><metadata><rdf:RDF><cc:Work rdf:about=""><dc:format>image/svg+xml</dc:format><dc:type rdf:resource="http://purl.org/dc/dcmitype/StillImage"/><dc:title/></cc:Work></rdf:RDF></metadata><defs><clipPath id="b" clipPathUnits="userSpaceOnUse"><path d="m0 5.5e3h5e3v-5.5e3h-5e3v5.5e3z"/></clipPath><clipPath id="a" clipPathUnits="userSpaceOnUse"><path d="m0 5.5e3h5e3v-5.5e3h-5e3v5.5e3z"/></clipPath></defs><g transform="matrix(1.25,0,0,-1.25,0,500)"><g transform="matrix(.0745 0 0 .0745 13.5 -10.2)"><g clip-path="url(#b)"><g transform="translate(4.95e3 2.82e3)"><path d="m0 0c0-1.35e3 -1.1e3 -2.45e3 -2.45e3 -2.45e3s-2.45e3 1.1e3 -2.45e3 2.45e3 1.1e3 2.45e3 2.45e3 2.45e3 2.45e3 -1.1e3 2.45e3 -2.45e3" fill="#000000"/></g></g></g><g transform="matrix(.0745 0 0 .0745 13.5 -10.2)"><g clip-path="url(#a)"><g transform="translate(4.79e3 2.82e3)"><path d="m0 0c0-1.26e3 -1.02e3 -2.29e3 -2.29e3 -2.29e3 -1.26e3 0-2.29e3 1.02e3 -2.29e3 2.29e3 0 1.26e3 1.02e3 2.29e3 2.29e3 2.29e3s2.29e3 -1.03e3 2.29e3 -2.29e3" fill="#ffffff"/></g></g></g><g transform="matrix(.0745 0 0 .0745 162 34.5)"><path d="m0 0v850h1.11e3v-832l-206-160-766 42" fill="#000000"/></g><g><path d="m233 40.7h-59.3v32.9h59.3v-32.9z" fill="#ffffff"/><path d="m176 71.1h55v-28h-55v28z" fill="#000000"/><path d="m197 56.2h-17.1v5.81h17.1v-5.81z" fill="#ffffff"/><path d="m228 56.2h-17.3v5.81h17.3v-5.81z" fill="#ffffff"/></g><g fill="#000000"><path d="m152 75.4h8.79v-32.3h-8.79v32.3z"/><path d="m159 76.6h-2.98v24.4h2.98v-24.4z"/><path d="m152 106h8.79v-4.02h-8.79v4.02z"/><path d="m247 75.4h8.79v-32.3h-8.79v32.3z"/><path d="m253 76.6h-2.98v24.4h2.98v-24.4z"/><path d="m247 106h8.79v-4.02h-8.79v4.02z"/><g transform="matrix(.667 0 0 -1 825 3.69e3)"><path d="m-1.12e3 3.42e3v-39.5q0-0.91 0.337-1.72 0.337-0.809 0.91-1.42 0.607-0.607 1.42-0.944 0.809-0.337 1.75-0.337h29.3q1.62 0 3.47 0.573t3.44 1.85q1.62 1.25 2.66 3.27 1.08 2.02 1.08 4.96v1.65q0 2.33-0.776 5.02-0.776 2.66-2.5 5.06 1.48 0.91 2.77 2.19 1.32 1.28 2.29 2.97 0.978 1.69 1.55 3.81 0.573 2.12 0.573 4.69v1.69q0 1.62-0.573 3.47-0.54 1.85-1.82 3.44-1.25 1.58-3.27 2.66-2.02 1.05-4.96 1.05h-33.3q-0.944 0-1.75-0.337-0.809-0.337-1.42-0.911-0.573-0.607-0.91-1.42-0.337-0.809-0.337-1.75zm8.77-4.35h28.9q0.236 0 0.573-0.034t0.607-0.202q0.27-0.169 0.472-0.573 0.202-0.405 0.202-1.11v-1.62q0-1.72-0.54-3.07-0.54-1.38-1.52-2.36-0.978-0.978-2.36-1.48-1.38-0.54-3.1-0.54h-19.8v-8.84h15.8q1.72 0 3.1-0.506 1.38-0.54 2.36-1.52 0.978-0.978 1.48-2.33 0.54-1.38 0.54-3.1v-1.65q0-1.89-1.82-1.89h-25v30.8z"/><path d="m-1.07e3 3.42e3v-24.2q0-5.29 1.82-9.75 1.82-4.45 5.06-7.65t7.65-4.99q4.42-1.79 9.64-1.79h19.8q0.91 0 1.72 0.337 0.809 0.337 1.42 0.944 0.607 0.607 0.944 1.42 0.337 0.809 0.337 1.72v43.9h-8.77v-11.9h-30.8v11.9h-8.77zm8.77-20.6h30.8v-19h-15.4q-0.405 0-1.72 0.135-1.28 0.101-3 0.573-1.69 0.472-3.57 1.45-1.89 0.978-3.47 2.7t-2.63 4.32q-1.01 2.56-1.01 6.24v3.54z"/><path d="m-1.03e3 3.41e3v-9.27l8.9-4.42v-21.3h8.77v16.9l9.95-4.96v9.24l-9.95 4.99v13.4h35.6v8.77h-40q-0.944 0-1.75-0.337-0.809-0.337-1.42-0.911-0.573-0.607-0.91-1.42-0.337-0.809-0.337-1.75v-13.3l-8.9 4.42z"/><path d="m-987 3.38e3v-8.77h47.4v8.77h-19.3v39.6h-8.77v-39.6h-19.4z"/><path d="m-944 3.39e3v-16.2h8.77v16.2q0 1.72 0.54 3.1 0.54 1.35 1.52 2.33 0.978 0.978 2.36 1.52 1.42 0.506 3.14 0.506h15.8q1.25-0.202 2.56-0.506 1.32-0.337 2.39-1.11 1.08-0.776 1.79-2.16 0.708-1.38 0.708-3.68v-16.2h8.77v16.2q0 3-0.776 5.36-0.742 2.36-1.99 4.18-1.25 1.79-2.93 3.07-1.65 1.28-3.44 2.12-1.79 0.809-3.64 1.18-1.82 0.371-3.44 0.371h-3.54v15.9h-8.84v-15.9h-3.51q-1.62 0-3.47-0.371-1.82-0.371-3.64-1.18-1.79-0.843-3.44-2.12t-2.93-3.07q-1.25-1.82-2.02-4.18-0.742-2.39-0.742-5.36z"/><path d="m-898 3.41e3v-23.7q0-1.21 0.27-2.6 0.303-1.42 0.91-2.77 0.607-1.38 1.58-2.63 0.978-1.25 2.33-2.19 1.38-0.978 3.17-1.55 1.79-0.573 4.05-0.573h31.6v8.77h-31.6q-1.72 0-2.63 0.91-0.91 0.911-0.91 2.7v23.7q0 1.69 0.91 2.63 0.944 0.91 2.63 0.91h31.6v8.77h-31.6q-1.21 0-2.63-0.27-1.38-0.304-2.77-0.91-1.35-0.607-2.6-1.55-1.25-0.978-2.23-2.33-0.944-1.38-1.52-3.17-0.573-1.82-0.573-4.08z"/><path d="m-855 3.42e3v-48.4h8.77v48.4h-8.77zm12.3-19.8v-8.84h6.17l19.7-19.8h12.4l-24.9 24.2 24.9 24.2h-12.4l-19.7-19.8h-6.17z"/><path d="m-807 3.42e3v-48.4h8.77v48.4h-8.77z"/><path d="m-798 3.41e3v-31.6q0-0.91 0.337-1.72 0.337-0.809 0.91-1.42 0.607-0.607 1.42-0.944 0.809-0.337 1.75-0.337h39.5v8.77h-35.1v27.3q0 1.72 0.91 2.63t2.66 0.91h31.6v8.77h-31.6q-1.82 0-3.98-0.641t-4.01-2.09q-1.82-1.48-3.07-3.81-1.21-2.36-1.21-5.77zm12.3-7.45v-8.84h27.7v8.84h-27.7z"/><path d="m-1.12e3 3.49e3v-39.5q0-0.91 0.337-1.72 0.337-0.809 0.91-1.42 0.607-0.607 1.42-0.944 0.809-0.337 1.75-0.337h29.3q1.62 0 3.47 0.573t3.44 1.85q1.62 1.25 2.66 3.27 1.08 2.02 1.08 4.96v1.65q0 2.33-0.776 5.02-0.776 2.66-2.5 5.06 1.48 0.91 2.77 2.19 1.32 1.28 2.29 2.97 0.978 1.69 1.55 3.81 0.573 2.12 0.573 4.69v1.69q0 1.62-0.573 3.47-0.54 1.85-1.82 3.44-1.25 1.58-3.27 2.66-2.02 1.05-4.96 1.05h-33.3q-0.944 0-1.75-0.337-0.809-0.337-1.42-0.91-0.573-0.607-0.91-1.42-0.337-0.81-0.337-1.75zm8.77-4.35h28.9q0.236 0 0.573-0.034t0.607-0.202 0.472-0.573 0.202-1.11v-1.62q0-1.72-0.54-3.07-0.539-1.38-1.52-2.36-0.978-0.978-2.36-1.48-1.38-0.54-3.1-0.54h-19.8v-8.83h15.8q1.72 0 3.1-0.506 1.38-0.54 2.36-1.52 0.978-0.978 1.48-2.33 0.54-1.38 0.54-3.1v-1.65q0-1.89-1.82-1.89h-25v30.8z"/><path d="m-1.03e3 3.49e3v-48.4h8.77v48.4h-8.77z"/><path d="m-985 3.45e3v-8.77h47.4v8.77h-19.3v39.6h-8.77v-39.6h-19.4z"/><path d="m-901 3.44e3h8.9l5.8 31.9 13.8-22.1q0.573-0.978 1.55-1.52 1.01-0.54 2.16-0.54t2.12 0.54q0.978 0.54 1.62 1.52l13.8 22.1 5.8-31.9h8.9l-8.09 45.3q-0.27 1.35-1.21 2.33-0.944 0.978-2.29 1.25-0.405 0.067-0.843 0.067-0.978 0-1.79-0.371-1.21-0.539-1.92-1.69l-16.1-26.4-16.1 26.4q-0.573 0.978-1.58 1.52-0.978 0.54-2.12 0.54-1.58 0-2.8-1.01-1.21-1.01-1.48-2.63l-8.16-45.3z"/><path d="m-798 3.46e3v-16.2h8.77v16.2q0 1.72 0.54 3.1 0.54 1.35 1.52 2.33 0.978 0.978 2.36 1.52 1.42 0.506 3.14 0.506h15.8q1.25-0.202 2.56-0.506 1.32-0.337 2.39-1.11 1.08-0.776 1.79-2.16 0.708-1.38 0.708-3.68v-16.2h8.77v16.2q0 3-0.776 5.36-0.742 2.36-1.99 4.18-1.25 1.79-2.93 3.07-1.65 1.28-3.44 2.12-1.79 0.809-3.64 1.18-1.82 0.371-3.44 0.371h-3.54v15.9h-8.84v-15.9h-3.51q-1.62 0-3.47-0.371-1.82-0.371-3.64-1.18-1.79-0.843-3.44-2.12t-2.93-3.07q-1.25-1.82-2.02-4.18-0.742-2.39-0.742-5.36z"/></g><g transform="matrix(.0497 0 0 -.0745 74.4 123)"><path d="m68.3 0v-590q0-12.2 4.53-23.1t12.2-19q8.15-8.15 19-12.7 10.9-4.53 23.5-4.53h447q39.4 0 66.5 14.5 27.2 14 43.9 35.8 17.2 21.3 24.4 46.2 7.69 24.9 7.69 46.6v75.1q0 40.3-9.96 72t-27.2 56.1q-16.7 24-38.9 41.2t-46.6 28.5q-24 10.9-48.9 15.8-24.4 4.98-46.2 4.98l246 212h-182l-245-212h-84.6v-118h266q22.2-1.81 40.3-9.05 18.6-7.69 31.7-20.4 13.6-12.7 20.8-30.3 7.24-18.1 7.24-41.2v-74.2q0-9.96-2.72-14.9-2.26-5.43-6.34-7.69-3.62-2.72-8.15-3.17-4.07-0.453-7.69-0.453h-388v531h-118z"/><path d="m740-263v-124q0-58.8 20.4-109 20.8-50.2 57-86 36.2-36.2 86-56.6t108-20.4h159q58.4 0 108 20.4 49.8 20.4 86 56.6 36.2 35.8 56.6 86 20.4 49.8 20.4 109v124q0 59.3-20.4 109-20.4 49.8-56.6 86t-86 56.6q-49.3 19.9-108 19.9h-159q-58.4 0-108-19.9-49.8-20.4-86-56.6t-57-86q-20.4-49.8-20.4-109zm118 0q0 34.9 10.9 63.4 11.3 28.1 31.7 48.4 20.4 19.9 48.4 31.2 28.5 10.9 62.9 10.9h158q34.4 0 62.5-10.9 28.5-11.3 48.9-31.2 20.4-20.4 31.2-48.4 11.3-28.5 11.3-63.4v-124q0-34.9-11.3-62.9-10.9-28.5-31.2-48.4-19.9-20.4-48.4-31.2-28.1-11.3-62-11.3h-159q-34.4 0-62.9 11.3-28.1 10.9-48.4 31.2-20.4 19.9-31.7 48.4-10.9 28.1-10.9 62.9v124z"/><path d="m1.48e3 -59.3v-530q0-12.2 4.53-23.1t12.2-19q8.15-8.15 19-12.7 10.9-4.53 23.5-4.53h394q21.7 0 46.6 7.69t46.2 24.9q21.7 16.7 35.8 43.9 14.5 27.2 14.5 66.5v22.2q0 31.2-10.4 67.4-10.4 35.8-33.5 67.9 19.9 12.2 37.1 29.4 17.7 17.2 30.8 39.8t20.8 51.1q7.69 28.5 7.69 62.9v22.6q0 21.7-7.69 46.6-7.24 24.9-24.4 46.2-16.7 21.3-43.9 35.8-10 13-50 13h-447q-12.7 0-23.5-4.53-10.9-4.53-19-12.2-7.69-8.15-12.2-19-4.53-10.9-4.53-23.5zm118-58.4h388q3.17 0 7.69-0.453 4.53-0.453 8.15-2.72 3.62-2.26 6.34-7.69t2.72-14.9v-21.7q0-23.1-7.24-41.2-7.24-18.6-20.4-31.7-13.1-13.1-31.7-19.9-18.6-7.24-41.6-7.24h-265v-119h212q23.1 0 41.6-6.79 18.6-7.24 31.7-20.4 13.1-13.1 19.9-31.2 7.24-18.6 7.24-41.6v-22.2q0-25.3-24.4-25.3h-335v414z"/><path d="m2.14e3 -263v-124q0-58.8 20.4-109 20.8-50.2 57-86 36.2-36.2 86-56.6t108-20.4h159q58.4 0 108 20.4 49.8 20.4 86 56.6 36.2 35.8 56.6 86 20.4 49.8 20.4 109v124q0 59.3-20.4 109-20.4 49.8-56.6 86t-86 56.6q-49.3 19.9-108 19.9h-159q-58.4 0-108-19.9-49.8-20.4-86-56.6t-57-86q-20.4-49.8-20.4-109zm118 0q0 34.9 10.9 63.4 11.3 28.1 31.7 48.4 20.4 19.9 48.4 31.2 28.5 10.9 62.9 10.9h158q34.4 0 62.5-10.9 28.5-11.3 48.9-31.2 20.4-20.4 31.2-48.4 11.3-28.5 11.3-63.4v-124q0-34.9-11.3-62.9-10.9-28.5-31.2-48.4-19.9-20.4-48.4-31.2-28.1-11.3-62-11.3h-159q-34.4 0-62.9 11.3-28.1 10.9-48.4 31.2-20.4 19.9-31.7 48.4-10.9 28.1-10.9 62.9v124z"/><path d="m2.82e3 -531v-118h637v118h-259v531h-118v-531h-260z"/><path d="m3.44e3 -263v-124q0-58.8 20.4-109 20.8-50.2 57-86 36.2-36.2 86-56.6t108-20.4h159q58.4 0 108 20.4 49.8 20.4 86 56.6 36.2 35.8 56.6 86 20.4 49.8 20.4 109v124q0 59.3-20.4 109-20.4 49.8-56.6 86t-86 56.6q-49.3 19.9-108 19.9h-159q-58.4 0-108-19.9-49.8-20.4-86-56.6t-57-86q-20.4-49.8-20.4-109zm118 0q0 34.9 10.9 63.4 11.3 28.1 31.7 48.4 20.4 19.9 48.4 31.2 28.5 10.9 62.9 10.9h158q34.4 0 62.5-10.9 28.5-11.3 48.9-31.2 20.4-20.4 31.2-48.4 11.3-28.5 11.3-63.4v-124q0-34.9-11.3-62.9-10.9-28.5-31.2-48.4-19.9-20.4-48.4-31.2-28.1-11.3-62-11.3h-159q-34.4 0-62.9 11.3-28.1 10.9-48.4 31.2-20.4 19.9-31.7 48.4-10.9 28.1-10.9 62.9v124zm196-516 218-127 49.8 110-236 84.6-31.2-67.9z"/><path d="m4.15e3 -649h119l77.9 429 186-296q7.69-13.1 20.8-20.4 13.6-7.24 29-7.24t28.5 7.24 21.7 20.4l185 296 77.9-429h119l-109 608q-3.62 18.1-16.3 31.2t-30.8 16.7q-5.43 0.905-11.3 0.905-13.1 0-24-4.98-16.3-7.24-25.8-22.6l-220-353-220 354q-7.69 13.1-21.3 20.4-13.1 7.24-28.5 7.24-21.3 0-37.6-13.6t-19.9-35.3l-100-609z"/></g></g></g></svg>
