<?xml version="1.0" encoding="UTF-8" standalone="no"?>
<svg xmlns:rdf="http://www.w3.org/1999/02/22-rdf-syntax-ns#" xmlns="http://www.w3.org/2000/svg" xml:space="preserve" height="500" viewBox="0 0 500 500" width="500" version="1.1" xmlns:cc="http://creativecommons.org/ns#" xmlns:dc="http://purl.org/dc/elements/1.1/"><metadata><rdf:RDF><cc:Work rdf:about=""><dc:format>image/svg+xml</dc:format><dc:type rdf:resource="http://purl.org/dc/dcmitype/StillImage"/><dc:title/></cc:Work></rdf:RDF></metadata><defs><clipPath id="b" clipPathUnits="userSpaceOnUse"><path d="m0 5.5e3h5e3v-5.5e3h-5e3v5.5e3z"/></clipPath><clipPath id="a" clipPathUnits="userSpaceOnUse"><path d="m0 5.5e3h5e3v-5.5e3h-5e3v5.5e3z"/></clipPath></defs><g transform="matrix(1.25,0,0,-1.25,0,500)"><g transform="matrix(.0745 0 0 .0745 13.5 -10.2)"><g clip-path="url(#b)"><g transform="translate(4.95e3 2.82e3)"><path d="m0 0c0-1.35e3 -1.1e3 -2.45e3 -2.45e3 -2.45e3s-2.45e3 1.1e3 -2.45e3 2.45e3 1.1e3 2.45e3 2.45e3 2.45e3 2.45e3 -1.1e3 2.45e3 -2.45e3" fill="#000000"/></g></g></g><g transform="matrix(.0745 0 0 .0745 13.5 -10.2)"><g clip-path="url(#a)"><g transform="translate(4.79e3 2.82e3)"><path d="m0 0c0-1.26e3 -1.02e3 -2.29e3 -2.29e3 -2.29e3 -1.26e3 0-2.29e3 1.02e3 -2.29e3 2.29e3 0 1.26e3 1.02e3 2.29e3 2.29e3 2.29e3s2.29e3 -1.03e3 2.29e3 -2.29e3" fill="#ffffff"/></g></g></g><g transform="matrix(.0745 0 0 .0745 162 34.5)"><path d="m0 0v850h1.11e3v-832l-206-160-766 42" fill="#000000"/></g><g><path d="m233 40.7h-59.3v32.9h59.3v-32.9z" fill="#ffffff"/><path d="m176 71.1h55v-28h-55v28z" fill="#000000"/><path d="m197 56.2h-17.1v5.81h17.1v-5.81z" fill="#ffffff"/><path d="m228 56.2h-17.3v5.81h17.3v-5.81z" fill="#ffffff"/></g><g fill="#000000"><path d="m152 75.4h8.79v-32.3h-8.79v32.3z"/><path d="m159 76.6h-2.98v24.4h2.98v-24.4z"/><path d="m152 106h8.79v-4.02h-8.79v4.02z"/><path d="m247 75.4h8.79v-32.3h-8.79v32.3z"/><path d="m253 76.6h-2.98v24.4h2.98v-24.4z"/><path d="m247 106h8.79v-4.02h-8.79v4.02z"/></g></g></svg>
