<?xml version='1.0' encoding='utf-8'?>
<svg xmlns="http://www.w3.org/2000/svg" width="91.44mm" height="91.44mm" version="1.1"
     style="shape-rendering:geometricPrecision; text-rendering:geometricPrecision; image-rendering:optimizeQuality; fill-rule:evenodd; clip-rule:evenodd"
     viewBox="0 0 9144 9144">
    <defs>
        <style type="text/css">.fil0 {fill:transparent} .fil1 {fill:#011627;fill-rule:nonzero}</style>
    </defs>
    <g id="Layer_x0020_1">
        <metadata id="CorelCorpID_0Corel-Layer"/>
        <g id="_2744577807152">
            <polygon class="fil0" points="0,0 9144,0 9144,9144 0,9144 "/>
            <path class="fil1"
                  d="M3594 5055c23,41 10,92 -31,116 -40,23 -91,10 -115,-30 -56,-95 -98,-196 -126,-300 -29,-105 -43,-213 -43,-322 0,-343 141,-654 369,-879 228,-225 542,-364 889,-364 348,0 662,139 890,364 228,225 369,536 369,879 0,376 -198,728 -466,960 -133,115 -283,201 -435,247 -158,47 -318,51 -464,1 -141,-48 -267,-146 -365,-302l-209 1028c-1,7 -3,15 -6,22 -2,2 -3,5 -4,8l-1 1c-18,31 -54,48 -90,41 -9,-2 -17,-5 -25,-9 -385,-167 -703,-440 -925,-777 -224,-339 -351,-742 -351,-1166 0,-584 237,-1113 620,-1496 383,-383 913,-620 1497,-620 584,0 1114,237 1497,620 383,383 620,912 620,1496 0,565 -222,1079 -584,1460 -363,381 -866,627 -1430,654 -47,2 -86,-34 -89,-80 -2,-47 34,-86 81,-88 518,-26 982,-252 1315,-602 334,-350 537,-824 537,-1344 0,-537 -218,-1024 -570,-1377 -352,-352 -839,-570 -1377,-570 -538,0 -1025,218 -1377,570 -352,353 -570,840 -570,1377 0,390 116,761 321,1073 188,284 450,519 765,674l237 -1161c-56,-188 -66,-391 -35,-580 37,-230 136,-442 288,-587 34,-32 87,-30 120,3 20,22 27,52 20,78l-219 1076c7,19 14,38 22,57 82,199 204,313 342,361 111,38 236,34 360,-3 130,-39 259,-113 373,-213 234,-202 408,-508 408,-832 0,-297 -122,-565 -319,-759 -197,-194 -469,-315 -771,-315 -301,0 -573,121 -770,315 -197,194 -319,462 -319,759 0,94 13,187 37,277 25,91 61,179 109,259z"/>
        </g>
    </g>
</svg>