<svg version="1" xmlns="http://www.w3.org/2000/svg" width="666.667" height="666.667" viewBox="0 0 500.000000 500.000000"><path d="M15.5 74.1c-.6.8-.4 1 .5.4.9-.5 1.1-.4.6.4-.6.9-1.1.9-2.1.1-1.8-1.5-2.1.1-1.9 8.7.1 4.8-.2 7.3-1 7.3-.6 0-.5.4.3.9s1 1.4.5 2.2c-.6 1-.3 1 1.1-.1 1.7-1.4 1.8-1.3 1.2.4-.6 1.5-.5 1.7.6.8 1-.9 1.7-.8 2.7.1 1 .9 1.1.9.6-.1-.5-.7-.1-1.2.9-1.2s1.3.5.9 1.2.1.5 1.2-.4c1.2-1.1 2.4-1.4 3.3-.8.8.4 2 .6 2.8.3.9-.4 1.1 0 .7 1.3-.5 1.5-.3 1.4 1-.4 1.8-2.3 3.6-2.9 3.6-1.1 0 .5-.5.7-1.2.3-.6-.4-.8-.3-.5.3.8 1.2-2.8 4.7-4 4-1-.7-1 3.4.1 5.1.4.7.4 1.2-.1 1.2-.4 0-.8 2-.8 4.4 0 2.4.3 4.2.7 4 .4-.2.9 0 1.3.6.3.5 0 1-.8 1-.7 0-1.4.7-1.4 1.5s.4 1.2.8 1c.4-.3.9.2 1.2 1 .4.8.1 1.2-.6.9-.8-.3-1.2 1-1.2 4 0 3.5.3 4.2 1.3 3.4.9-.8 1.1-.7.6.6-.3.9-.9 1.6-1.3 1.6-.3 0-.6 2-.6 4.4 0 2.4.3 4.2.7 4 .4-.2.9 0 1.3.6.3.5 0 1-.8 1-.7 0-1.4.7-1.4 1.5s.4 1.2.8 1c.4-.3.9.2 1.2 1 .4.8.1 1.2-.6.9-.8-.3-1.2 1-1.2 4 0 3.5.3 4.2 1.3 3.4.9-.8 1.1-.7.6.6-.3.9-.9 1.6-1.3 1.6-.3 0-.6 2.4-.6 5.4 0 4.3.3 5.2 1.3 4.4.9-.8 1.1-.7.6.6-.3.9-1 1.6-1.4 1.6-1 0-.1 4 1.2 5.7.6.7.4 1.4-.4 2-.7.4-1.3 2.2-1.3 4 0 2.4.3 2.9 1.3 2.1.9-.8 1.1-.7.6.6-.3.9-1 1.6-1.4 1.6-1 0-.1 4 1.2 5.7.6.7.4 1.4-.4 2-.8.5-1.3 2.8-1.3 6 0 4 .3 4.9 1.3 4.1.9-.8 1.1-.7.6.6-.3.9-.9 1.6-1.3 1.6-.3 0-.5 1.9-.5 4.1.1 4.9 2.5 6.9 5.7 5 1.1-.8 1.6-.8 1.2-.2-.3.6-.1 1.1.5 1.1s.8.5.4 1.2-.3.8.5.4c.6-.4.9-1.1.6-1.6-.7-1.2 1.7-1.9 3.6-.9 1.2.6 1.5.3 1.5-1.4-.1-1.2-.5-2.5-1.1-2.9-.6-.5-.4-.8.5-.8 1.3 0 1.3-.1 0-1-1-.6-1.1-1-.2-1 .6 0 1.2-.5 1.2-1.1 0-.5-.6-.7-1.3-.3-.8.5-.8.2.2-.9 1.1-1.4 1.1-1.7 0-1.7s-1.1-.2.1-1c1.3-.9 1.3-1 0-1s-1.3-.1 0-1c.8-.5 1.1-1 .7-1-.4 0-.3-.9.3-2 .9-1.6.8-2-.6-2-1.3 0-1.4-.3-.5-1.4.9-1.1.9-1.5-.1-1.9-1-.4-1-.6.1-.6 1.1-.1 1.1-.4 0-1.8-1-1.1-1-1.4-.1-.9.6.4 1.2.3 1.2-.3 0-.5-.5-1.3-1.1-1.6-.7-.5-.4-1.4.7-2.6 1.6-1.8 1.6-1.9.1-1.3-2.1.8-2.2 0-.1-2 1.4-1.5 1.4-1.6-.2-1.6-1.3 0-1.4-.3-.5-1.4.9-1.1.9-1.5-.1-1.9-1-.4-1-.6.1-.6 1.1-.1 1.1-.4 0-1.8-1-1.1-1-1.4-.1-.9.6.4 1.2.3 1.2-.3 0-.5-.5-1.3-1.1-1.6-.7-.5-.4-1.4.7-2.6 1.7-1.9 1.7-2 0-1.3-1.6.6-1.7.4-.7-1.4 1.3-2.5 1.4-3.5.3-2.8-.5.3-.9-.1-.9-.9s.5-1.1 1.1-.8c.6.4.5 0-.2-.9-1-1.3-1-1.7 0-2 1.1-.4 1.1-.8 0-2-.9-1.1-1-1.8-.2-2.3.5-.3 1-1.1 1-1.6 0-.6-.4-.8-.9-.5-1.1.7-.9-1.3.2-3.2.5-.7.3-1.2-.5-1.2-.9 0-.9-.3.2-1 1.3-.9 1.3-1 0-1s-1.3-.1 0-1c.8-.5 1.1-1 .7-1-.4 0-.4-.8.1-1.7.7-1.1.5-2.1-.4-3.1-1.1-1.1-1.2-1.7-.3-2.8.9-1.1.8-1.4-.2-1.4-1.2 0-1.2-.2 0-.9.9-.6 1-1 .2-1.6-.9-.5-.9-1-.1-2s.7-1.4-.2-1.8c-1-.4-1-.6 0-.6.6-.1 1.2-.6 1.2-1.2 0-.5-.6-.7-1.2-.3-.9.5-.9.2.1-.9 1.1-1.4 1.1-1.7 0-1.7s-1.1-.2.1-1c1.3-.9 1.3-1 0-1-.9 0-1.1-.3-.5-.8 1.4-1 1.5-6.2.1-6.2-.6 0-.4-.5.4-1 1.3-.8 1.2-1.1-.5-2.5-1.2-.9-1.4-1.3-.5-1 1.1.4 1.6-.1 1.7-1.5.1-1.3-.2-1.8-1-1.3-.9.5-.9.3-.1-.8 1.5-1.9 1.4-4.6-.3-4.6-1 0-1 .3 0 1.6.6.8-.3.4-2.2-.9-1.9-1.3-3.1-1.9-2.8-1.3.4.7.3 1.4-.2 1.7-1.5 1-2.1-2.2-.5-3.4.8-.7 1.4-.9 1.4-.6 0 .4 1 .2 2.1-.5 1.5-.8 1.9-.8 1.5 0-.4.6-.1 1.1.8 1.1.8 0 1.8-.5 2.1-1 .4-.6 1.2-.7 1.8-.3 1.9 1.2 4 1.3 5.3.2.8-.7 1.5-.6 2 .2s.3.9-.6.4c-.9-.6-1.1-.4-.5.4.5.9 1.2.7 2.6-.8 1.6-1.7 1.8-2.5.9-4.1-.7-1.4-.7-2 0-2 .5 0 1-.5 1-1.1 0-.5-.4-.8-.9-.5-.4.3-.6-.6-.3-1.9.2-1.4.9-2.2 1.4-1.9.6.4.2-.6-.8-2.2-1.1-1.5-1.4-2.5-.8-2.1.7.4 1.4.1 1.7-.7.6-1.6-2.6-5-3.6-3.9-1.2 1.1-5.7 1.2-5.7.1 0-.7-.4-.7-1.3.1-1 .8-1.7.7-2.7-.2-1-.9-1.1-.9-.6.1.8 1.3-1.9 1.3-4.1-.1-.7-.5-1.3-.4-1.3 0 0 .5-.9.9-2 1-1.3.1-1.8-.2-1.4-.9.5-.7.2-.8-.7-.2-2.1 1.3-3.9 1.4-3.9.1 0-.8-.3-.8-.8-.2-1 1.4-5.2 1.7-5.2.4 0-.8-.4-.8-1.3 0-1 .7-1.7.7-2.4 0-.8-.8-1.3-.7-1.8.2zM53 75.5c.7.9.8 1.5.2 1.5-.5 0-1.2-.7-1.6-1.5-.3-.8-.4-1.5-.2-1.5s.9.7 1.6 1.5zM441.9 75.2c-.7 1.3-.6 1.8.3 1.8.9 0 .9.3-.2 1-1.3.9-1.3 1 0 1s1.3.1 0 1c-1.2.8-1.2 1 .5 1 1.5 0 1.7.3.7.9-.8.4-1.3 1.1-1.3 1.5.1.3.1.8 0 1.1-.4 2-.2 6.4.4 7.8.7 2 3.3 2.3 4 .4.4-1 .6-1 .6 0 .1 1.6 3.1 1.7 3.1.1 0-.6.7-.3 1.6.8.8 1 1.3 1.3.9.6-.4-.8.3-1.2 2.2-1.3 9-.4 9.8-.3 10.5 1.1.4 1 .7.7.7-1 .1-1.9.3-2.2 1-1 .6.8.7 1.8.5 2.2-.3.4 0 .8.5.8.6 0 1.1-.6 1.1-1.3 0-.7.9-1.3 1.9-1.3 1.1 0 1.7.4 1.5.8-.3.4-.1.8.5.8.5 0 1.2-.6 1.4-1.3.3-.6.6-.8.6-.2.1 1.1 6.1 1.2 7.8.2 1.1-.7 1-5-.3-8.1-.6-1.5-.4-1.7.7-1.1.8.5.6 0-.4-1.2-1.4-1.6-1.5-2.3-.6-2.9.8-.4 1-.3.5.4-.4.7-.3 1.2.2 1.2 1.6 0 .7-7.4-.9-7.8-1.1-.3-1-.1.1.7.8.6 1 1.1.4 1.1s-1.4-.3-1.8-.8c-.4-.4-9.1-.7-19.2-.8-17-.1-18.6.1-19.5 1.8zM445 92c0 .5-.5 1-1.1 1-.5 0-.7-.5-.4-1 .3-.6.8-1 1.1-1 .2 0 .4.4.4 1z"/><path d="M23 94.4c0 .2.8 1 1.8 1.7 1.5 1.3 1.6 1.2.3-.4S23 93.6 23 94.4zM458 95.9c0 .7-.5.9-1.2.5-.7-.5-.8-.3-.3.5.5.9 1 1 1.8.2.6-.6.8-1.4.4-1.8-.4-.3-.7-.1-.7.6zM457.5 98.4c-1.6 1.6-2.5 2.6-1.8 2.3.6-.4 1.4-.3 1.8.3.3.5.2 1-.3 1-.6 0-1.3.7-1.6 1.6-.5 1.4-.4 1.5.8.5 1.1-.9 1.4-.8 1.2.6 0 1-.7 2.3-1.5 2.9-1.1.9-1.2 1.2-.1 1.9.9.6 1.1.4.5-.6-.5-.8-.5-1.1-.1-.7 1.1.9 1.3 12.8.4 12.8-.5 0-.8-.5-.8-1.2 0-.6-.3-.8-.6-.5-.4.4-.1 1.4.7 2.3 1.8 2.2 1.8 4.6 0 6-1.1.9-1.2 1.2-.1 1.9.9.6 1.1.4.5-.6-.5-.8-.4-1.1 0-.6.5.4.9 1.7 1 2.8.1 1.4-.3 1.8-1.4 1.4-1.1-.3-1 0 .3 1 1.1.8 1.6 1.5 1 1.5-.5 0-.7 2.4-.4 5.7.4 4.3.1 6.1-.9 6.9-1.1.9-1.2 1.2-.1 1.9.9.6 1.1.4.5-.6-.5-.8-.4-1.1 0-.6 1 .9 1.3 20.7.3 20.7-.5 0-.8-.5-.8-1.2 0-.6-.3-.8-.6-.5-.4.4-.1 1.4.7 2.3 1.8 2.2 1.8 4.6 0 6-1.1.9-1.2 1.2-.1 1.9.9.6 1.1.4.5-.6-.5-.8-.4-1.1 0-.6.5.4.9 1.7 1 2.8.1 1.4-.3 1.8-1.4 1.4-1.1-.3-1 0 .3 1 1.1.8 1.4 1.5.7 1.5s-1 .4-.6.9c1 1.7 1.3 9.1.3 9.1-.5 0-.6-.5-.3-1 .3-.6.1-1-.4-1-1.7 0-1.3 2 .4 2.6 1.4.6 1.3.8-.2 2.1-1 .8-1.3 1.2-.6.9 1.7-.9 2.2 1.7.5 3-1.2.9-1.2 1.3-.2 1.9.9.6 1.1.4.5-.6-.5-.8-.4-1.1 0-.6 1.2 1.1 1.4 4.7.2 4.7-.5 0-.3.8.4 1.7 1 1.1 1 1.4.2.9-.7-.4-1.3-.2-1.3.3 0 .6.9 1.1 2 1.1s2 .6 2 1.2c0 1 .2 1 .9 0 .4-.8 2.1-1.3 3.7-1.2 5.2.4 7 .1 5.6-.9-1.7-1.1-1.7-2.2 0-3.2 1-.6 1-1.1.1-2-.8-.8-.9-1.8-.2-3.1.5-1 .6-1.8.2-1.8-1 0-1-4.1.1-5.8.4-.7.3-1.2-.2-1.2-1 0-.9-7 .2-8.8.4-.7.3-1.2-.2-1.2s-.9-.7-.9-1.5.4-1.2.9-.9c.4.3.8 0 .8-.5 0-.6-.6-1.1-1.2-1.1-.9 0-.8-.4.2-1 .8-.5 1-1 .5-1-1.2 0-1.2-13.4 0-16.1.3-1 .1-2-.5-2.4-.8-.5-.8-1.1.1-2.1.7-.8.7-1.4.1-1.4-.5 0-1.3-.7-1.6-1.6-.5-1.3-.3-1.4.7-.6 1 .8 1.3.6 1.3-.9 0-1-.3-1.9-.7-1.9-.9 0-.6-2.1.4-3.8.5-.7.3-1.2-.5-1.2-.9 0-.9-.3.2-1 1.2-.8 1.2-1-.5-1-1.6 0-1.7-.2-.5-1 .8-.5 1.1-1.2.7-1.6-.4-.4-.2-1.3.4-2.1.7-.7.7-1.3.2-1.3-.8 0-.9-1.8-.4-6.3.1-.5.7-.5 1.4-.2.6.4.4 0-.5-.8-1.9-1.5-2.5-4.3-.8-3.2.6.3 1 .2 1-.4 0-.5-.5-1.1-1.1-1.3-.9-.3-.9-1 0-2.6.8-1.5.8-2.2.1-2.2-.6 0-.9-.4-.6-.9 1.1-1.8 1.5-8.1.5-8.7-.6-.4-.6-1.1.2-2 .9-1.1.8-1.4-.2-1.4-1.1 0-1.1-.2.1-1 1.2-.8 1.2-1 .1-1-1.1 0-1.1-.3-.1-1.5s1-1.5 0-1.5-1-.3 0-1.5c1.4-1.6 1.3-1.7-4.7-1.8-2.1 0-4-.3-4.3-.6-.3-.3-1.8.7-3.5 2.3zM57.3 112.2c.3 1 .2 1.8-.4 1.8-.6 0-.5.9.2 2.2 1.2 2.2 1.1 2.2-.7.8-1.8-1.5-1.8-1.4 0 1.4 1 1.6 1.3 2.5.6 2.1-.9-.5-1-.1-.5 1.4.4 1.4.2 2.1-.6 2.1-.7 0-.4.6.7 1.5 1 .8 1.4 1.5.7 1.5s-1 .7-.7 1.5c.4.9.1 1.5-.7 1.5-.8 0-.5.6.7 1.5 1 .8 1.4 1.5.8 1.5-1.1 0-1 4.8.1 7.8.3.7.1 1.1-.4.8-1.6-1.1-2.2 2.7-.6 4.4.8.9 1.2 1.9.9 2.3-1 .9-1.1 6.8-.2 7.4.5.2.1 1.2-.9 2s-1.2 1.1-.4.7c.9-.4 1.2-.2.9.7-.3.8-.1 2.6.3 4.2.4 1.5.4 2.5-.1 2.2-1.3-.8-1.8 1.8-.7 4 .7 1.3.6 2-.2 2.3-.8.3-.6.9.6 1.8 1 .7 1.3 1.4.6 1.4-.7 0-1 .7-.7 1.5.4.9.1 1.5-.7 1.5-.8 0-.5.6.7 1.5 1 .8 1.4 1.5.8 1.5-1.1 0-1 4.8.1 7.8.3.7.1 1.1-.4.8-1.3-.9-2.1 2-.9 3.2.8.8.7 1.6-.3 2.8-.8 1-.9 1.5-.3 1.1.8-.4 1.1 1.5 1.1 6.3s-.3 6.8-1.1 6.3c-.6-.3-.5 0 .2.8 1.6 1.7 1.6 4.3 0 3.3-1-.6-1-.4-.2.7 1.4 1.7 1.4 40.7 0 42.8-.7 1-.6 1.2.4.6s1.2-.3.8 1.3c-.3 1.2-.1 2.3.6 2.6.8.3.8.5-.1.5-.7.1-1 1.1-.7 2.7.3 1.4-.1 3.3-.8 4.2-1.1 1.3-1 1.5.3 1s1.6-.2 1.1 1.5c-.2 1.2-1 2.8-1.6 3.6-.8 1.2-.8 1.3.2.7 1-.6 1.2.3.9 4.3-.2 3.1.1 5.1.7 5.1s.4.5-.4 1-1.1 1-.6 1c.5 0 .3.6-.3 1.4-.9 1.1-.9 1.6 0 2.2.8.5.9.3.4-.6-.5-.9-.4-1.1.4-.6.6.4.8 1.2.4 1.8-.3.7-.6 3.7-.5 6.7 0 3.1-.5 6.2-1.1 7-1 1.2-.9 1.3.2.6 1.1-.6 1.3-.3.9 1.3-.3 1.2-.1 2.3.6 2.6.8.3.8.5-.1.5-.7.1-1 1.1-.7 2.7.3 1.4-.1 3.3-.8 4.2-1.1 1.3-1 1.5.3 1s1.6-.2 1.1 1.5c-.2 1.2-1 2.8-1.6 3.6-.8 1.2-.8 1.3.2.7 1-.6 1.2.3.9 4.3-.2 3.1.1 5.1.7 5.1s.4.5-.4 1-1.1 1-.6 1c.5 0 .3.6-.3 1.4-.9 1.1-.9 1.6 0 2.2.8.5.9.3.4-.6-.5-.9-.4-1.1.4-.6.6.4.8 1.2.4 1.8-.3.7-.6 3.7-.5 6.7 0 3.1-.5 6.2-1.1 7-1 1.2-.9 1.3.2.6 1.1-.6 1.3-.3.9 1.3-.3 1.2-.1 2.3.6 2.6.8.3.8.5-.1.5-.7.1-.9 1.3-.6 3.2.3 2.4.1 2.9-.9 2.3-.7-.4-.4.2.6 1.4 1.9 2.2 1.9 2.2 0 2.2-1.6 0-1.7.2-.4 1.1 1.2.8 1.2 1.2.2 1.6-1 .4-.9.8.5 1.9 1 .7 1.3 1.4.7 1.4-1.1 0-1 4.8.1 7.8.3.7.1 1.1-.4.8-1.3-.9-2.1 2-.9 3.2.8.8.7 1.6-.3 2.8-.8 1-.9 1.5-.3 1.1 1.4-.8 1.4 13 0 15.2-.6.9-.5 1.2.1.8 1.3-.8 1.2 13.1-.1 15.2-.6.9-.5 1.2.2.7.7-.4 1 .7.9 3.4l-.3 4H249c124.2 0 192-.4 191-1-.8-.5-1-1-.5-1 .6 0 1.1-.9 1.2-2 .1-1.1-.2-1.8-.6-1.6-.4.3-.8-.1-.8-.9s.4-1.2.9-.9c1 .6 1.1-1 .1-2-1.1-1-1.2-3.7-.2-3 .5.3.9 0 .9-.5 0-.6-.6-1.1-1.2-1.1-.9 0-.8-.3.2-1 1.3-.8 1.2-1.1-.5-2.5-1.2-.9-1.4-1.3-.5-1 1.1.4 1.6-.1 1.7-1.5.1-1.1-.2-1.8-.6-1.6-.4.3-.8-.1-.8-.9s.4-1.2.9-.9c1 .6 1.1-1 .1-2-1.1-1-1.2-3.7-.2-3 .5.3.9 0 .9-.5 0-.6-.6-1.1-1.2-1.1-.9 0-.8-.3.2-1 1.3-.8 1.2-1.1-.5-2.5-1.2-.9-1.4-1.3-.5-1 1.1.4 1.6-.1 1.7-1.5.1-1.1-.2-1.8-.6-1.6-.4.3-.8-.1-.8-.9s.4-1.2.9-.9c.4.3.8.1.8-.5 0-.5-.5-1.3-1-1.6-.7-.4-.7-1.3 0-2.6.8-1.3.7-1.9 0-1.9-.6 0-.8-.5-.5-1 .4-.6 1.1-.8 1.6-.5.5.3.6-.1.3-.9-.3-.9-.9-1.4-1.3-1.1-.4.2-.8-.2-.8-1s.4-1.2.9-.9c.4.3.8 0 .8-.5 0-.6-.6-1.1-1.2-1.1-.9 0-.8-.4.2-1 .8-.5 1.1-1 .6-1-.5 0-.3-.7.4-1.5 1.1-1.3 1-1.4-.2-1-1.1.4-1.4-.2-1.4-2.4 0-1.7.3-2.8.8-2.5.4.3.8-.2.8-1.1 0-.9-.4-1.4-.9-1.1-1.3.9-.7-1.9.8-3.8 1.2-1.4 1.2-1.6-.2-1-1.1.4-1.5 0-1.3-1.3.2-1-.1-2.3-.6-3-.7-.8-.3-1 1.4-.6 1.5.3 1.9.2 1-.4-2.1-1.5-2.4-5.3-.4-5.3 1.4 0 1.4-.2.3-.9-.8-.5-1.1-1.6-.8-2.4.3-.8.3-1.8-.1-2.1-.3-.4-.7-1.4-.8-2.2-.2-1.1.3-1.4 1.4-1 1.3.5 1.2.2-.2-.9-1.2-.9-1.5-1.5-.7-1.5 1.1 0 1.1-.3.1-1.5s-.9-1.6.5-2.1c1.3-.5 1.4-.9.4-1.5-.7-.4-1.4-1.5-1.5-2.3-.1-.9.2-1.4.7-1 .5.3.9 0 .9-.5 0-.6-.6-1.1-1.2-1.1-.9 0-.8-.4.2-1 .8-.5 1.1-1 .6-1-.5 0-.3-.7.4-1.5 1.1-1.3 1-1.4-.2-1-1.4.6-1.6-.4-.9-5.8.1-.5.5-.5 1.1-.2.6.3.7-.1.4-.9-.3-.9-.9-1.4-1.3-1.1-.4.2-.8-.2-.8-1s.4-1.2.9-.9c.4.3.8 0 .8-.5 0-.6-.6-1.1-1.2-1.1-.9 0-.8-.4.2-1 .8-.5 1.1-1 .6-1-.5 0-.3-.7.4-1.5 1.1-1.3 1-1.4-.2-1-1.1.4-1.4-.3-1.4-3.5s.4-3.9 1.6-3.5c.9.3.8-.1-.4-1-1.1-.8-1.5-1.5-.8-1.5.6 0 .9-.9.7-2-.2-1.1.2-2 .8-2.1.7 0 .3-.4-.8-.9-1.3-.6-1.5-.9-.5-.9 1.3-.1 1.3-.2 0-1.1-1.1-.7-1.1-1-.2-1 .8 0 1-.5.5-1.3-1.4-2.2-1.2-3.7.5-3.7 1.4 0 1.4-.2.3-.9-.8-.5-1.1-1.6-.8-2.4.3-.8.3-1.8-.1-2.1-.3-.4-.7-1.4-.8-2.2-.2-1.1.3-1.4 1.4-1 1.3.5 1.2.2-.2-.9-1.2-.9-1.5-1.5-.7-1.5 1.1 0 1.1-.3.1-1.5s-.9-1.6.5-2.1c1.3-.5 1.4-.9.4-1.5-.7-.4-1.4-1.5-1.5-2.3-.1-.9.2-1.4.7-1 .5.3.9 0 .9-.5 0-.6-.6-1.1-1.2-1.1-.9 0-.8-.4.2-1 .8-.5 1.1-1 .6-1-.5 0-.3-.7.4-1.5 1.1-1.3 1-1.4-.1-1-1 .4-1.5-.2-1.6-1.7-.2-1.8 0-2 .7-.8.8 1.3 1 1.2 1-.3 0-.9-.6-1.7-1.2-1.7-.9 0-.8-.4.2-1 1.3-.9 1.3-1.1 0-2-1-.6-1.1-1-.2-1 .6 0 1.2-.5 1.2-1.1 0-.5-.4-.8-.8-.5-.4.2-.8-.6-.8-1.9 0-1.3.4-2.1.8-1.9 1 .6.5-2.6-.6-4.5-.6-1-.5-1.2.2-.7.7.4 1.2.2 1.2-.3 0-.6-.6-1.1-1.2-1.1-.9 0-.8-.4.2-1 1.3-.9 1.3-1.1 0-2-1-.6-1.1-1-.2-1 .6 0 1.2-.5 1.2-1.1 0-.5-.4-.8-.8-.5-.4.2-.8-.6-.8-1.9 0-1.3.4-2.1.8-1.9 1 .6.5-2.6-.6-4.5-.6-1-.5-1.2.2-.7.7.4 1.2.2 1.2-.3 0-.6-.6-1.1-1.2-1.1-.9 0-.8-.4.2-1 1.3-.9 1.3-1.1 0-2-1.3-.9-1.3-1 0-1s1.3-.1 0-1c-1-.6-1.1-1-.2-1 .6 0 1.2-.5 1.2-1.1 0-.5-.4-.8-.8-.5-.5.3-.9-.1-.9-.9s.4-1.2.9-.9c1 .6 1.1-1 .1-2-1.1-1-1.2-3.7-.2-3 .5.3.9 0 .9-.5 0-.6-.6-1.1-1.2-1.1-.9 0-.8-.3.2-1 1.3-.8 1.2-1.1-.5-2.5-1.2-.9-1.4-1.3-.5-1 1.1.4 1.6-.1 1.7-1.5.1-1.1-.2-1.8-.6-1.6-.4.3-.8-.1-.8-.9s.4-1.2.9-.9c1 .6 1.1-1 .1-2-1.2-1.1-1.2-3.7-.1-3 .7.5.8.2.2-.7-1.2-2-1.4-4-.3-3.3.5.3.9 0 .9-.5 0-.6-.6-1.1-1.2-1.1-.8 0-.9-.3-.3-.8 1.3-.9 1.8-3.2.7-3.2-.5 0-.9-.7-.9-1.5 0-1.2.3-1.2 1.5-.2 1.3 1.1 1.4.9.2-1.3-1.9-3.5-2.1-5.3-.5-4.6.9.3 1.2 0 .8-.9-.3-.8-1-1.2-1.7-.8-.6.4-.5-.1.3-1 .7-.9.9-1.7.4-1.7s-.9-1.5-.9-3.4.4-3.2.8-3c.4.3.8 0 .8-.5 0-.6-.6-1.1-1.2-1.1-.8 0-.9-.3-.3-.8 1.4-1 1.7-3.2.4-3.2-.5 0-.7-.5-.4-1 .4-.6 1.1-.8 1.6-.5.5.3.6-.1.3-.9-.3-.9-.9-1.4-1.3-1.1-.4.2-.8-.2-.8-1s.4-1.2.9-.9c.4.3.8 0 .8-.5 0-.6-.6-1.1-1.2-1.1-.9 0-.8-.4.2-1 .8-.5 1.1-1 .6-1-.5 0-.3-.7.4-1.5 1.1-1.3 1-1.4-.1-1-1 .4-1.5-.2-1.6-1.7-.2-1.8 0-2 .7-.8.5.8 1 1 1 .4s-.3-1.4-.7-1.8c-1.1-1-1.2-3.7-.2-3 .5.3.9 0 .9-.5 0-.6-.6-1.1-1.2-1.1-.8 0-.9-.3-.3-.8 1.3-.9 1.8-3.2.7-3.2-.5 0-.9-.7-.9-1.5 0-1.2.3-1.2 1.5-.2 1.3 1.1 1.4.9.2-1.3-1.9-3.5-2.1-5.3-.5-4.6.9.3 1.2 0 .8-.9-.3-.8-1-1.2-1.7-.8-.6.4-.5-.1.3-1 .7-.9.9-1.7.4-1.7-1.2 0-1.1-3.9.1-5.8.5-.9.1-2.1-1.3-3.3-1.2-1.1-2.1-1.5-2.1-.8 0 .8-.5.7-1.7-.2-1-.8-1.4-.9-1-.2.9 1.5-3.5 1.4-4.5-.2-.5-.7-.8-.7-.8.1 0 1.2-3.8 1.3-5.6.1-.6-.3-1.4-.3-1.8 0-.4.4-1.6.8-2.7 1-1.4.2-1.8-.1-1.3-.9.6-1 .4-1.1-.7-.1-1.6 1.6-3.3 1.7-2.3.1.5-.7.3-.8-.7-.2-1.9 1.2-3.3 1.2-4.1-.1-.5-.7-.8-.6-.8.1 0 1.3-3.8 1.2-5.9 0-.9-.6-1.2-.5-.7.2.8 1.4-3.6 1.2-4.6-.3-.5-.7-.8-.7-.8.1 0 1.2-3.8 1.3-5.6.1-.6-.3-1.4-.3-1.8 0-1.2 1.3-4.8 1.4-4 .1.5-.7.3-.8-.7-.2-2.1 1.2-5.9 1.3-5.9 0 0-.7-.3-.6-.8.1-.9 1.4-6.3 1.3-7.4-.2-.5-.6-.8-.6-.8.1 0 1.3-5.8 1.3-7.7.1-.6-.4-1.4-.3-1.8.2-.7 1.3-4.5 1-4.5-.4 0-.6-.3-.7-.8 0-1.1 1.5-3.2 1.7-4.7.5-.9-.8-1.5-.8-2-.1-.6 1.1-4 1-5.1-.2-.4-.4-1.3-.2-2.1.4-.9.8-1.7.8-2.6 0-.8-.6-1.7-.8-2.1-.4-1.1 1.2-5.6 1.1-5.6-.1 0-.7-.3-.6-.8.1-.9 1.4-6.3 1.3-7.4-.2-.5-.6-.8-.6-.8.1 0 .6-1.6 1.1-3.5 1.1-2.2 0-3.2-.4-2.8-1.1.4-.6-.1-.5-1 .3-1.4 1.1-1.7 1.1-1.7 0s-.2-1.1-1 .1c-.9 1.3-1.1 1.3-2 0-.5-.8-1-1-1-.5 0 1.4-5.3 1.5-6.2.1-.5-.7-.8-.6-.8.3 0 1.1-.3 1.1-1.7 0-.9-.8-1.4-.9-1-.3.4.8-.3 1.1-2.3 1-1.7 0-3-.5-3-1.1 0-.6-.3-.6-.8.1-.9 1.3-9.4 1.3-10.4-.1-.5-.6-.8-.5-.8.3 0 1.4-6.1 1.2-7.2-.3-.5-.6-.8-.6-.8.1 0 1.3-5.8 1.3-7.7.1-.6-.4-1.4-.3-1.8.2-.7 1.3-4.5 1-4.5-.4 0-.6-.3-.7-.8 0-1.1 1.5-3.2 1.7-4.7.5-.9-.8-1.5-.8-2-.1-.6 1.1-4 1-5.1-.2-.4-.4-1.3-.2-2.1.4-.9.8-1.7.8-2.6 0-.8-.6-1.7-.8-2.1-.4-1.1 1.2-5.6 1.1-5.6-.1 0-.7-.3-.6-.8.1-.9 1.4-6.3 1.3-7.4-.2-.5-.6-.8-.6-.8.1 0 .6-1.6 1.1-3.5 1.1-2.2 0-3.2-.4-2.8-1.1.4-.6-.1-.5-1 .3-1.4 1.1-1.7 1.1-1.7 0s-.2-1.1-1 .1c-.9 1.3-1.1 1.3-2 0-.5-.8-1-1-1-.5 0 1.4-5.3 1.5-6.2.1-.5-.7-.8-.6-.8.3 0 1.1-.3 1.1-1.7 0-.9-.8-1.4-.9-1-.3.4.8-.3 1.1-2.3 1-1.7 0-3-.5-3-1.1 0-.6-.3-.6-.8.1-.9 1.3-9.4 1.3-10.4-.1-.5-.6-.8-.5-.8.3 0 1.4-6.1 1.2-7.2-.3-.5-.6-.8-.6-.8.1 0 1.3-5.8 1.3-7.7.1-.6-.4-1.4-.3-1.8.2-.7 1.3-4.5 1-4.5-.4 0-.6-.3-.7-.8 0-1.1 1.5-3.2 1.7-4.7.5-.9-.8-1.5-.8-2-.1-.6 1.1-4 1-5.1-.2-.4-.4-1.3-.2-2.1.4-.9.8-1.7.8-2.6 0-.8-.6-1.7-.8-2.1-.4-1.1 1.2-5.6 1.1-5.6-.1 0-.7-.3-.6-.8.1-.9 1.4-6.3 1.3-7.4-.2-.5-.6-.8-.5-.8.2s-.9 1.3-2.1 1.3c-1.3 0-1.8-.4-1.3-1.2.5-.7.3-.8-.7-.2-1.9 1.2-3.3 1.2-4.1-.1-.5-.7-.8-.6-.8.1 0 1.3-3.8 1.2-5.9 0-.9-.6-1.2-.5-.7.2.8 1.4-3.6 1.2-4.6-.3-.5-.7-.8-.7-.8.1 0 1.2-3.8 1.3-5.6.1-.6-.3-1.4-.3-1.8 0-.4.4-1.6.8-2.7 1-1.4.2-1.8-.1-1.3-.9.6-1 .4-1.1-.7-.1-.7.7-1.7 1.3-2.2 1.3-.4 0-.5-.6-.1-1.3.5-.7 0-.6-1.1.3-2.1 1.7-2.4 1.7-3.6-.2-.5-.7-.9-.8-.9-.2 0 1.3-3.8 1.2-5.9 0-.9-.6-1.2-.5-.7.2.8 1.4-3.6 1.2-4.6-.3-.5-.7-.8-.7-.8.1 0 1.2-3.8 1.3-5.6.1-.6-.3-1.4-.3-1.8 0-1.2 1.3-4.8 1.4-4 .1.4-.7.3-.8-.4-.4-2.3 1.4-5.6 1.5-7.1.3-1.2-1-1.4-.9-.8.5zm60.4 112.1c-.3.9 1.1 1.2 4.9 1.3 3 .1 5.4-.3 5.4-.8s.5-.6 1.1-.3c1.7 1.1 5.9 1.3 5.9.2 0-.5.6-.5 1.4.2 1.1.9 1.5.8 2.1-.6.6-1.6.8-1.6 2.6.6 1.3 1.6 1.9 1.9 1.9.8 0-1.2.7-1.3 3.4-.7 2.8.6 3.6.4 4.1-.9.6-1.4.9-1.3 2.6.8 1.3 1.6 1.9 1.9 1.9.8 0-1.2.7-1.3 3.5-.7 2.4.5 3.5.4 3.6-.4 0-.7.3-.6.6.2.4 1 .9.9 2-.5.8-1 1.2-1.3.9-.8-.2.6-.1 1.7.5 2.5.7 1.3.9 1.2.9-.1 0-1.4.6-1.6 3.5-.9 2.4.5 3.5.4 3.6-.4 0-.7.3-.6.6.2.4 1 .9.9 2-.5.8-1 1.2-1.3.9-.8-.2.6-.1 1.7.5 2.5.7 1.3.9 1.2.9-.1 0-1.4.6-1.6 3.5-.9 2.4.5 3.5.4 3.5-.4 0-.6.5-.4 1 .4.9 1.3 1 1.3 1 0 .1-1.1.4-1 1.5.4 1.3 1.7 1.5 1.7 1.5.3 0-1.3.5-1.5 2.5-.7 1.9.7 2.7.6 3.5-.8.9-1.3 1-1.3.7-.1-.4 1.2.3 1.5 3 1.4 1.9-.1 3.9-.8 4.5-1.6.8-1.2.9-1.1.5.2-.4 1.2.3 1.5 3 1.4 1.9-.1 3.9-.8 4.5-1.6.8-1.2.9-1.1.5.2-.4 1.2.3 1.5 3 1.4 1.9-.1 3.9-.8 4.5-1.6.8-1.1.9-1.1.5.3-.4 1.2 0 1.5 2 1.3 1.4-.1 2.9-.9 3.4-1.6.7-1.2.9-1.2.9 0 0 .8.3 1.2.6.8.3-.3 1.7-.1 3.1.4 2.2.8 2.4.7 1.9-.8s-.4-1.5.9.1c1.1 1.4 1.5 1.6 1.5.5.1-1 .5-.9 1.5.5 1.5 1.9 1.5 1.9 1.5-.5 0-1.3.4-1.9.8-1.3.4.6 2 1.3 3.5 1.6 2.3.4 2.7.2 2.3-1.1-.4-1.1-.2-1 .9.3 1.1 1.4 1.5 1.6 1.5.5.1-1 .5-.9 1.5.5 1.5 1.9 1.5 1.9 1.5-.5 0-1.3.4-1.9.8-1.3.4.6 2 1.3 3.5 1.6 2.3.4 2.7.2 2.3-1.1-.4-1.1-.2-1 .9.3 1.1 1.4 1.5 1.6 1.5.5.1-1 .5-.9 1.5.5 1.5 1.9 1.5 1.9 1.5-.5 0-1.3.4-1.9.8-1.3.4.6 2 1.3 3.5 1.6 2.3.4 2.7.2 2.3-1.1-.4-1.1-.2-1 .9.3 1.1 1.4 1.5 1.6 1.5.5.1-1 .5-.9 1.5.5 1.5 1.9 1.5 1.9 1.5-.5 0-1.3.4-1.9.8-1.3.4.6 1.9 1.3 3.5 1.6 2 .4 2.7.1 2.8-1.1 0-1.2.2-1.1.9.4.6 1.4.9 1.5 1 .5 0-1.2.4-1.1 1.5.4 1.3 1.7 1.5 1.7 1.5.3 0-1.3.5-1.5 2.5-.7 1.9.7 2.7.6 3.5-.8.9-1.3 1-1.3.7-.1-.4 1.2.3 1.5 3 1.4 1.9-.1 3.9-.8 4.5-1.6.8-1.2.9-1.1.5.2-.4 1.2.3 1.5 3 1.4 1.9-.1 3.9-.8 4.5-1.6.8-1.2.9-1.2.5.1-.4 1.2.6 1.5 4.8 1.5 3.1 0 5.1-.4 4.7-.9-.3-.6.3-.6 1.4-.2 3.1 1.2 6.4 1.4 6.4.3 0-.5.6-.5 1.4.2 1.1.9 1.5.8 2.1-.6.6-1.6.8-1.6 2.6.6 1.3 1.6 1.9 1.9 1.9.8 0-1.2.7-1.3 3.4-.7 2.8.6 3.6.4 4.1-.9.6-1.4.9-1.3 2.6.8 1.3 1.6 1.9 1.9 1.9.8 0-1.2.7-1.3 3.5-.7 2.4.5 3.5.4 3.6-.4 0-.7.3-.6.6.2.4 1 .9.9 2-.5.8-1 1.2-1.3.9-.8-.2.6-.1 1.7.5 2.5.7 1.3.9 1.2.9-.1 0-1.4.6-1.6 3.5-.9 2.4.5 3.5.4 3.6-.4 0-.7.3-.6.6.2.4 1 .9.9 2-.5.8-1 1.2-1.3.9-.8-.2.6-.1 1.7.5 2.5.7 1.3.9 1.2.9-.1 0-1.4.6-1.6 3.5-.9 2.4.5 3.5.4 3.5-.4 0-.6.5-.4 1 .4.9 1.3 1 1.3 1 0 .1-1.1.4-1 1.5.4 1.5 2 1.5 2 1.6 0 0-1 .3-1.3.6-.6.2.6.8 1 1.2.8.4-.3.8.1.8.9s-.4 1.5-.8 1.5c-.5 0-.5.7-.2 1.7.5 1.2.3 1.4-.8.8-1.1-.7-1.2-.6-.3.6 1.5 1.8 2.7 8.2 1.4 7.4-.9-.6-.6 2.7.5 4.5.3.6-.1 1-1 1s-1.4.4-1 1c.3.5 1.3.7 2.3.4 1.3-.5 1.4-.4.3.4-.8.6-1.1 1.7-.7 2.7.4 1.1-.1 2.6-1.1 3.8-1 1.1-1.2 1.7-.5 1.3 1.1-.7 1.7.7 1.2 2.9-.3 1.3-.3 102 0 109.5.3 6.9.2 8-.7 7.9-.5-.1-1 0-1.3.1-1.7.6-5.2.5-5.6-.2-.3-.4-1-.5-1.7-.1-1.4.8-5.7 1.1-5.7.3 0-.3-.9-.6-1.9-.6-1.1 0-1.7.4-1.5.8.3.4.1.8-.5.8-.5 0-1.1-.6-1.4-1.3-.3-.9-.7-.9-2 .2-1.1.9-1.7 1-1.7.2 0-.6-.5-1.1-1.1-1.1-.5 0-.8.3-.6.7.3.5-.6.9-1.9.9-1.3.1-2.1-.2-1.8-.7.7-1.2-1.9-.7-2.9.6-.6.6-1 .5-1.4-.4-.5-1.1-.7-1.1-1.4 0s-.9.9-.9-.6c0-1.6-.2-1.7-.9-.6-1.1 1.7-15.1 2.2-15.1.6 0-.6-.5-.3-1 .5-.9 1.3-1 1.3-1 0s-.1-1.3-1 0c-.8 1.2-1 1.2-1 .1 0-1.1-.3-1.1-1.5-.1-1 .8-1.5.9-1.5.1 0-.7-.8-.8-2.6-.1-1.4.6-2.3.6-2 .2.2-.4-.4-.8-1.4-.8-1 0-1.6.4-1.4.8.3.4.1.8-.5.8-.5 0-1.1-.6-1.4-1.3-.3-.9-.7-.9-2 .2-1.1.9-1.7 1-1.7.2 0-.6-.5-1.1-1.1-1.1-.5 0-.8.3-.6.7.3.5-.6.9-1.9.9-1.3.1-2.1-.2-1.8-.7.7-1.2-1.9-.7-2.9.6-.6.6-1 .5-1.4-.4-.5-1.1-.7-1.1-1.4 0s-.9.9-.9-.6c0-1.6-.2-1.7-.9-.6-1.1 1.7-15.1 2.2-15.1.6 0-.6-.5-.3-1 .5-.9 1.3-1 1.3-1 0s-.1-1.3-1 0c-.8 1.2-1 1.2-1 .1 0-1.1-.3-1.1-1.5-.1-1 .8-1.5.9-1.5.1 0-.7-.8-.8-2.6-.1-1.4.6-2.3.6-2 .2.2-.4-.4-.8-1.4-.8-1 0-1.6.4-1.4.8.3.4.1.8-.5.8-.5 0-1.1-.6-1.4-1.3-.3-.9-.7-.9-2 .2-1.1.9-1.7 1-1.7.2 0-.6-.5-1.1-1.1-1.1-.5 0-.8.4-.5.8.6 1-3.5.9-5.1-.1-.8-.5-1.3-.3-1.3.4 0 .8-.5.7-1.7-.2-1.1-1-1.4-1-.9-.2.4.7.3 1.3-.3 1.3-.5 0-1.1-.6-1.4-1.3-.3-.9-.7-.9-2 .2-1.1.9-1.7 1-1.7.2 0-.6-.5-1.1-1.1-1.1-.5 0-.8.3-.6.7.3.5-.6.9-1.9.9-1.3.1-2.1-.2-1.8-.7.7-1.2-1.9-.7-2.9.6-.6.6-1 .5-1.4-.4-.5-1.1-.7-1.1-1.4 0s-.9.9-.9-.6c0-1.6-.2-1.7-.9-.6-1.1 1.7-15.1 2.2-15.1.6 0-.6-.5-.3-1 .5-.9 1.3-1 1.3-1 0s-.1-1.3-1 0c-.8 1.2-1 1.2-1 .1 0-1.1-.3-1.1-1.5-.1-1 .8-1.5.9-1.5.1 0-.7-.8-.8-2.6-.1-1.4.6-2.3.6-2 .2.2-.4-.4-.8-1.4-.8-1 0-1.6.4-1.4.8.3.4.1.8-.5.8-.5 0-1.1-.6-1.4-1.3-.3-.9-.7-.9-2 .2-1.1.9-1.7 1-1.7.2 0-.6-.5-1.1-1.1-1.1-.5 0-.8.3-.6.7.3.5-.6.9-1.9.9-1.3.1-2.1-.2-1.8-.7.7-1.2-1.9-.7-2.9.6-.6.6-1 .5-1.4-.4-.5-1.1-.7-1.1-1.4 0s-.9.9-.9-.6c0-1.6-.2-1.7-.9-.6-1.1 1.7-15.1 2.2-15.1.6 0-.6-.5-.3-1 .5-.9 1.3-1 1.3-1 0s-.1-1.3-1 0c-.8 1.2-1 1.2-1 .1 0-1.1-.3-1.1-1.5-.1-1 .8-1.5.9-1.5.1 0-.7-.8-.8-2.6-.1-1.4.6-2.3.6-2 .2.2-.4-.4-.8-1.4-.8-1 0-1.6.4-1.4.8.3.4.1.8-.5.8-.5 0-1.1-.6-1.4-1.3-.3-.9-.7-.9-2 .2-1.1.9-1.7 1-1.7.2 0-.6-.5-1.1-1.1-1.1-.5 0-.8.3-.6.7.3.5-.6.9-1.9.9-1.3.1-2.1-.2-1.8-.7.7-1.2-1.9-.7-2.9.6-.6.6-1 .5-1.4-.4-.5-1.1-.7-1.1-1.4 0s-.9.9-.9-.6c0-1.6-.2-1.7-.9-.6-1 1.6-12.1 2.3-12.1.8 0-.5-.6-.5-1.2-.1-1.9 1.2-4.8 1.2-4.8.1 0-.5-.7-.4-1.5.3-1.2 1-1.5 1-1.5-.1s-.2-1.1-1 .1c-.8 1.3-1 1.2-1-.4 0-2 0-2-1.5 0-.9 1.2-1.4 1.4-1.5.6 0-.7-.4-1.1-.9-.7-.5.3-1.2.1-1.6-.5-.3-.5 0-1 .7-1 .9 0 .9-.3-.2-1-1.3-.9-1.3-1 0-1 .9 0 1.1-.3.4-.8-1.3-.9-1.3-5.2.1-5.2.5 0 .3-.5-.5-1-1.3-.9-1.3-1.1 0-2 1.1-.7 1.2-1.2.4-1.8-1.4-.9-1.3-6.4.1-7.4.6-.5.5-.8-.2-.8s-1.3-.5-1.3-1.1c0-.5.6-.7 1.3-.3.9.5.9.4 0-.6-1-1.1-.9-1.6.5-2.7.9-.8 1.2-1.2.5-.9-.6.4-1.4.2-1.8-.4-.3-.5 0-1 .7-1 .9 0 .9-.3-.2-1-1.3-.8-1.2-1.1.5-2.5 1.1-.9 1.5-1.4.8-1.1-1.8 1-2.6-1.3-1.1-3.1 1.1-1.4 1.1-1.6-.2-.8s-1.3.7-.1-.8c1-1.3 1.1-1.7.1-1.7-.9 0-.7-.7.6-2.2 1.5-1.9 1.6-2 .2-.9-2 1.5-2.5.2-.6-1.7.9-.9.9-1.2.1-1.2-1.4 0-1.2-6.2.2-7.2.6-.5.5-.8-.2-.8s-1.3-.5-1.3-1.1c0-.5.6-.7 1.3-.3.9.5.9.4 0-.6-1-1.1-.9-1.6.5-2.7.9-.8 1.2-1.2.5-.9-.6.4-1.4.2-1.8-.4-.3-.5 0-1 .7-1 .9 0 .9-.3-.2-1-1.3-.8-1.2-1.1.5-2.5 1.1-.9 1.5-1.4.8-1.1-1.8 1-2.6-1.3-1.1-3.1 1.1-1.4 1.1-1.6-.2-.8s-1.3.7-.1-.8c1-1.3 1.1-1.7.1-1.7-.9 0-.7-.7.6-2.2 1.5-1.9 1.6-2 .2-.9-2 1.5-2.5.2-.6-1.7.9-.9.9-1.2.1-1.2-1.4 0-1.2-6.2.2-7.2.6-.5.5-.8-.2-.8s-1.3-.5-1.3-1.1c0-.5.6-.7 1.3-.3.9.5.9.4 0-.6-1-1.1-.9-1.6.5-2.7.9-.8 1.2-1.2.5-.9-.6.4-1.4.2-1.8-.4-.3-.5 0-1 .7-1 .9 0 .9-.3-.2-1-1.3-.8-1.2-1.1.5-2.5 1.1-.9 1.5-1.4.8-1.1-1.8 1-2.6-1.3-1.1-3.1 1.1-1.4 1.1-1.6-.2-.8s-1.3.7-.1-.8c1-1.3 1.1-1.7.1-1.7-.9 0-.7-.7.6-2.2 1.5-1.9 1.6-2 .2-.9-2 1.5-2.5.2-.6-1.7.8-.8.8-1.2.1-1.2-1.2 0-1.1-5.9.2-8 .5-.8.4-1.1-.2-.7-1.2.8-1.2-4.1 0-6.1.5-.7.4-1.2-.2-1.2-.6 0-1.1-.5-1.1-1.1 0-.5.4-.8.8-.5.4.2.8-.4.8-1.4 0-1-.4-1.7-.7-1.4-.9.5-.5-4.3.4-5.3.4-.3.7-1.1.7-1.7 0-.6-.4-.5-.9.3-.7 1-.9.7-.8-1.2.1-1.4.5-2.3.9-2.1.4.2 1 0 1.3-.6.4-.6.1-.9-.7-.8-.8.2-1.3-.6-1.2-2.2.2-4.1.3-4.3 2.5-3.7 1.2.3 2.2 0 2.6-.9.3-.8.7-1.4 1-1.4.3 0 .3.6 0 1.3zm8.7-.5c.2.4-.5.9-1.7.9-1.7.2-1.9 0-.7-.7 1.8-1.2 1.8-1.2 2.4-.2z"/><path d="M227.6 226.2c.3.5 1 .6 1.5.3 1.3-.9 1.1-1.2-.6-1.2-.8 0-1.2.4-.9.9zM120.6 235.4c-1 1.5-1.2 2.7-.6 3.1 1.5.9 1.2 2.7-.2 1.9-1-.6-1-.4 0 .7.6.7 1.2 1.7 1.2 2.2 0 .4-.6.5-1.2.1-.9-.5-.9-.2.1.9 1.1 1.4 1.1 1.7 0 1.7s-1.1.2.1 1c1.2.7 1.2 1.2.3 2.1-.9.9-1 1.6-.2 2.6.9.9.8 1.3 0 1.3-.7 0-.9.5-.6 1 .4.6 1.2.7 1.8.3.9-.5.9-.3.1.8-.6.8-1 3.4-.9 5.9.1 2.5-.3 5.1-.9 5.9-.7.9-.7 1.2-.1.9.7-.4 1.1 1.1 1.1 4.3 0 2.7-.5 4.9-1.1 4.9-.6 0-.7.3 0 .8 1.6 1.1 1.7 3.3.3 5-.7.9-.8 1.3-.3 1 1.4-.8 1.4 13.1.1 15.1-.6.9-.5 1.2 0 .8.6-.3 1 1.5 1 4.4 0 2.7-.5 4.9-1.1 4.9-.6 0-.7.3 0 .8 1.6 1.1 1.7 3.3.3 5-.7.9-.8 1.3-.3 1 1.4-.8 1.4 13.1.1 15.1-.6.9-.5 1.2 0 .8.6-.3 1 1.5 1 4.4 0 2.7-.5 4.9-1.1 4.9-.6 0-.7.3 0 .8 1.6 1.1 1.7 3.3.3 5-.7.9-.8 1.3-.3 1 .7-.4 1.1 2 1.1 6.7 0 4.1-.4 7.1-.9 6.8-.5-.3-.3.4.4 1.4.6 1.1 1.8 2 2.5 2s1.1-.4.8-.8c-.2-.4.1-1.1.7-1.5.8-.4.9-.3.5.4s-.2 1.2.4 1.2c.6 0 .8.4.5 1-.8 1.3 2.8 0 3.7-1.4.5-.7.8-.7.8.1 0 1.7 3.7 1.7 4.3 0 .4-.9.6-.9.6 0 .1.7.8 1.3 1.7 1.3.9 0 1.2-.5.8-1.3-.5-.7-.1-.7 1 .2 1.5 1.3 1.9 1.3 2.7 0 .5-.8.9-.9.9-.3 0 .7 2.4 1.1 6.5 1.1 4.4 0 6.2-.3 5.8-1.1-.4-.7-.1-.6.8.1 1.8 1.4 6.1 1.3 7.1-.2.5-.6.8-.6.8.2 0 .7.7 1 1.7.6 1.1-.4 1.4-.3.9.5-.9 1.5 2.6.3 3.6-1.2.5-.7.8-.7.8.1 0 .7.9 1.3 1.9 1.3 1.1 0 2.2-.6 2.4-1.3.4-1 .6-1 .6 0 .1.7.7 1.3 1.5 1.3s1.7-.6 1.9-1.3c.4-.9.6-.9.6 0 .1.7.8 1 1.8.6 1.1-.4 1.4-.3.9.5-.9 1.5 2.6.3 3.6-1.2.5-.7.8-.7.8.1 0 .7.9 1.3 2 1.3s2-.6 2-1.3c0-.8.3-.8.8-.1 1 1.5 12.4 1.5 11.5 0-.5-.8-.3-.8.8 0 1.9 1.5 7.1 1.5 6.2 0-.4-.6.1-.5 1.1.3 1.5 1.3 1.9 1.3 2.7 0 .6-1 .9-1 .9-.2 0 1.7 3.7 1.7 4.3 0 .4-.9.6-.9.6 0 .1.7.8 1 1.8.6 1.1-.4 1.4-.3.9.5-.9 1.5 2.6.3 3.6-1.2.5-.7.8-.7.8.1 0 1.7 3.7 1.7 4.3 0 .4-.9.6-.9.6 0 .1.7.8 1.3 1.7 1.3.9 0 1.2-.5.8-1.3-.5-.7-.1-.7 1 .2 1.5 1.3 1.9 1.3 2.7 0 .5-.8.9-.9.9-.3 0 .7 2.4 1.1 6.5 1.1 4 0 6.2-.4 5.8-1-.4-.6-.1-.7.8-.1 2.1 1.4 16 1.4 15.2 0-.5-.8-.3-.8.8 0 1.9 1.5 7.1 1.5 6.2 0-.4-.6.1-.5 1.1.3 1.5 1.3 1.9 1.3 2.7 0 .6-1 .9-1 .9-.2 0 1.7 3.7 1.7 4.3 0 .4-.9.6-.9.6 0 .1.7.8 1 1.8.6 1.1-.4 1.4-.3.9.5-.9 1.5 2.6.3 3.6-1.2.5-.7.8-.7.8.1 0 .7.9 1.3 1.9 1.3 1.1 0 2.2-.6 2.4-1.3.4-1 .6-1 .6 0 .1.7.8 1.3 1.7 1.3.9 0 1.2-.5.8-1.3-.5-.7-.1-.7 1 .2 1.5 1.3 1.9 1.3 2.7 0 .5-.8.9-.9.9-.3 0 .7 2.4 1.1 6.5 1.1 4.4 0 6.2-.3 5.8-1.1-.4-.7-.1-.6.8.1 1.8 1.4 6.1 1.3 7.1-.2.5-.6.8-.6.8.2 0 .7.7 1 1.7.6 1.1-.4 1.4-.3.9.5-.9 1.5 2.6.3 3.6-1.2.5-.7.8-.7.8.1 0 1.7 3.7 1.7 4.3 0 .4-.9.6-.9.6 0 .1 1.7 2.8 1.7 3.4 0 .4-.9.6-.9.6 0 .1.7.8 1 1.8.6 1.1-.4 1.4-.3.9.5-.9 1.5 2.6.3 3.6-1.2.5-.7.8-.7.8.1 0 .7.9 1.3 2 1.3s2-.6 2-1.3c0-.8.3-.8.8-.1 1 1.5 12.4 1.5 11.5 0-.5-.8-.3-.8.8 0 1.8 1.5 8 1.4 7.2 0-.5-.8-.2-.7.8 0 1.6 1.3 5.1 1.5 4.3.2-.3-.4.2-.8 1-.8.9 0 1.6-.5 1.6-1.1 0-.5-.4-.8-.9-.4-.5.3-1.2.1-1.6-.5-.3-.5.1-1 .9-1s1.7-.4 2-.9c.3-.5-.2-.8-1.1-.7-1 0-1.7-.7-1.8-2.1-.1-1.5.3-1.9 1.4-1.5 1.4.5 1.3.2-.1-1.4-1.7-1.9-1.7-2.1 0-3.8.9-1.1 1.2-1.6.5-1.2-.6.3-1.4.2-1.8-.4-.3-.5.2-1 1.2-1 1.7-.1 1.7-.2-.1-1.5-1.7-1.3-1.7-1.5-.4-1.5.9 0 1.9-.4 2.2-.9.3-.5-.2-.8-1.1-.7-1 0-1.7-.7-1.8-2.1-.1-1.5.3-1.9 1.4-1.5 1.4.5 1.3.2-.1-1.4-1.7-1.9-1.7-2.1 0-3.8.9-1.1 1.2-1.6.5-1.2-.6.3-1.4.2-1.8-.4-.3-.5.2-1 1.2-1 1.7-.1 1.7-.2-.1-1.5-1.7-1.3-1.7-1.5-.4-1.5.9 0 1.9-.4 2.2-.9.3-.5-.2-.8-1.1-.7-1 0-1.7-.7-1.8-2.1-.1-1.5.3-1.9 1.4-1.5 1.4.5 1.3.2-.1-1.4-1.7-1.9-1.7-2.1 0-3.8.9-1.1 1.2-1.6.5-1.2-.6.3-1.4.2-1.8-.4-.3-.5.2-1 1.2-1 1.7-.1 1.7-.2-.1-1.5-1.7-1.3-1.7-1.5-.4-1.5.9 0 1.9-.4 2.2-.9.3-.5-.2-.8-1.1-.7-1 0-1.7-.7-1.8-2.1-.1-1.5.3-1.9 1.4-1.5 1.4.5 1.3.2-.1-1.4-1.7-1.9-1.7-2.1 0-3.8.9-1.1 1.2-1.6.5-1.2-.6.3-1.4.2-1.8-.4-.3-.5.2-1 1.2-1 1.7-.1 1.7-.2-.1-1.5-1.7-1.3-1.7-1.5-.4-1.5.9 0 1.9-.4 2.2-.9.3-.5-.2-.8-1.1-.7-1 0-1.7-.7-1.8-2.1-.1-1.5.3-1.9 1.4-1.5 1.4.5 1.3.2-.1-1.4-1.7-1.9-1.7-2.1 0-3.8.9-1.1 1.2-1.6.5-1.2-.6.3-1.4.2-1.8-.4-.3-.5.2-1 1.2-1 1.7-.1 1.7-.2-.1-1.5-1.7-1.3-1.7-1.5-.4-1.5.9 0 1.9-.4 2.2-.9.3-.5-.2-.8-1.1-.7-1 0-1.7-.7-1.8-2.1-.1-1.5.3-1.9 1.4-1.5 1.4.5 1.3.2-.1-1.4-1.7-1.9-1.7-2.1 0-3.8.9-1.1 1.2-1.6.5-1.2-.6.3-1.4.2-1.8-.4-.3-.5.2-1 1.2-1 1.7-.1 1.7-.2-.1-1.5-1.7-1.3-1.7-1.5-.4-1.5.9 0 1.9-.4 2.2-.9.3-.5-.2-.8-1.1-.7-1 0-1.7-.7-1.8-2.1-.1-1.5.3-1.9 1.3-1.5 1.1.4 1.3.2.7-.9-1.2-1.9-1.2-5.2 0-6.1.6-.4.2-.8-.8-.8s-1.5-.5-1.2-1c.4-.6 1-.8 1.5-.5 1.3.8.3-3.4-1.2-5.3-.8-.9-.8-1.3-.2-.9.7.4 1.4 0 1.8-.8.3-.8 0-1.7-.6-2.1-.7-.5-.8-.2-.3.6.6.9.4 1.1-.5.5-1-.6-1-1 .2-1.9 1-.7 1.2-1.8.8-3.1-.4-1.1-.5-2.4-.2-2.9s0-.6-.7-.2c-.6.4-.9 1.1-.6 1.6.3.4-.4.6-1.5.3s-1.7-.9-1.4-1.4c.3-.5-.2-.6-1-.3-.9.3-1.3 1.1-.9 1.8s.1.6-.9-.2c-.8-.7-2.3-1-3.2-.6-1 .4-1.6.1-1.6-.7 0-.8-.6-.5-1.5.7-1.3 1.6-1.4 1.6-.9.1.5-1.3.2-1.6-1-1.1-.9.3-1.4 1-1.1 1.4.3.5-.4.6-1.6.3-1.6-.4-1.7-.8-.7-1.4.7-.5.8-.9.2-.9-.5 0-1.5.5-2.2 1.2-.7.7-1.2.8-1.2.4 0-.5-.6-.3-1.4.3-1.1.9-1.6.9-2.2 0-.5-.8-.3-.9.6-.4.9.5 1.1.4.6-.4-.5-.8-1.2-.9-1.9-.3-1.7 1.4-6.8 1.2-6-.2.4-.6-.2-.4-1.2.4-1.4 1.2-1.9 1.2-2.3.2-.3-1-.8-.8-1.8.5-1.3 1.7-1.4 1.7-.8 0 .5-1.3.2-1.6-1-1.1-.9.3-1.3 1.1-.9 1.8s.2.7-.8-.1c-1.1-.9-1.9-.9-2.6-.2-.8.8-1.3.7-1.8-.2-.6-.8-.4-1 .5-.4.9.5 1.1.4.6-.4-.6-.9-1.1-.9-2.2 0-.7.6-2 .9-2.9.6-.8-.4-1.7-.2-2.1.4-.3.6-1 .6-1.7.1s-2.5-.8-4.2-.5c-2.3.3-2.6.1-1.5-.7.8-.5 1-1 .4-1-.5 0-1.5.5-2.2 1.2-.7.7-1.2.8-1.2.4 0-.5-.6-.3-1.4.3-1.1.9-1.6.9-2.2 0-.5-.8-.3-.9.6-.4.8.5 1.1.4.7-.2-.4-.6-1.7-.9-2.9-.7-8.9 1.5-9.3 1.5-7.8.5.8-.6 1-1.1.4-1.1-.5 0-1.5.5-2.2 1.2-.7.7-1.2.8-1.2.4 0-.5-.6-.3-1.4.3-1.1.9-1.6.9-2.2 0-.5-.8-.3-.9.6-.4.8.5 1.1.4.7-.2-.4-.6-1.9-.8-3.4-.6-1.6.3-3.7.6-4.9.7-1.1.1-2.5.5-3.1.9-.7.4-1.5.2-1.9-.4-.5-.8-.3-.9.6-.4.9.5 1.1.4.6-.4-.6-.9-1.1-.9-2.2 0-.7.6-2 .9-2.8.6-.7-.3-1.9 0-2.6.6-1 .9-1.1.9-.6-.1.5-.7.1-1.2-.9-1.2s-1.3.5-.9 1.2c.6 1 .4 1-.8 0-.8-.7-2.3-1-3.2-.6-1 .4-1.6.1-1.6-.7 0-.8-.6-.5-1.5.7-1.3 1.6-1.4 1.6-.9.1.5-1.3.2-1.6-1-1.1-.9.3-1.4 1-1.1 1.4.3.5-.4.6-1.6.3-1.6-.4-1.7-.8-.7-1.4.7-.5.8-.9.3-.9-.6 0-1.6.5-2.3 1.2-.7.7-1.2.8-1.2.4 0-.5-.6-.3-1.4.3-1.1.9-1.6.9-2.2 0-.5-.8-.3-.9.6-.4.9.5 1.1.4.6-.4-.5-.8-1.2-.9-1.9-.3-1.7 1.4-6.8 1.2-6-.2.4-.6-.2-.4-1.2.4-1.4 1.2-1.9 1.2-2.3.2-.3-1-.8-.8-1.8.5-1.3 1.7-1.4 1.7-.8 0 .5-1.3.2-1.6-1-1.1-.9.3-1.3 1.1-.9 1.8s.2.7-.8-.1c-1.1-.9-1.9-.9-2.6-.2-.8.8-1.3.7-1.8-.2-.6-.8-.4-1 .5-.4.9.5 1.1.4.6-.4-.6-.9-1.1-.9-2.2 0-.7.6-2 .9-2.9.6-.8-.4-1.7-.2-2.1.4-.3.6-1 .6-1.7.1s-2.5-.8-4.2-.5c-2.3.3-2.6.1-1.5-.7.8-.5 1-1 .5-1-.6 0-1.6.5-2.3 1.2-.7.7-1.2.8-1.2.4 0-.5-.6-.3-1.4.3-1.1.9-1.6.9-2.2 0-.5-.8-.3-.9.6-.4.8.5 1.1.4.7-.2-.4-.6-1.7-.9-2.9-.7-8.9 1.5-9.3 1.5-7.8.5.8-.6 1-1.1.5-1.1-.6 0-1.6.5-2.3 1.2-.7.7-1.2.8-1.2.4 0-.5-.6-.3-1.4.3-1.1.9-1.6.9-2.2 0-.5-.8-.3-.9.6-.4.8.5 1.1.4.7-.2-.4-.6-1.9-.8-3.4-.6-1.6.3-3.7.6-4.9.7-1.1.1-2.5.5-3.1.9-.7.4-1.5.2-1.9-.4-.5-.8-.3-.9.6-.4.9.5 1.1.4.6-.4-.6-.9-1.1-.9-2.2 0-.7.6-2 .9-2.8.6-.7-.3-1.9 0-2.6.6-1 .9-1.1.9-.6-.1.5-.7.1-1.2-.9-1.2s-1.3.5-.9 1.2c.6 1 .4 1-.8 0-.8-.7-2.3-1-3.2-.6-1 .4-1.6.1-1.6-.7 0-.8-.6-.5-1.5.7-1.3 1.6-1.4 1.6-.9.1.5-1.3.2-1.6-1-1.1-.9.3-1.4 1-1.1 1.4.3.5-.4.6-1.6.3-1.6-.4-1.7-.8-.7-1.4.7-.5.8-.9.2-.9-.5 0-1.5.5-2.2 1.2-.7.7-1.2.8-1.2.4 0-.5-.6-.3-1.4.3-1.1.9-1.6.9-2.2 0-.5-.8-.3-.9.6-.4.9.5 1.1.4.6-.4-.5-.8-1.2-.9-1.9-.3-1.7 1.4-6.8 1.2-6-.2.4-.6-.2-.4-1.2.4-1.4 1.2-1.9 1.2-2.3.2-.3-1-.8-.8-1.8.5-1.3 1.7-1.4 1.7-.8 0 .5-1.3.2-1.6-1-1.1-.9.3-1.3 1.1-.9 1.8s.2.7-.8-.1c-1.1-.9-1.9-.9-2.6-.2-.8.8-1.3.7-1.8-.2-.6-.8-.4-1 .5-.4.9.5 1.1.4.6-.4-.6-.9-1.1-.9-2.2 0-.7.6-2 .9-2.9.6-.8-.4-1.7-.2-2.1.4-.3.6-1 .6-1.7.1s-3.1-.8-5.5-.5c-2.8.2-4.1 0-3.7-.7 1.3-2.2-.4-.9-1.9 1.4zm76.8-.6c.3.5-.1.9-.9.9s-1.2-.4-.9-.9c.3-.4.7-.8.9-.8.2 0 .6.4.9.8zm16 0c.3.5-.1.9-.9.9s-1.2-.4-.9-.9c.3-.4.7-.8.9-.8.2 0 .6.4.9.8zm80 0c.3.5-.1.9-.9.9s-1.2-.4-.9-.9c.3-.4.7-.8.9-.8.2 0 .6.4.9.8zm16 0c.3.5-.1.9-.9.9s-1.2-.4-.9-.9c.3-.4.7-.8.9-.8.2 0 .6.4.9.8zm-116.4 43c0 1.4.2 1.3 1.3-.3 1.1-1.4 1.6-1.5 2.2-.5.6.9.4 1.1-.5.5-.9-.5-1.1-.4-.6.3.5.9 1.2.8 2.8-.1 1.6-1 2.2-.9 2.5.1.4 1 .9.8 2-.5.8-1 1.2-1.3.9-.7-.8 1.5 2.1 2.6 3 1.2.5-.7.2-.8-.6-.3s-1.1.4-.7-.3c.9-1.3 3-1 5 .6 1.2 1 1.7 1 2.3.1.5-.8.3-1-.7-.4-.8.5-1 .4-.6 0 1-1.2 3.8-1.5 3.1-.4-.3.5.2.9 1 .9.9 0 1.6.9 1.6 2.1 0 1.3-.4 1.8-1.2 1.3-1-.6-1-.4 0 .7 1.3 1.4 1.7 4.3.4 3.5-1-.6-.8 4.2.3 5.1.4.5.5.2 0-.6-.6-1-.4-1.2.4-.7.9.6.9 1.1 0 2.2s-.8 1.4.2 1.5c.8 0 .5.4-.6.9s-1.4.9-.7.9c.6.1 1.2.8 1.2 1.7 0 .9-.5 1.2-1.2.8-.7-.4-.5.1.4 1.1 1.6 1.7 1.6 1.9 0 3.2-.9.8-1.2 1.2-.5.9.7-.4 1.1.1 1 1.3 0 1.1-.4 1.9-.7 1.9-.3 0-.7.1-1 .2-1.8.7-5 .5-5-.3 0-.5-.6-.4-1.4.2-1.1.9-1.5.8-2-.5-.6-1.5-.8-1.5-2.6.1-1.5 1.4-2.3 1.5-3.3.6-.8-.6-1.7-.8-2.1-.4-1 1-4.6 1.1-4.6.1 0-.5-.8-.4-1.8.1-1.1.6-2.4.6-3.2.1-.9-.5-1.9-.5-2.7.2-1 .8-1.3.7-1.3-.3 0-1.2-.2-1.2-.9-.1-.6 1.1-1 1-1.5-.4-.6-1.6-.8-1.6-2.6.1-1.5 1.4-2.3 1.5-3.4.6s-1.6-.9-2.1 0c-.6.8-1 .7-1.6-.2-.7-1.2-.9-1.1-.9 0s-.3 1-1.3-.3c-1.2-1.6-1.4-1.6-2.6-.2-1 1.1-1.8 1.3-3.1.6-1.3-.7-2.1-.7-2.6.1-.4.8-.9.7-1.5-.2-.7-1.1-.9-1.1-.9-.1 0 .7-.5 1-1 .7-.6-.4-.7-1.1-.4-1.7.4-.5-.5-.3-1.9.7-1.7 1.1-2.7 1.3-3.2.5s-1.1-.7-2.2.1c-1.2 1-1.6 1-2.4-.2-.6-1-.9-1.1-.9-.1 0 .7-.5 1-1 .7-.6-.4-.7-1.2-.3-1.8.3-.7-.3-.3-1.5.7-1.7 1.5-2.2 1.6-2.3.5 0-1.1-.2-1.1-.6-.1-.4 1-.9.9-2-.5-.8-1-1.1-1.2-.7-.4.5.9.3 1.2-.4.7-.9-.5-.9-1.3-.1-2.8.7-1.2.7-1.8.1-1.4-1.2.7-2.1-1.3-1.4-3.1.2-.7.9-1 1.4-.7.7.5.7.1 0-1.1-.6-1.1-.6-3-.1-4.7.5-1.7.4-2.6-.2-2.3-.5.4-.9.2-.9-.4 0-.5.6-1.2 1.3-1.4.7-.3.5-.6-.5-.6-1-.1-1.8-.6-1.8-1.2 0-.5.4-.8.9-.5.5.3 1.1-1 1.3-2.9.3-2.4.1-3.1-.7-2.5-.8.7-1.2.5-1.2-.5 0-.7.3-1.4.6-1.3 2.1.2 3.1-.4 2.5-1.5-.4-.6.3-.3 1.6.8s2 1.5 1.7.8c-.4-.6-.3-1.4.3-1.8.5-.3 1 .2 1 1.1 0 1.7.1 1.6 1.3-.1 1.1-1.4 1.6-1.5 2.2-.5.6.9.4 1.1-.5.5-.9-.5-1.1-.4-.6.3.5.9 1.2.8 2.8-.1 1.6-1 2.2-.9 2.5.1.4 1 .9.8 2-.5.8-1 1.2-1.3.9-.7-.8 1.5 2.1 2.6 3 1.2.5-.7.2-.8-.7-.3-.8.5-1 .4-.6 0 1.1-1.3 3.8-1.5 3.1-.3-.8 1.2 2.9.6 3.8-.7.4-.6.8-.1.8.9 0 2 0 2 1.6 0 .8-1 1.3-1.4 1-.8-.8 1.5 2.1 2.6 3 1.2.5-.7.2-.8-.6-.3s-1.1.4-.6-.3c.4-.7 1.7-.7 4-.1 3.8 1.1 5.7.9 6.8-.6.4-.6.8-.1.8.9 0 2 0 2 1.6 0 .8-1 1.3-1.4 1-.8-.8 1.5 2.1 2.6 3 1.2.5-.7.2-.8-.6-.3s-1.1.4-.6-.3c.4-.7 1.7-.8 3.7-.2 2.6.8 3 .7 2.5-.6-.3-.9-.1-1.2.4-.9.6.3 1 1.4 1 2.3zm107.5.1c.6-.8.4-1-.5-.4s-1.1.4-.6-.4c.6-.9 1.3-.8 2.9.6 1.1 1 1.7 1.3 1.4.6-.4-.6-.3-1.4.3-1.8.5-.3 1 .2 1 1.1 0 1.7.1 1.6 1.3-.1 1.1-1.4 1.6-1.5 2.2-.5.6.9.4 1.1-.5.5-.9-.5-1.1-.4-.6.3.5.9 1.2.8 2.8-.1 1.6-1 2.2-.9 2.5.1.4 1 .9.8 2-.5.8-1 1.2-1.3.9-.7-.8 1.5 2.1 2.6 3 1.2.5-.7.2-.8-.7-.3-.8.5-1 .4-.6 0 1.1-1.3 3.8-1.5 3.1-.3-.8 1.2 2.9.6 3.8-.7.4-.6.8-.1.8.9 0 2 0 2 1.6 0 .8-1 1.3-1.4 1-.8-.8 1.5 2.1 2.6 3 1.2.5-.7.2-.8-.6-.3s-1.1.4-.6-.3c.4-.7 1.7-.7 4-.1 3.8 1.1 5.7.9 6.8-.6.4-.6.8-.1.8.9 0 2 0 2 1.6 0 .8-1 1.3-1.4 1-.8-.8 1.5 2.1 2.6 3 1.2.5-.7.2-.8-.6-.3s-1.1.4-.6-.3c.4-.7 1.7-.8 3.7-.2 2.6.8 3 .7 2.5-.6-.3-.9-.1-1.2.4-.9.6.3 1 1.4 1 2.3 0 1.3.2 1.3 1.5-.4 1-1.2 1.4-1.4 1.3-.4-.2.8.3 1.4 1.1 1.5.8 0 1.6.6 1.9 1.4.3.9 0 1.1-.9.6-1.1-.6-1.1-.5-.2.5.9.9.9 1.9.2 3.3-.6 1.1-.7 1.7-.2 1.4.5-.4 1 .1 1 .9 0 .9-.6 1.3-1.6.9-1.4-.5-1.4-.4 0 .7 1.5 1.3 2.2 6.1.7 5.2-.4-.3-.8 0-.8.5 0 .6.4 1.1.9 1.1 1 0 .8 4.1-.3 5.9-.4.6-.2 1.8.4 2.6 1 1.2.9 1.5-.8 1.5-1.6 0-2 .5-1.6 1.7.5 1.7.5 1.7-.6 0-.8-1.3-1.6-1.5-2.9-.8-1 .6-2.3.6-3.1.1-.9-.5-1.9-.5-2.7.2-1 .8-1.3.7-1.3-.3 0-1.2-.2-1.2-.9-.1-.6 1.1-1 1-1.5-.4-.6-1.6-.8-1.6-2.6.1-1.5 1.4-2.3 1.5-3.4.6s-1.6-.9-2.1 0c-.6.8-1 .7-1.6-.2-.7-1.2-.9-1.1-.9 0s-.3 1-1.3-.3c-1.2-1.6-1.4-1.6-2.6-.2-1 1.1-1.8 1.3-3.1.6-1.3-.7-2.1-.7-2.6.1-.4.8-.9.7-1.5-.2-.7-1.2-.9-1.1-.9.1-.1 1.1-.3 1.1-1.1-.3-1-1.7-1.2-1.8-3-.1-1.4 1.3-2.2 1.4-3.2.5-.8-.6-1.7-.8-2.1-.4-1 1.1-4.6 1.1-4.6 0 0-.5-.6-.4-1.4.2-1.1.9-1.5.8-2-.5-.6-1.5-.8-1.5-2.6.1-1.5 1.4-2.3 1.5-3.3.6-.8-.6-1.7-.8-2.1-.4-1 1.1-4.6 1.1-4.6 0 0-.5-.7-.4-1.5.3-1.2 1-1.5 1-1.5-.1s-.2-1.1-1 .1c-.8 1.2-1 1.2-1-.5-.1-1.9-.1-1.9-1.1-.2-.8 1.4-1.4 1.6-2.5.6-.8-.7-1.2-2-.9-3 .4-1.2.1-1.9-.7-1.9-1 0-.9-.3.2-1 1.3-.9 1.3-1.1 0-2-1-.6-1.1-1-.2-1 .6 0 1.2-.5 1.2-1.1 0-.5-.6-.7-1.2-.3-1 .6-1 .4 0-.7.6-.7 1.2-1.7 1.2-2.2 0-.4-.6-.5-1.2-.1-1 .6-1 .4 0-.7.6-.7 1.2-1.7 1.2-2.2 0-.4-.6-.5-1.2-.1-1 .6-1 .4 0-.7 1.4-1.5 1.7-3.3.4-2.5-.5.3-.9-.1-.9-.9s.4-1.2.9-.9c.4.3.8.1.8-.5 0-.5-.5-1.3-1-1.6-.8-.5-.7-1.2.1-2.2 1-1.2 1-1.6-.2-2.4-1-.7-.6-.8 1.3-.5 1.5.3 2.9-.1 3.2-.7.2-.7.5-.3.5.7.1 2 .1 2 1.7 0 .8-1 1.3-1.4 1-.8-.8 1.5 2.1 2.6 3 1.2.5-.7.2-.8-.6-.3s-1.1.4-.6-.3c.4-.7 1.7-.8 3.9-.1 4.2 1.2 4.2 1.2 2.6-.9-.7-.9-.2-.7 1.3.6 1.9 1.7 2.8 2 3.3 1.1z"/><path d="M377 271c-.9.6-1 1-.3 1 .6 0 1.5-.5 1.8-1 .8-1.2.4-1.2-1.5 0zM377 287c-.9.6-1 1-.3 1 .6 0 1.5-.5 1.8-1 .8-1.2.4-1.2-1.5 0zM377 303c-.9.6-1 1-.3 1 .6 0 1.5-.5 1.8-1 .8-1.2.4-1.2-1.5 0zM377 319c-.9.6-1 1-.3 1 .6 0 1.5-.5 1.8-1 .8-1.2.4-1.2-1.5 0zM377 335c-.9.6-1 1-.3 1 .6 0 1.5-.5 1.8-1 .8-1.2.4-1.2-1.5 0zM377 351c-.9.6-1 1-.3 1 .6 0 1.5-.5 1.8-1 .8-1.2.4-1.2-1.5 0zM37.3 211.5c0 .8.4 1.2.9.9.5-.3.6-1 .3-1.5-.9-1.3-1.2-1.1-1.2.6zM456.1 212.9c-.1.7-.7 1.1-1.6.8-.8-.4-1.7-.1-2.1.5-.4.7-.9.6-1.5-.3-.7-1.1-.9-1.1-.9.1 0 1.2-.2 1.2-.9.1-1.2-1.8-5.5.4-4.7 2.5.3.8.9 2.1 1.2 2.9.4 1 0 1.5-1.1 1.5-.9 0-1.3.5-1 1 .4.6 1.1.8 1.6.5.5-.3.6.1.3.9-.3.9-1.1 1.3-1.8.9-.6-.4-.5.1.3 1.1 1.3 1.5 1.3 1.9 0 2.7-.8.5-.9.9-.3.9.7 0 1.5.7 1.8 1.6.3.8.2 1.3-.3 1-.5-.3-1.2.1-1.5 1-.3.8-.2 1.2.4.9.6-.3 1-.4 1-.1 0 .2.3 1.1.6 2 .4 1.1.1 1.6-1.1 1.6-.9 0-1.3.5-1 1 .4.6 1.1.8 1.6.5.5-.3.6.1.3.9-.3.9-1.1 1.3-1.8.9-.6-.4-.5.1.3 1.1 1.3 1.5 1.3 1.9 0 2.7-.8.5-.9.9-.3.9.7 0 1.5.7 1.8 1.6.3.8.2 1.3-.3 1-.5-.3-1.2.1-1.5 1-.3.8-.2 1.3.3 1 .5-.3 1.2.1 1.5 1 .9 2.2.8 2.4-1 2.4-.8 0-1.2.5-.9 1 .4.6 1.2.7 1.8.3.7-.3.3.4-.8 1.7-1.1 1.3-1.5 2-.9 1.7.7-.4 1.5 0 1.8.9.3.8.2 1.2-.4.9-.6-.3-1.1.1-1.1.9-.1.9-.2 2.2-.3 2.8-.1.7.2 1.9.7 2.6.6.7.7 1.5.4 1.9-.4.3-.2 1.2.4 1.9.7.8.6 1.4-.2 2-.8.5-.9.3-.4-.6.5-.9.4-1.1-.4-.6-.9.6-.9 1.1 0 2.2.6.8.8 1.4.4 1.4s-.2.6.4 1.4c.9 1.1.9 1.6 0 2.2-.8.5-1 .3-.4-.7.5-.8.4-1.1 0-.6-1.2 1-1.4 4.7-.3 4.7.5 0 .8.8.6 1.7-.1 1 .2 2.4.6 3.2.7 1.1.5 1.3-.6.8-1.7-.6-1.9.8-.4 3.1.4.7.5 1.6.2 1.9-.3.3-.1 1.2.5 1.9.7.8.6 1.4-.2 2-.8.5-.9.3-.4-.6.5-.9.4-1.1-.4-.6-.9.6-.9 1.1 0 2.2.6.8.8 1.4.4 1.4s-.2.6.4 1.4c.9 1.1.9 1.6 0 2.2-.8.5-1 .3-.4-.7.5-.8.4-1.1 0-.6-1 .9-1.4 5.7-.4 5.1.4-.2 1 .3 1.3 1.2.3.8.2 1.3-.3 1-1.5-.9-2 3.2-.6 4.4.8.6 1.1 1.8.8 2.6-.3.8.1 2.2.8 3.2 1.3 1.5 1.2 1.6-.3.3-1-.7-1.8-1-1.9-.5 0 .5-.2 1.7-.4 2.7-.2.9 0 1.5.5 1.2.4-.3 1.1.2 1.4 1.1.3.8.2 1.2-.4.9-.6-.3-1.1.1-1.1.9-.1.9-.2 2.2-.3 2.8-.1.7.2 1.9.7 2.6.6.7.7 1.5.4 1.9-.4.3-.2 1.2.4 1.9.7.8.6 1.4-.2 2-.8.5-.9.3-.4-.6.5-.9.4-1.1-.4-.6-.9.6-.9 1.1 0 2.2.6.8.8 1.4.4 1.4s-.2.6.4 1.4c.9 1.1.9 1.6 0 2.2-.8.5-1 .3-.4-.7.5-.8.4-1.1 0-.6-1.2 1-1.4 4.7-.3 4.7.5 0 .8.8.6 1.7-.1 1 .2 2.4.6 3.2.7 1.1.5 1.3-.7.8-1.1-.4-1.4-.2-1 .8.3.8 1 1.2 1.5.9.6-.4.3.5-.6 1.9-1.3 2-1.4 2.6-.4 3 1 .3 1.1.9.1 2.5s-.9 2.1.3 2.6c1 .4 1.3.2.8-.7-.6-.9-.5-.9.7 0 .8.6 4.2 1.1 7.5 1.1 3.4-.1 6.7.3 7.4.7.9.5 1.1.4.6-.3-.4-.7-.3-1.2.3-1.2.5 0 1.2.6 1.4 1.2.4 1 .6 1 .6.1.1-.7.8-1 1.6-.7.8.4 1.2 1.1.8 1.7-.3.6-.1.7.6.3.6-.4.9-1.2.6-1.7-.9-1.4.8-1.1 3.3.7 1.8 1.3 2.3 1.3 2.7.2.6-1.5 5.4-1.6 7.6-.3.8.5 1 .4.5-.3-.5-.9.2-1.1 2.7-.7l3.3.6.1-74c0-40.7-.4-74.6-.8-75.3-.6-1-1.1-1-2-.1-.7.7-1.9.9-2.8.4-1.9-.9-3.2-.8-4.8.2-.8.5-1.3.4-1.3-.3s-.6-.8-1.9 0c-1.4.7-2.2.7-2.6 0-.4-.6-1.2-.7-1.8-.3-1.7 1.1-8.1.9-8.9-.2-.5-.6-.8-.4-.8.5 0 1.3-.1 1.3-1 0s-1-1.3-1.1 0c0 1-.3.8-.9-.5-.5-1.1-.9-1.4-.9-.6zM446 262c0 .5-.5 1-1.1 1-.5 0-.7-.5-.4-1 .3-.6.8-1 1.1-1 .2 0 .4.4.4 1zm0 48c0 .5-.5 1-1.1 1-.5 0-.7-.5-.4-1 .3-.6.8-1 1.1-1 .2 0 .4.4.4 1zm0 16c0 .5-.5 1-1.1 1-.5 0-.7-.5-.4-1 .3-.6.8-1 1.1-1 .2 0 .4.4.4 1zm27 37c0 .5-.2 1-.4 1-.3 0-.8-.5-1.1-1-.3-.6-.1-1 .4-1 .6 0 1.1.4 1.1 1zM11.3 215.3c-1.1 1.8-1.1 146 .1 147.5.7 1.1 1.1 1.1 1.8 0 .6-1 1-1 1.8.2.6 1 1 1.1 1 .3 0-.7.7-1 1.5-.7.8.4 1.2 1.1.8 1.7-.3.6-.1.7.6.3.6-.4.9-1.2.6-1.7-.9-1.4.8-1.1 3.3.7 1.8 1.3 2.3 1.3 2.7.2.6-1.4 5.4-1.6 7.4-.3.6.3 1.1-.2 1.1-1.2 0-1.5.2-1.6 1-.3.5.8 1 1 1 .5 0-.6.5-.3 1 .5s1 1 1 .3c0-.6.8-1 1.8-.8.9.2 2.1.4 2.5.4.5.1.5.6.1 1.3-.4.7-.3.8.5.4.6-.4.9-1.2.6-1.7-.8-1.2.2-1.1 2.7.2 1.5.8 1.9.8 1.4 0-.4-.6-.3-1.1.3-1.1.5 0 1.2.6 1.4 1.2.4 1 .6 1 .6 0 .1-.6.7-1.2 1.4-1.2 1 0 1.4-1.3 1.3-4 0-2.2-.4-4-.9-4-.4 0-.5-.6-.1-1.2 1.1-1.7 1.2-4.8.3-5.4-.5-.2-.4-1.6.1-2.9.6-1.6.6-2.7-.1-3.1-.6-.4-.6-1.1.2-2 .9-1.1.9-1.4 0-1.4-.7 0-.9-.5-.5-1.2 1.1-1.8 1.3-5.8.3-5.8-.6 0-.5-.8.1-2 .8-1.5.8-2-.2-2-.8 0-.9-.3-.3-.8 1.2-.8 1.3-3.7.2-4.8-.4-.4-.2-1.3.4-2.1.9-1 .8-1.3-.1-1.3s-.9-.4.1-1.7c1.2-1.5 1.2-1.6-.1-.8s-1.3.7-.1-.8c.9-1.2 1-1.7.2-1.7-.7 0-.9-.5-.4-1.3 1.1-1.6 1.1-5.7 0-5.7-.4 0-.5-.6-.1-1.2 1.1-1.7 1.2-4.8.3-5.4-.5-.2-.4-1.6.1-2.9.6-1.6.6-2.7-.1-3.1-.6-.4-.6-1.1.2-2 .9-1.1.9-1.4 0-1.4-.7 0-.9-.5-.5-1.2 1.1-1.8 1.3-5.8.3-5.8-.6 0-.5-.8.1-2 .8-1.5.8-2-.2-2-.8 0-.9-.3-.3-.8 1.2-.8 1.3-3.7.2-4.8-.4-.4-.2-1.3.4-2.1.9-1 .8-1.3-.1-1.3s-.9-.4.1-1.7c1.2-1.5 1.2-1.6-.1-.8s-1.3.7-.1-.8c.9-1.2 1-1.7.2-1.7-.7 0-.9-.5-.4-1.3.9-1.4 1.2-5.7.3-5.7-.4 0-.7-.7-.7-1.5s.5-1.5 1-1.5.3-.8-.4-1.7c-1-1.1-1-1.4-.1-.9.6.4 1.2.2 1.2-.3 0-.6-.6-1.1-1.2-1.1-1 0-1-.2-.1-.8.8-.5.9-1.3.3-2.2-.5-.8-.5-2.1.1-3.2.7-1.3.6-1.8-.2-1.8-.9 0-.9-.3 0-1.4.9-1.1.9-1.5-.1-1.9-1-.4-1-.6.1-.6 1.1-.1 1.1-.4 0-1.8-1-1.1-1-1.4-.1-.9.6.4 1.2.2 1.2-.3 0-.6-.6-1.1-1.2-1.1-1 0-1-.2-.1-.8.8-.5.9-1.3.3-2.2-.5-.8-.5-2.1.1-3.2.7-1.3.6-1.8-.2-1.8-.9 0-.9-.3 0-1.4.9-1 .9-1.6.1-2.1s-.7-1.1.1-2.2c1-1.1 1-1.6 0-2.3-1.1-.6-1.1-.9 0-1.3s1.1-.6.1-.6c-.7-.1-1.1-.5-.7-1 .3-.5 0-1.3-.6-1.7-.7-.4-.9-.3-.6.3 1 1.5-1.8 2.4-3.2 1-.8-.8-1.1-.7-1.1.4 0 1.2-.2 1.2-.9 0-.5-.8-1.7-1.6-2.5-1.7-.9-.1-1.4.2-1 .7.3.5 1 .6 1.6.3.7-.4.8-.2.4.4-.5.9-1.3.9-2.6.2-2.5-1.3-3.3-1.3-2.4.2.4.7-.2.5-1.3-.5-1.2-1-2.4-1.4-2.7-.9-.3.5-1.5 1.2-2.6 1.5-1.1.3-1.8.1-1.5-.3.3-.5-.8-.8-2.4-.8-1.7.1-2.8.4-2.6.8.2.4-.6.5-1.8.4-1.2-.1-2.6-.3-3-.3-.5-.1-.5-.6-.2-1.1 1-1.7-.7-1.1-2.2.7-1.4 1.7-1.4 1.7-.8-.1.6-2 .6-2-1.6 0-1.2 1-1.9 1.4-1.6.8.9-1.6-2-2.6-3-1.1zM25 363c0 .5-.2 1-.4 1-.3 0-.8-.5-1.1-1-.3-.6-.1-1 .4-1 .6 0 1.1.4 1.1 1z"/></svg>