<?xml version="1.0" encoding="utf-8"?>
<!-- Generator: Adobe Illustrator 16.0.0, SVG Export Plug-In . SVG Version: 6.00 Build 0)  -->
<!DOCTYPE svg PUBLIC "-//W3C//DTD SVG 1.1//EN" "http://www.w3.org/Graphics/SVG/1.1/DTD/svg11.dtd">
<svg version="1.1" id="Layer_1" xmlns="http://www.w3.org/2000/svg" xmlns:xlink="http://www.w3.org/1999/xlink" x="0px" y="0px" width="301.018px"
	 height="301.171px" viewBox="0 0 301.018 301.171" enable-background="new 0 0 301.018 301.171" xml:space="preserve">
	<g>
		<path fill="none" stroke="#000000" stroke-width="2" stroke-linecap="square" stroke-miterlimit="1" d="M440.788,276.733"/>
		<path fill="none" stroke="#000000" stroke-width="3" stroke-linecap="square" stroke-miterlimit="1" d="M268.625,95.48
			c0,34.307-27.813,62.116-62.116,62.116c-34.305,0-62.115-27.81-62.115-62.116c0-34.304,27.811-62.113,62.115-62.113
			C240.811,33.367,268.625,61.176,268.625,95.48z"/>

			<circle fill="none" stroke="#000000" stroke-width="3" stroke-linecap="square" stroke-miterlimit="1" cx="206.877" cy="93.605" r="34.647"/>

			<circle fill="none" stroke="#000000" stroke-width="3" stroke-linecap="square" stroke-miterlimit="1" cx="206.557" cy="94.158" r="17.24"/>
		<polyline fill="#FFFFFF" stroke="#000000" stroke-width="3" stroke-linecap="square" stroke-miterlimit="1" points="
			196.445,36.167 196.445,13.455 217.312,13.455 217.312,36.167 		"/>
		<polyline fill="#FFFFFF" stroke="#000000" stroke-width="3" stroke-linecap="square" stroke-miterlimit="1" points="
			216.641,153.383 216.641,176.096 195.775,176.096 195.775,153.383 		"/>
		<polyline fill="#FFFFFF" stroke="#000000" stroke-width="3" stroke-linecap="square" stroke-miterlimit="1" points="
			265.858,84.517 288.958,84.517 288.958,105.03 265.858,105.03 		"/>
		<polyline fill="#FFFFFF" stroke="#000000" stroke-width="3" stroke-linecap="square" stroke-miterlimit="1" points="
			147.643,105.03 124.542,105.03 124.542,84.517 147.643,84.517 		"/>
		<polyline fill="#FFFFFF" stroke="#000000" stroke-width="3" stroke-linecap="square" stroke-miterlimit="1" points="
			150.235,77.572 135.87,73.204 139.75,60.445 154.114,64.815 		"/>
		<polyline fill="#FFFFFF" stroke="#000000" stroke-width="3" stroke-linecap="square" stroke-miterlimit="1" points="
			154.029,123.844 140.451,130.254 134.756,118.198 148.335,111.784 		"/>
		<polyline fill="#FFFFFF" stroke="#000000" stroke-width="3" stroke-linecap="square" stroke-miterlimit="1" points="
			259.716,121.136 273.294,127.547 278.987,115.49 265.409,109.077 		"/>
		<polyline fill="#FFFFFF" stroke="#000000" stroke-width="3" stroke-linecap="square" stroke-miterlimit="1" points="
			179.511,41.94 173.584,28.144 185.837,22.882 191.763,36.677 		"/>
		<polyline fill="#FFFFFF" stroke="#000000" stroke-width="3" stroke-linecap="square" stroke-miterlimit="1" points="
			235.356,42.897 241.281,29.1 229.03,23.838 223.104,37.631 		"/>
		<polyline fill="#FFFFFF" stroke="#000000" stroke-width="3" stroke-linecap="square" stroke-miterlimit="1" points="
			235.656,147.457 241.281,160.553 229.652,165.549 224.026,152.45 		"/>
		<polyline fill="#FFFFFF" stroke="#000000" stroke-width="3" stroke-linecap="square" stroke-miterlimit="1" points="
			177.418,148.098 171.792,161.193 183.422,166.19 189.047,153.092 		"/>
		<polyline fill="#FFFFFF" stroke="#000000" stroke-width="3" stroke-linecap="square" stroke-miterlimit="1" points="
			263.005,77.92 277.373,73.552 273.492,60.793 259.125,65.163 		"/>
		<polyline fill="#FFFFFF" stroke="#000000" stroke-width="3" stroke-linecap="square" stroke-miterlimit="1" points="
			257.601,126.634 273.938,142.695 259.181,157.202 242.847,141.142 		"/>
		<polyline fill="#FFFFFF" stroke="#000000" stroke-width="3" stroke-linecap="square" stroke-miterlimit="1" points="
			159.256,58.958 142.923,42.898 157.676,28.392 174.01,44.451 		"/>
		<polyline fill="#FFFFFF" stroke="#000000" stroke-width="3" stroke-linecap="square" stroke-miterlimit="1" points="
			241.84,47.032 258.173,30.976 272.927,45.481 256.594,61.54 		"/>
		<polyline fill="#FFFFFF" stroke="#000000" stroke-width="3" stroke-linecap="square" stroke-miterlimit="1" points="
			172.332,144.053 155.998,160.112 141.243,145.608 157.578,129.548 		"/>

			<circle fill="none" stroke="#000000" stroke-width="3" stroke-linecap="square" stroke-miterlimit="1" cx="91.615" cy="229.312" r="43.611"/>

			<circle fill="none" stroke="#000000" stroke-width="3" stroke-linecap="square" stroke-miterlimit="1" cx="92.188" cy="228.098" r="24.325"/>

			<circle fill="none" stroke="#000000" stroke-width="3" stroke-linecap="square" stroke-miterlimit="1" cx="91.874" cy="228.419" r="12.103"/>
		<polyline fill="#FFFFFF" stroke="#000000" stroke-width="3" stroke-linecap="square" stroke-miterlimit="1" points="
			94.762,188.001 98.667,172.541 112.87,176.129 108.965,191.588 		"/>
		<polyline fill="#FFFFFF" stroke="#000000" stroke-width="3" stroke-linecap="square" stroke-miterlimit="1" points="
			88.556,270.471 84.651,285.93 70.448,282.343 74.353,266.884 		"/>
		<polyline fill="#FFFFFF" stroke="#000000" stroke-width="3" stroke-linecap="square" stroke-miterlimit="1" points="
			133.501,231.951 149.228,235.923 145.703,249.887 129.976,245.916 		"/>
		<polyline fill="#FFFFFF" stroke="#000000" stroke-width="3" stroke-linecap="square" stroke-miterlimit="1" points="
			49.902,225.692 34.178,221.72 37.704,207.756 53.429,211.728 		"/>
		<polyline fill="#FFFFFF" stroke="#000000" stroke-width="3" stroke-linecap="square" stroke-miterlimit="1" points="
			121.038,259.305 129.398,273.044 116.858,280.385 108.5,266.644 		"/>
		<polyline fill="#FFFFFF" stroke="#000000" stroke-width="3" stroke-linecap="square" stroke-miterlimit="1" points="
			65.925,197.222 57.568,183.482 70.106,176.144 78.463,189.884 		"/>
		<polyline fill="#FFFFFF" stroke="#000000" stroke-width="3" stroke-linecap="square" stroke-miterlimit="1" points="
			123.497,202.704 137.377,194.582 144.926,206.993 131.045,215.116 		"/>
		<polyline fill="#FFFFFF" stroke="#000000" stroke-width="3" stroke-linecap="square" stroke-miterlimit="1" points="60,256.5
			46.119,264.622 38.569,252.215 52.449,244.09 		"/>
		<path fill="none" stroke="#000000" stroke-width="3" stroke-linecap="square" stroke-miterlimit="1" d="M76.32,106.095
			c-7.396,15.457-25.916,21.988-41.368,14.595c-15.454-7.394-21.985-25.914-14.593-41.369c7.395-15.45,25.916-21.98,41.367-14.587
			C77.178,72.126,83.711,90.649,76.32,106.095z"/>
		<path fill="none" stroke="#000000" stroke-width="3" stroke-linecap="square" stroke-miterlimit="1" d="M64.517,99.412
			c-4.125,8.623-14.454,12.266-23.074,8.14c-8.62-4.124-12.262-14.454-8.138-23.072c4.124-8.621,14.455-12.264,23.074-8.14
			C64.999,80.464,68.641,90.793,64.517,99.412z"/>

			<circle fill="none" stroke="#000000" stroke-width="3" stroke-linecap="square" stroke-miterlimit="1" cx="48.647" cy="92.125" r="8.608"/>
		<polyline fill="#FFFFFF" stroke="#000000" stroke-width="3" stroke-linecap="square" stroke-miterlimit="1" points="
			55.926,64.891 60.82,54.659 70.221,59.157 65.327,69.384 		"/>
		<polyline fill="#FFFFFF" stroke="#000000" stroke-width="3" stroke-linecap="square" stroke-miterlimit="1" points="
			40.301,120.029 35.405,130.258 26.006,125.761 30.901,115.53 		"/>
		<polyline fill="#FFFFFF" stroke="#000000" stroke-width="3" stroke-linecap="square" stroke-miterlimit="1" points="
			76.162,100.089 86.57,105.067 82.146,114.306 71.74,109.327 		"/>
		<polyline fill="#FFFFFF" stroke="#000000" stroke-width="3" stroke-linecap="square" stroke-miterlimit="1" points="
			20.778,84.674 10.372,79.696 14.792,70.456 25.198,75.434 		"/>
	</g>
</svg>
