<?xml version="1.0" encoding="utf-8"?>
<!-- Generator: Adobe Illustrator 16.0.0, SVG Export Plug-In . SVG Version: 6.00 Build 0)  -->
<!DOCTYPE svg PUBLIC "-//W3C//DTD SVG 1.1//EN" "http://www.w3.org/Graphics/SVG/1.1/DTD/svg11.dtd">
<svg version="1.1" id="Layer_1" xmlns="http://www.w3.org/2000/svg" xmlns:xlink="http://www.w3.org/1999/xlink" x="0px" y="0px" width="301.018px"
	 height="301.171px" viewBox="0 0 301.018 301.171" enable-background="new 0 0 301.018 301.171" xml:space="preserve">
	<g>

			<line fill="none" stroke="#000000" stroke-width="2" stroke-linecap="square" stroke-miterlimit="1" x1="88.299" y1="185.346" x2="88.299" y2="260.304"/>

			<line fill="none" stroke="#000000" stroke-width="2" stroke-linecap="square" stroke-miterlimit="1" x1="209.31" y1="194.042" x2="209.31" y2="234.828"/>

			<line fill="none" stroke="#000000" stroke-width="2" stroke-linecap="square" stroke-miterlimit="1" x1="13.831" y1="161.448" x2="13.831" y2="236.406"/>

			<line fill="none" stroke="#000000" stroke-width="2" stroke-linecap="square" stroke-miterlimit="1" x1="70.299" y1="74.447" x2="69.939" y2="148.686"/>

			<line fill="none" stroke="#000000" stroke-width="2" stroke-linecap="square" stroke-miterlimit="1" x1="225.006" y1="123.636" x2="225.006" y2="197.873"/>

			<line fill="none" stroke="#000000" stroke-width="2" stroke-linecap="square" stroke-miterlimit="1" x1="14.418" y1="162.036" x2="88.299" y2="185.346"/>
		<path fill="none" stroke="#000000" stroke-width="2" stroke-linecap="square" stroke-miterlimit="1" d="M207.839,158.829"/>
		<path fill="none" stroke="#000000" stroke-width="2" stroke-linecap="square" stroke-miterlimit="1" d="M138.84,135.52"/>

			<line fill="none" stroke="#000000" stroke-width="2" stroke-linecap="square" stroke-miterlimit="1" x1="13.831" y1="236.406" x2="88.299" y2="260.304"/>

			<line fill="none" stroke="#000000" stroke-width="2" stroke-linecap="square" stroke-miterlimit="1" x1="69.471" y1="149.57" x2="224.162" y2="198.593"/>

			<line fill="none" stroke="#000000" stroke-width="2" stroke-linecap="square" stroke-miterlimit="1" x1="71.633" y1="74.606" x2="225.243" y2="122.909"/>
		<path fill="none" stroke="#000000" stroke-width="2" stroke-linecap="square" stroke-miterlimit="1" d="M138.492,134.634"/>
		<path fill="none" stroke="#000000" stroke-width="2" stroke-linecap="square" stroke-miterlimit="1" d="M138.492,59.676"/>

			<line fill="none" stroke="#000000" stroke-width="2" stroke-linecap="square" stroke-miterlimit="1" x1="293.558" y1="109.584" x2="293.558" y2="184.543"/>
		<path fill="none" stroke="#000000" stroke-width="2" stroke-linecap="square" stroke-miterlimit="1" d="M293.435,184.543"/>
		<path fill="none" stroke="#000000" stroke-width="2" stroke-linecap="square" stroke-miterlimit="1" d="M138.023,135.519"/>

			<line fill="none" stroke="#000000" stroke-width="2" stroke-linecap="square" stroke-miterlimit="1" x1="265.292" y1="99.868" x2="293.795" y2="108.858"/>

			<line fill="none" stroke="#000000" stroke-width="2" stroke-linecap="square" stroke-miterlimit="1" x1="206.252" y1="81.242" x2="239.98" y2="91.882"/>

			<line fill="none" stroke="#000000" stroke-width="2" stroke-linecap="square" stroke-miterlimit="1" x1="154.677" y1="64.975" x2="180.295" y2="73.055"/>

			<line fill="none" stroke="#000000" stroke-width="2" stroke-linecap="square" stroke-miterlimit="1" x1="88.299" y1="185.346" x2="144.641" y2="173.691"/>

			<line fill="none" stroke="#000000" stroke-width="2" stroke-linecap="square" stroke-miterlimit="1" x1="63.704" y1="150.667" x2="69.579" y2="149.406"/>

			<line fill="none" stroke="#000000" stroke-width="2" stroke-linecap="square" stroke-miterlimit="1" x1="14.566" y1="161.221" x2="39.185" y2="155.934"/>

			<line fill="none" stroke="#000000" stroke-width="2" stroke-linecap="square" stroke-miterlimit="1" x1="88.299" y1="260.386" x2="209.31" y2="235.269"/>

			<line fill="none" stroke="#000000" stroke-width="2" stroke-linecap="square" stroke-miterlimit="1" x1="88.299" y1="185.346" x2="144.641" y2="173.691"/>

			<line fill="none" stroke="#000000" stroke-width="2" stroke-linecap="square" stroke-miterlimit="1" x1="225.006" y1="198.593" x2="293.558" y2="184.543"/>

			<line fill="none" stroke="#000000" stroke-width="2" stroke-linecap="square" stroke-miterlimit="1" x1="225.243" y1="122.909" x2="292.052" y2="108.851"/>

			<line fill="none" stroke="#000000" stroke-width="2" stroke-linecap="square" stroke-miterlimit="1" x1="117.869" y1="64.167" x2="129.506" y2="61.794"/>

			<line fill="none" stroke="#000000" stroke-width="2" stroke-linecap="square" stroke-miterlimit="1" x1="70.66" y1="74.246" x2="94.768" y2="69.451"/>
		<path fill="#FFFFFF" stroke="#000000" stroke-width="2" stroke-linecap="square" stroke-miterlimit="1" d="M39.185,158.375
			c0.145,3.525,5.644,6.205,12.288,6.022c6.642-0.183,11.909-3.174,11.764-6.68"/>
		<path fill="#FFFFFF" stroke="#000000" stroke-width="2" stroke-linecap="square" stroke-miterlimit="1" d="M62.945,147.479
			c-0.145-3.503-5.646-6.201-12.288-6.017c-6.641,0.182-11.909,3.17-11.765,6.676c0.143,3.505,5.646,6.203,12.288,6.022
			C57.822,153.978,63.089,150.986,62.945,147.479z"/>

			<line fill="none" stroke="#000000" stroke-width="2" stroke-linecap="square" stroke-miterlimit="1" x1="39.185" y1="159.031" x2="39.185" y2="149.398"/>

			<line fill="none" stroke="#000000" stroke-width="2" stroke-linecap="square" stroke-miterlimit="1" x1="62.949" y1="159.031" x2="62.949" y2="149.398"/>
		<path fill="#FFFFFF" stroke="#000000" stroke-width="2" stroke-linecap="square" stroke-miterlimit="1" d="M80.382,170.462
			c0.144,3.526,5.644,6.205,12.288,6.022c6.642-0.182,11.909-3.173,11.764-6.679"/>
		<path fill="#FFFFFF" stroke="#000000" stroke-width="2" stroke-linecap="square" stroke-miterlimit="1" d="M104.143,159.568
			c-0.145-3.503-5.646-6.2-12.288-6.017c-6.641,0.183-11.909,3.171-11.765,6.676c0.143,3.506,5.646,6.204,12.289,6.022
			C99.019,166.067,104.287,163.076,104.143,159.568z"/>

			<line fill="none" stroke="#000000" stroke-width="2" stroke-linecap="square" stroke-miterlimit="1" x1="80.382" y1="171.121" x2="80.382" y2="161.488"/>

			<line fill="none" stroke="#000000" stroke-width="2" stroke-linecap="square" stroke-miterlimit="1" x1="104.146" y1="171.121" x2="104.146" y2="161.488"/>
		<path fill="#FFFFFF" stroke="#000000" stroke-width="2" stroke-linecap="square" stroke-miterlimit="1" d="M94.765,71.427
			c0.144,3.526,5.644,6.205,12.288,6.022c6.642-0.183,11.91-3.173,11.765-6.679"/>
		<path fill="#FFFFFF" stroke="#000000" stroke-width="2" stroke-linecap="square" stroke-miterlimit="1" d="M118.525,60.532
			c-0.144-3.503-5.646-6.2-12.288-6.017c-6.641,0.182-11.91,3.17-11.765,6.676c0.144,3.506,5.646,6.204,12.289,6.022
			C113.402,67.032,118.67,64.04,118.525,60.532z"/>

			<line fill="none" stroke="#000000" stroke-width="2" stroke-linecap="square" stroke-miterlimit="1" x1="95.125" y1="71.724" x2="94.765" y2="62.452"/>

			<line fill="none" stroke="#000000" stroke-width="2" stroke-linecap="square" stroke-miterlimit="1" x1="118.529" y1="72.084" x2="118.529" y2="62.452"/>
		<path fill="#FFFFFF" stroke="#000000" stroke-width="2" stroke-linecap="square" stroke-miterlimit="1" d="M129.8,66.31
			c0.145,3.524,5.644,6.205,12.289,6.021c6.642-0.181,11.909-3.173,11.764-6.678"/>
		<path fill="#FFFFFF" stroke="#000000" stroke-width="2" stroke-linecap="square" stroke-miterlimit="1" d="M153.562,55.413
			c-0.145-3.503-5.646-6.2-12.287-6.017c-6.642,0.183-11.911,3.171-11.766,6.677c0.144,3.505,5.645,6.204,12.289,6.021
			C148.438,61.913,153.705,58.921,153.562,55.413z"/>

			<line fill="none" stroke="#000000" stroke-width="2" stroke-linecap="square" stroke-miterlimit="1" x1="129.8" y1="66.966" x2="129.8" y2="57.333"/>

			<line fill="none" stroke="#000000" stroke-width="2" stroke-linecap="square" stroke-miterlimit="1" x1="153.565" y1="66.966" x2="153.565" y2="57.333"/>
		<path fill="#FFFFFF" stroke="#000000" stroke-width="2" stroke-linecap="square" stroke-miterlimit="1" d="M147.459,89.594
			c0.142,3.526,5.643,6.205,12.287,6.022c6.642-0.183,11.91-3.174,11.763-6.678"/>
		<path fill="#FFFFFF" stroke="#000000" stroke-width="2" stroke-linecap="square" stroke-miterlimit="1" d="M171.218,78.699
			c-0.145-3.503-5.646-6.2-12.287-6.017c-6.642,0.182-11.91,3.17-11.766,6.676c0.144,3.506,5.647,6.204,12.29,6.022
			C166.095,85.197,171.362,82.206,171.218,78.699z"/>

			<line fill="none" stroke="#000000" stroke-width="2" stroke-linecap="square" stroke-miterlimit="1" x1="147.459" y1="90.251" x2="147.459" y2="80.618"/>

			<line fill="none" stroke="#000000" stroke-width="2" stroke-linecap="square" stroke-miterlimit="1" x1="171.221" y1="90.251" x2="171.221" y2="80.618"/>
		<path fill="#FFFFFF" stroke="#000000" stroke-width="2" stroke-linecap="square" stroke-miterlimit="1" d="M182.494,84.477
			c0.144,3.524,5.643,6.205,12.289,6.021c6.642-0.181,11.908-3.173,11.763-6.678"/>
		<path fill="#FFFFFF" stroke="#000000" stroke-width="2" stroke-linecap="square" stroke-miterlimit="1" d="M206.254,73.58
			c-0.146-3.503-5.648-6.2-12.288-6.017c-6.642,0.183-11.909,3.171-11.766,6.677c0.143,3.504,5.647,6.204,12.289,6.021
			C201.131,80.08,206.398,77.088,206.254,73.58z"/>

			<line fill="none" stroke="#000000" stroke-width="2" stroke-linecap="square" stroke-miterlimit="1" x1="182.494" y1="85.133" x2="182.494" y2="75.5"/>
		<polyline fill="none" stroke="#000000" stroke-width="2" stroke-linecap="square" stroke-miterlimit="1" points="206.257,85.133
			206.257,82.27 206.257,75.5 		"/>
		<path fill="#FFFFFF" stroke="#000000" stroke-width="2" stroke-linecap="square" stroke-miterlimit="1" d="M206.042,106.167
			c0.143,3.526,5.642,6.205,12.286,6.022c6.644-0.183,11.911-3.173,11.765-6.679"/>
		<path fill="#FFFFFF" stroke="#000000" stroke-width="2" stroke-linecap="square" stroke-miterlimit="1" d="M229.802,95.272
			c-0.145-3.503-5.647-6.2-12.288-6.017c-6.642,0.181-11.909,3.17-11.766,6.676c0.143,3.506,5.646,6.204,12.289,6.022
			C224.678,101.77,229.946,98.78,229.802,95.272z"/>

			<line fill="none" stroke="#000000" stroke-width="2" stroke-linecap="square" stroke-miterlimit="1" x1="206.042" y1="106.825" x2="206.042" y2="97.191"/>

			<line fill="none" stroke="#000000" stroke-width="2" stroke-linecap="square" stroke-miterlimit="1" x1="229.805" y1="106.825" x2="229.805" y2="97.191"/>
		<path fill="#FFFFFF" stroke="#000000" stroke-width="2" stroke-linecap="square" stroke-miterlimit="1" d="M241.078,101.049
			c0.144,3.524,5.643,6.205,12.287,6.021c6.642-0.182,11.909-3.173,11.765-6.679"/>
		<path fill="#FFFFFF" stroke="#000000" stroke-width="2" stroke-linecap="square" stroke-miterlimit="1" d="M264.837,90.153
			c-0.146-3.503-5.647-6.2-12.287-6.017c-6.644,0.183-11.909,3.172-11.767,6.677c0.144,3.506,5.648,6.204,12.29,6.021
			C259.713,96.653,264.98,93.662,264.837,90.153z"/>

			<line fill="none" stroke="#000000" stroke-width="2" stroke-linecap="square" stroke-miterlimit="1" x1="241.078" y1="101.706" x2="241.078" y2="92.074"/>

			<line fill="none" stroke="#000000" stroke-width="2" stroke-linecap="square" stroke-miterlimit="1" x1="264.839" y1="101.706" x2="264.839" y2="92.074"/>
	</g>
</svg>
