<?xml version="1.0" encoding="utf-8"?>
<!-- Generator: Adobe Illustrator 16.0.0, SVG Export Plug-In . SVG Version: 6.00 Build 0)  -->
<!DOCTYPE svg PUBLIC "-//W3C//DTD SVG 1.1//EN" "http://www.w3.org/Graphics/SVG/1.1/DTD/svg11.dtd">
<svg version="1.1" id="Layer_1" xmlns="http://www.w3.org/2000/svg" xmlns:xlink="http://www.w3.org/1999/xlink" x="0px" y="0px" width="301.018px"
	 height="301.171px" viewBox="0 0 301.018 301.171" enable-background="new 0 0 301.018 301.171" xml:space="preserve">
	<g>
		<path fill="none" stroke="#000000" stroke-width="2" stroke-linecap="square" stroke-miterlimit="1" d="M440.788,276.733"/>
		<path fill="none" stroke="#000000" stroke-width="3" stroke-miterlimit="10" d="M34.924,137.188
			c-20.607,51.238,4.22,109.453,55.444,130.055c25.511,10.259,52.757,9.255,76.227-0.669"/>
		<path fill="none" stroke="#000000" stroke-width="3" stroke-miterlimit="10" d="M98.377,58.813"/>
		<path fill="none" stroke="#000000" stroke-width="3" stroke-miterlimit="10" d="M91.156,285.45
			c24.813,11.849,52.756,9.254,76.227-0.669"/>
		<path fill="#FFFFFF" stroke="#000000" stroke-width="3" stroke-miterlimit="10" d="M230.746,226.491
			c16.201-17.768,26.082-41.402,26.082-67.345c0-55.212-44.745-99.968-99.936-99.968c-55.228,0-99.974,44.756-99.974,99.968
			c0,27.497,11.099,52.4,29.064,70.471"/>
		<polyline fill="#FFFFFF" stroke="#000000" stroke-width="3" stroke-linecap="square" stroke-miterlimit="1" points="
			218.091,63.321 242.347,39.167 264.539,61.45 240.288,85.604 		"/>
		<polyline fill="#FFFFFF" stroke="#000000" stroke-width="3" stroke-linecap="square" stroke-miterlimit="1" points="
			181.397,50.624 187.162,26.068 209.722,31.36 203.961,55.916 		"/>
		<polyline fill="#FFFFFF" stroke="#000000" stroke-width="3" stroke-linecap="square" stroke-miterlimit="1" points="
			139.061,50.052 138.514,31.068 155.954,30.563 156.504,49.547 		"/>
		<polyline fill="#FFFFFF" stroke="#000000" stroke-width="3" stroke-linecap="square" stroke-miterlimit="1" points="
			107.236,58.82 101.143,44.869 113.959,39.267 120.057,53.217 		"/>
		<polyline fill="#FFFFFF" stroke="#000000" stroke-width="3" stroke-linecap="square" stroke-miterlimit="1" points="
			86.193,71.911 79.517,63.53 87.215,57.393 93.895,65.773 		"/>
		<path fill="#FFFFFF" stroke="#000000" stroke-width="3" stroke-miterlimit="10" d="M205.54,104.93c0,0-57.647,30.75-65.83,40.244
			c-8.185,9.494-7.125,23.823,2.367,32.01c9.495,8.183,23.823,7.121,32.01-2.371C182.272,165.321,205.54,104.93,205.54,104.93z"/>
		<circle fill="#FFFFFF" stroke="#000000" stroke-width="3" stroke-miterlimit="10" cx="156.001" cy="159.89" r="14.613"/>
		<line fill="none" stroke="#000000" stroke-width="3" stroke-miterlimit="10" x1="156.892" y1="59.178" x2="156.892" y2="91.926"/>
		<line fill="none" stroke="#000000" stroke-width="3" stroke-miterlimit="10" x1="56.918" y1="153.661" x2="91.156" y2="153.661"/>

			<line fill="none" stroke="#000000" stroke-width="3" stroke-miterlimit="10" x1="82.571" y1="227.899" x2="106.782" y2="203.689"/>
		<line fill="none" stroke="#000000" stroke-width="3" stroke-miterlimit="10" x1="201.539" y1="108.931" x2="225.75" y2="84.721"/>

			<line fill="none" stroke="#000000" stroke-width="3" stroke-miterlimit="10" x1="221.644" y1="155.621" x2="255.881" y2="155.621"/>
		<line fill="none" stroke="#000000" stroke-width="3" stroke-miterlimit="10" x1="87.321" y1="87.354" x2="112.387" y2="108.931"/>

			<line fill="none" stroke="#000000" stroke-width="3" stroke-miterlimit="10" x1="205.915" y1="205.947" x2="230.981" y2="227.524"/>

			<line fill="none" stroke="#000000" stroke-width="3" stroke-miterlimit="10" x1="130.741" y1="205.947" x2="181.258" y2="205.947"/>
		<line fill="none" stroke="#000000" stroke-width="3" stroke-miterlimit="10" x1="119.087" y1="66.574" x2="126.297" y2="82.122"/>
		<line fill="none" stroke="#000000" stroke-width="3" stroke-miterlimit="10" x1="198.044" y1="70.695" x2="188.527" y2="87.354"/>

			<line fill="none" stroke="#000000" stroke-width="3" stroke-miterlimit="10" x1="248.347" y1="118.786" x2="225.75" y2="124.872"/>
		<line fill="none" stroke="#000000" stroke-width="3" stroke-miterlimit="10" x1="66.996" y1="119.747" x2="86.032" y2="127.068"/>
		<line fill="none" stroke="#000000" stroke-width="3" stroke-miterlimit="10" x1="65.532" y1="192.958" x2="82.571" y2="184.905"/>

			<line fill="none" stroke="#000000" stroke-width="3" stroke-miterlimit="10" x1="251.627" y1="191.056" x2="230.981" y2="187.833"/>
	</g>
</svg>
