<?xml version="1.0" encoding="UTF-8" standalone="no"?>
<svg xmlns:rdf="http://www.w3.org/1999/02/22-rdf-syntax-ns#" xmlns="http://www.w3.org/2000/svg" xml:space="preserve" height="148mm" viewBox="0 0 372.04724 524.40945" width="105mm" version="1.1" xmlns:cc="http://creativecommons.org/ns#" xmlns:dc="http://purl.org/dc/elements/1.1/"><metadata><rdf:RDF><cc:Work rdf:about=""><dc:format>image/svg+xml</dc:format><dc:type rdf:resource="http://purl.org/dc/dcmitype/StillImage"/><dc:title/></cc:Work></rdf:RDF></metadata><defs><clipPath id="d" clipPathUnits="userSpaceOnUse"><path d="m0 5.5e3h3e3v-5.5e3h-3e3v5.5e3z"/></clipPath><clipPath id="c" clipPathUnits="userSpaceOnUse"><path d="m0 5.5e3h3e3v-5.5e3h-3e3v5.5e3z"/></clipPath><clipPath id="b" clipPathUnits="userSpaceOnUse"><path d="m0 5.5e3h3e3v-5.5e3h-3e3v5.5e3z"/></clipPath><clipPath id="a" clipPathUnits="userSpaceOnUse"><path d="m0 5.5e3h3e3v-5.5e3h-3e3v5.5e3z"/></clipPath><clipPath id="e" clipPathUnits="userSpaceOnUse"><path d="m0 5.5e3h3e3v-5.5e3h-3e3v5.5e3z"/></clipPath></defs><g transform="matrix(1.25 0 0 -1.25 0 524)"><g transform="matrix(.150 0 0 .150 -87.1 -244)"><g clip-path="url(#d)"><g transform="translate(1.38e3 2.23e3)"><path d="m0 0s121 3 129 0c7.5-3 16.5 0 16.5 0l-62-361-84 361z" fill="#000000"/></g><g transform="translate(1.38e3 2.23e3)"><path d="m0 0s121 3 129 0c7.5-3 16.5 0 16.5 0l-62-361-84 361z" stroke="#000000" stroke-miterlimit="10" fill="none"/></g><g transform="translate(1.59e3 2.23e3)"><path d="m0 0s121 3 129 0c7.5-3 16.5 0 16.5 0l-62-361-84 361z" fill="#000000"/></g><g transform="translate(1.59e3 2.23e3)"><path d="m0 0s121 3 129 0c7.5-3 16.5 0 16.5 0l-62-361-84 361z" stroke="#000000" stroke-miterlimit="10" fill="none"/></g></g></g><g transform="matrix(.150 0 0 .150 -87.1 -244)"><g clip-path="url(#c)"><g transform="translate(1.52e3 2.27e3)"><path d="m0 0c0-33.1-26.9-60-60-60s-60 26.9-60 60 26.9 60 60 60 60-26.9 60-60" fill="#eb0800"/></g><g transform="translate(1.73e3 2.27e3)"><path d="m0 0c0-33.1-26.9-60-60-60s-60 26.9-60 60 26.9 60 60 60 60-26.9 60-60" fill="#eb0800"/></g></g></g><g transform="matrix(.150 0 0 .150 134 188)"><path d="m0 0-510-42 126-483-126 93 72-240 105-48 78 87-24.4 118-65.6 317 138-6-111-156 44.2-155 58-43.3 572 0.598 46.5 43.5 46.5 183-108 130 147 9-91.5-396 22.5-73.5 45-58.3 120 59.8 79.5 238l-129-99 123 486-479 35h-177z" fill="#000000"/></g><g transform="matrix(.150 0 0 .150 134 188)"><path d="m0 0-510-42 126-483-126 93 72-240 105-48 78 87-24.4 118-65.6 317 138-6-111-156 44.2-155 58-43.3 572 0.598 46.5 43.5 46.5 183-108 130 147 9-91.5-396 22.5-73.5 45-58.3 120 59.8 79.5 238l-129-99 123 486-479 35h-177z" stroke="#000000" stroke-miterlimit="10" fill="none"/></g><g transform="matrix(.150 0 0 .150 -87.1 -244)"><g clip-path="url(#b)"><g transform="translate(1.66e3 2.87e3)"><path d="m0 0c0-56.6-45.9-102-102-102-56.6 0-102 45.9-102 102 0 56.6 45.9 102 102 102s102-45.4 102-102" fill="#eb0800"/></g><g transform="translate(753 4.19e3)"><path d="m0 0h501l111-336h417l108 336h507l150-462-429-279-186-525h-747l-171 552-426 264" stroke="#000000" stroke-miterlimit="10" fill="#000000"/></g></g></g><g transform="matrix(.150 0 0 .150 -87.1 -244)"><g clip-path="url(#a)"><g transform="translate(1427,2855)"><path d="m0 0c-6-6-426-52-426-52l92-462-56 428 390 86z" fill="#f2f2f2"/></g><g transform="translate(1.46e3 2.74e3)"><path d="m0 0c-8.35-10-224-260-224-260l112-76s377-2 383 0c6.66 2 121 80 121 80l-181-52-301-4-72 66 162 246z" fill="#f2f2f2"/></g><g transform="translate(1677,2869)"><path d="m0 0c6-6 426-52 426-52l-92-462 56 428-390 86z" fill="#f2f2f2"/></g></g></g><g transform="matrix(.150 0 0 .150 198 320)"><path d="m0 0 54-134-276-128h-44l266 262z" fill="#ffffff"/></g><g transform="matrix(.150 0 0 .150 95.6 320)"><path d="m0 0-44-131 296-131h33l-285 262z" fill="#ffffff"/></g><g transform="matrix(.150 0 0 .150 126 195)"><path d="m0 0h298l74 262v24l-229 143-233-135-12-28 102-266z" fill="#ffffff"/></g><g transform="matrix(.150 0 0 .150 164 235)"><path d="m0 0 495 114-388-150 294-92-392 54" fill="#ff0000"/></g><g transform="matrix(.150 0 0 .150 130 235)"><path d="m0 0-495 114 388-150-294-92 392 54" fill="#ff0000"/></g><g transform="matrix(.150 0 0 .150 -87.1 -244)"><g clip-path="url(#e)"><g transform="translate(1500,3285)"><path d="m0 0 17.3-72s99.7-8 102 0c2 8 16 86 16 86l-135-14z" fill="#000000"/></g></g></g><path d="m201 249h-108v21.1h108v-21.1z" fill="#eb0800"/><g transform="matrix(.150 0 0 .150 83.4 277)"><path d="m0 0h852l-62-188-10 140h-720l-8-140-52 188z" fill="#92222e"/></g><g transform="matrix(.150 0 0 .150 95.6 326)"><path d="m0 0-3.58 10.8-90.4 273-296-12-76-296 233-150" fill="#eb0800"/></g><g transform="matrix(.150 0 0 .150 198 328)"><path d="m0 0 91 276 303-14 62-282-240-162-216 182z" fill="#eb0800"/></g></g></svg>
