<?xml version="1.0" encoding="utf-8"?>
<!-- Generator: Adobe Illustrator 16.0.0, SVG Export Plug-In . SVG Version: 6.00 Build 0)  -->
<!DOCTYPE svg PUBLIC "-//W3C//DTD SVG 1.1//EN" "http://www.w3.org/Graphics/SVG/1.1/DTD/svg11.dtd">
<svg version="1.1" id="Layer_1" xmlns="http://www.w3.org/2000/svg" xmlns:xlink="http://www.w3.org/1999/xlink" x="0px" y="0px"
	 width="301.018px" height="301.171px" viewBox="0 0 301.018 301.171" enable-background="new 0 0 301.018 301.171"
	 xml:space="preserve">
<g>
	<path d="M227.379,95.856c-16.93,0-28.856-7.009-34.61-20.406l3.674-1.578c6.851,15.952,22.395,18.54,34.233,17.894
		c13.3-0.721,25.13-9.691,30.781-22.867l-24.467,14.669l-37.353-29.652v-2.418l34.485-33.255l25.912,13.056
		C253.328,18.52,240.7,10.689,227.181,11.43c-14.572,0.791-26.212,10.279-31.135,25.382l-3.802-1.24
		c5.454-16.734,18.434-27.252,34.721-28.136c16.922-0.929,32.636,10.121,39.04,27.473l1.758,4.762l-32.906-16.58l-30.53,29.441
		l32.98,26.183l31.202-18.706l-1.387,4.864c-5.006,17.571-19.565,29.984-36.23,30.887C229.699,95.825,228.527,95.856,227.379,95.856
		z"/>
</g>
<g>
	<path d="M243.288,295.41H61.222l-2-2v-49.813l2-2h182.066l2,2v49.813L243.288,295.41z M63.222,291.41h178.066v-45.813H63.222
		V291.41z"/>
</g>
<g>
	<path d="M181.596,66.904H73.958l-2-2V31.9l2-2h107.638l2,2v33.003L181.596,66.904z M75.958,62.904h103.638V33.9H75.958V62.904z"/>
</g>
<g>
	<rect x="181.536" y="22.854" fill="#FFFFFF" width="17.447" height="51.699"/>
	<path d="M198.983,76.553h-17.447l-2-2V22.854l2-2h17.447l2,2v51.699L198.983,76.553z M183.536,72.553h13.447v-47.7h-13.447V72.553z
		"/>
</g>
<g>
	<polygon points="115.108,194.219 35.375,55.409 35.954,52.781 59.82,35.89 62.709,36.526 151.224,190.625 147.755,192.617 
		60.335,40.424 39.749,54.995 118.577,192.227 	"/>
</g>
<g>
	<ellipse fill="#FFFFFF" cx="53.56" cy="55.297" rx="35.119" ry="38.98"/>
	<path d="M53.561,96.277c-20.468,0-37.121-18.383-37.121-40.98c0-22.597,16.653-40.981,37.121-40.981
		c20.466,0,37.118,18.384,37.118,40.981C90.679,77.894,74.027,96.277,53.561,96.277z M53.561,18.316
		c-18.264,0-33.121,16.589-33.121,36.981c0,20.391,14.857,36.98,33.121,36.98c18.261,0,33.118-16.589,33.118-36.98
		C86.679,34.906,71.822,18.316,53.561,18.316z"/>
</g>
<g>
	<path fill="#FFFFFF" d="M70.708,55.918c0,10.71-7.82,19.395-17.47,19.395c-9.653,0-17.476-8.685-17.476-19.395
		s7.823-19.394,17.476-19.394C62.889,36.525,70.708,45.208,70.708,55.918z"/>
	<path d="M53.238,77.313c-10.739,0-19.476-9.598-19.476-21.395c0-11.796,8.736-21.394,19.476-21.394
		c10.736,0,19.47,9.597,19.47,21.394C72.708,67.715,63.975,77.313,53.238,77.313z M53.238,38.525
		c-8.534,0-15.476,7.803-15.476,17.394c0,9.591,6.942,17.395,15.476,17.395c8.531,0,15.47-7.804,15.47-17.395
		C68.708,46.328,61.769,38.525,53.238,38.525z"/>
</g>
<g>
	<polygon points="180.313,245.539 155.64,194.822 109.455,194.822 84.782,245.539 81.186,243.789 106.406,191.947 108.204,190.822 
		156.892,190.822 158.689,191.947 183.91,243.789 	"/>
</g>
</svg>
