<?xml version="1.0" encoding="UTF-8" standalone="no"?>
<svg xmlns:rdf="http://www.w3.org/1999/02/22-rdf-syntax-ns#" xmlns="http://www.w3.org/2000/svg" xml:space="preserve" height="148mm" viewBox="0 0 372.04724 524.40945" width="105mm" version="1.1" xmlns:cc="http://creativecommons.org/ns#" xmlns:dc="http://purl.org/dc/elements/1.1/"><metadata><rdf:RDF><cc:Work rdf:about=""><dc:format>image/svg+xml</dc:format><dc:type rdf:resource="http://purl.org/dc/dcmitype/StillImage"/><dc:title/></cc:Work></rdf:RDF></metadata><defs><clipPath id="b" clipPathUnits="userSpaceOnUse"><path d="m0 5.5e3h3e3v-5.5e3h-3e3v5.5e3z"/></clipPath><clipPath id="a" clipPathUnits="userSpaceOnUse"><path d="m0 5.5e3h3e3v-5.5e3h-3e3v5.5e3z"/></clipPath><clipPath id="i" clipPathUnits="userSpaceOnUse"><path d="m0 5.5e3h3e3v-5.5e3h-3e3v5.5e3z"/></clipPath><clipPath id="h" clipPathUnits="userSpaceOnUse"><path d="m0 5.5e3h3e3v-5.5e3h-3e3v5.5e3z"/></clipPath><clipPath id="g" clipPathUnits="userSpaceOnUse"><path d="m0 5.5e3h3e3v-5.5e3h-3e3v5.5e3z"/></clipPath><clipPath id="f" clipPathUnits="userSpaceOnUse"><path d="m0 5.5e3h3e3v-5.5e3h-3e3v5.5e3z"/></clipPath><clipPath id="e" clipPathUnits="userSpaceOnUse"><path d="m0 5.5e3h3e3v-5.5e3h-3e3v5.5e3z"/></clipPath><clipPath id="d" clipPathUnits="userSpaceOnUse"><path d="m0 5.5e3h3e3v-5.5e3h-3e3v5.5e3z"/></clipPath><clipPath id="c" clipPathUnits="userSpaceOnUse"><path d="m0 5.5e3h3e3v-5.5e3h-3e3v5.5e3z"/></clipPath></defs><g transform="matrix(1.25 0 0 -1.25 0 524)"><g transform="matrix(.103 0 0 .103 104 115)"><path d="m0 0 270-17.6-203-532-67 550z" fill="#000000"/></g><g transform="matrix(.103 0 0 .103 104 115)"><path d="m0 0 270-17.6-203-532-67 550z" stroke="#b3b3b3" stroke-miterlimit="10" fill="none"/></g><g transform="matrix(.103 0 0 .103 172 112)"><path d="m0 0 273 25.8-92.6-550" stroke="#b3b3b3" stroke-miterlimit="10" fill="#000000"/></g><g transform="matrix(.103 0 0 .103 104 115)"><path d="m0 0 270-17.6-130-22.3-140 39.9z" fill="#ffffff"/></g><g transform="matrix(.103 0 0 .103 104 115)"><path d="m0 0 270-17.6-130-22.3-140 39.9z" stroke="#b3b3b3" stroke-miterlimit="10" fill="none"/></g><g transform="matrix(.103 0 0 .103 201 114)"><path d="m0 0-271-24.7 131-18.5 140 43.2z" fill="#ffffff"/></g><g transform="matrix(.103 0 0 .103 201 114)"><path d="m0 0-271-24.7 131-18.5 140 43.2z" stroke="#b3b3b3" stroke-miterlimit="10" fill="none"/></g><g transform="matrix(.103 0 0 .103 201 115)"><path d="m0 0-125-76.8" stroke="#b3b3b3" stroke-miterlimit="10" fill="#000000"/></g><g transform="matrix(.103 0 0 .103 -5.49 -130)"><g clip-path="url(#b)"><g transform="translate(1.29e3 2.45e3)"><path d="m0 0c0-56.7-45.9-103-103-103-56.7 0-103 45.9-103 103 0 56.7 45.9 103 103 103s103-46.3 103-103" fill="#ff0000"/></g><g transform="translate(1.29e3 2.45e3)"><path d="m0 0c0-56.7-45.9-103-103-103-56.7 0-103 45.9-103 103 0 56.7 45.9 103 103 103s103-46.3 103-103z" stroke="#000000" stroke-miterlimit="10" fill="none"/></g><g transform="translate(1.95e3 2.45e3)"><path d="m0 0c0-56.7-45.9-103-103-103-56.7 0-103 45.9-103 103 0 56.7 45.9 103 103 103s103-46.3 103-103" fill="#ff0000"/></g><g transform="translate(1.95e3 2.45e3)"><path d="m0 0c0-56.7-45.9-103-103-103-56.7 0-103 45.9-103 103 0 56.7 45.9 103 103 103s103-46.3 103-103z" stroke="#000000" stroke-miterlimit="10" fill="none"/></g></g></g><g transform="matrix(.103 0 0 .103 -5.49 -130)"><g clip-path="url(#a)"><g transform="translate(2.55e3 4.35e3)"><path d="m0 0-821-277c91.7-141 183-283 275-424l4.49-6.92 442 285 253-322 72-475 159 454-384 766" stroke="#000000" stroke-miterlimit="10" fill="#000000"/></g><g transform="translate(445 4.34e3)"><path d="m0 0 821-277c-91.7-141-183-283-275-424l-4.49-6.92-442 285-253-322-72-475-159 454 384 766" stroke="#000000" stroke-miterlimit="10" fill="#000000"/></g><g transform="translate(467 4.29e3)"><path d="m0 0-375-715 120-426-87.5 419l363 672 711-200-732 249z" fill="#f2f2f2"/></g><g transform="translate(467 4.29e3)"><path d="m0 0-375-715 120-426-87.5 419l363 672 711-200-732 249z" stroke="#000000" stroke-miterlimit="10" fill="none"/></g><g transform="translate(2.52e3 4.29e3)"><path d="m0 0 375-715-120-425 87 418-363 673-711-200 732 249z" fill="#f2f2f2"/></g><g transform="translate(2.52e3 4.29e3)"><path d="m0 0 375-715-120-425 87 418-363 673-711-200 732 249z" stroke="#000000" stroke-miterlimit="10" fill="none"/></g><g transform="translate(1.27e3 4.07e3)"><path d="m0 0-280-431 64.5 236l216 195z" fill="#ffffff"/></g><g transform="translate(1.27e3 4.07e3)"><path d="m0 0-280-431 64.5 236l216 195z" stroke="#000000" stroke-miterlimit="10" fill="none"/></g><g transform="translate(1.94e3 3.89e3)"><path d="m0 0-215 195 280-431" stroke="#000000" stroke-miterlimit="10" fill="#ffffff"/></g></g></g><g transform="matrix(.103 0 0 .103 -5.49 -130)"><g clip-path="url(#i)"><g transform="translate(1.73e3 3.33e3)"><path d="m0 0c0-132-107-238-238-238-132 0-238 107-238 238 0 132 107 238 238 238s238-106 238-238" fill="#f2f2f2"/></g><g transform="translate(1.73e3 3.33e3)"><path d="m0 0c0-132-107-238-238-238-132 0-238 107-238 238 0 132 107 238 238 238s238-106 238-238z" stroke="#000000" stroke-miterlimit="10" fill="none"/></g><g transform="translate(726 3.01e3)"><path d="m0 0 289-486h957l280 486h-1.53e3z" fill="#000000"/></g><g transform="translate(726 3.01e3)"><path d="m0 0 289-486h957l280 486h-1.53e3z" stroke="#000000" stroke-miterlimit="10" fill="none"/></g></g></g><g transform="matrix(.103 0 0 .103 -5.49 -130)"><g clip-path="url(#h)"><g transform="translate(749 3.06e3)"><path d="m0 0 744 561 746-561s-723-684-1.49e3 0" stroke="#b3b3b3" stroke-miterlimit="10" fill="#cccccc"/></g></g></g><g transform="matrix(.103 0 0 .103 -5.49 -130)"><g clip-path="url(#g)"><g transform="translate(723 3e3)"><path d="m0 0 732 1.26e3h98.5l700-1.26e3s-700-507-1.53e3 0" fill="#000000"/></g><g transform="translate(723 3e3)"><path d="m0 0 732 1.26e3h98.5l700-1.26e3s-700-507-1.53e3 0z" stroke="#000000" stroke-miterlimit="10" fill="none"/></g></g></g><g transform="matrix(.103 0 0 .103 -5.49 -130)"><g clip-path="url(#f)"><g transform="translate(1.74e3 3.35e3)"><path d="m0 0c0-132-107-238-238-238-132 0-238 107-238 238 0 132 107 238 238 238s238-106 238-238" fill="#f2f2f2"/></g><g transform="translate(1.74e3 3.35e3)"><path d="m0 0c0-132-107-238-238-238-132 0-238 107-238 238 0 132 107 238 238 238s238-106 238-238z" stroke="#000000" stroke-miterlimit="10" fill="none"/></g></g></g><g transform="matrix(.103 0 0 .103 84.4 157)"><path d="m0 0 46.9-77 468-83.9-72.7-154 61-22.3-11.7-19.9 116-51.6h53.9l98.5 23.5v19.9l65.7 5.86-19.9 205 394 76.8 41 68.6-615-67.4-625 77z" fill="#ff0000"/></g><g transform="matrix(.103 0 0 .103 84.4 157)"><path d="m0 0 46.9-77 468-83.9-72.7-154 61-22.3-11.7-19.9 116-51.6h53.9l98.5 23.5v19.9l65.7 5.86-19.9 205 394 76.8 41 68.6-615-67.4-625 77z" stroke="#000000" stroke-miterlimit="10" fill="none"/></g><g transform="matrix(.103 0 0 .103 -5.49 -130)"><g clip-path="url(#e)"><g transform="translate(1.21e3 3.83e3)"><path d="m0 0c0-31.7-25.7-57.5-57.5-57.5-31.7 0-57.5 25.7-57.5 57.5 0 31.7 25.7 57.5 57.5 57.5s57.5-25.8 57.5-57.5" fill="#ff0000"/></g><g transform="translate(1.21e3 3.83e3)"><path d="m0 0c0-31.7-25.7-57.5-57.5-57.5-31.7 0-57.5 25.7-57.5 57.5 0 31.7 25.7 57.5 57.5 57.5s57.5-25.8 57.5-57.5z" stroke="#000000" stroke-miterlimit="10" fill="none"/></g><g transform="translate(1.91e3 3.83e3)"><path d="m0 0c0-31.7-25.7-57.5-57.5-57.5-31.7 0-57.5 25.7-57.5 57.5 0 31.7 25.7 57.5 57.5 57.5s57.5-25.8 57.5-57.5" fill="#ff0000"/></g><g transform="translate(1.91e3 3.83e3)"><path d="m0 0c0-31.7-25.7-57.5-57.5-57.5-31.7 0-57.5 25.7-57.5 57.5 0 31.7 25.7 57.5 57.5 57.5s57.5-25.8 57.5-57.5z" stroke="#000000" stroke-miterlimit="10" fill="none"/></g></g></g><g transform="matrix(.103 0 0 .103 128 315)"><path d="m0 0 144-91.1 149-5.55 148 88.4-74.6 196-62.2 69.2h-170l-53.1-67-80.9-190z" fill="#000000"/></g><g transform="matrix(.103 0 0 .103 128 315)"><path d="m0 0 144-91.1 149-5.55 148 88.4-74.6 196-62.2 69.2h-170l-53.1-67-80.9-190z" stroke="#000000" stroke-miterlimit="10" fill="none"/></g><g transform="matrix(.103 0 0 .103 128 315)"><path d="m0 0 139-93.3 151-8.57 140 92.5-168-41.8h-98.5l-164 51.3z" fill="#ffffff"/></g><g transform="matrix(.103 0 0 .103 128 315)"><path d="m0 0 139-93.3 151-8.57 140 92.5-168-41.8h-98.5l-164 51.3z" stroke="#000000" stroke-miterlimit="10" fill="none"/></g><path d="m164 322h-27.9v6.31h27.9v-6.31z" stroke="#000000" stroke-miterlimit="10" stroke-width=".103" fill="#ffffff"/><g transform="matrix(.103 0 0 .103 150 330)"><path d="m0 0-135-16.4h270l-135 16.4z" fill="#5b5b5b"/></g><g transform="matrix(.103 0 0 .103 150 330)"><path d="m0 0-135-16.4h270l-135 16.4z" stroke="#000000" stroke-miterlimit="10" fill="none"/></g><g transform="matrix(.103 0 0 .103 -5.49 -130)"><g clip-path="url(#d)"><g transform="translate(1.39e3 4.52e3)"><path d="m0 0 28.1 43.4h23.5l-25.8 58.6 18.8 37.5 64.5 32.8 52.8-9.38 55.1-39.9 5.86-29.3-29.3-44.6 19.9-1.17 19.9-29.3h88s98.5 35.2 95 34c-4-2-96-46.6-96-46.6l-85-7-15.2-9.38 66.8-11.7 104-8.21 120 34-109-45.7h-142l-66.8 16.4-65-27-129 51.6z" fill="#1e1e1e"/></g><g transform="translate(1.39e3 4.52e3)"><path d="m0 0 28.1 43.4h23.5l-25.8 58.6 18.8 37.5 64.5 32.8 52.8-9.38 55.1-39.9 5.86-29.3-29.3-44.6 19.9-1.17 19.9-29.3h88s98.5 35.2 95 34c-4-2-96-46.6-96-46.6l-85-7-15.2-9.38 66.8-11.7 104-8.21 120 34-109-45.7h-142l-66.8 16.4-65-27-129 51.6z" stroke="#000000" stroke-miterlimit="10" fill="none"/></g></g></g><g transform="matrix(.103 0 0 .103 150 318)"><path d="m0 0-134 35.2h270l-136-35.2z" fill="#b2b2b2"/></g><g transform="matrix(.103 0 0 .103 150 318)"><path d="m0 0-134 35.2h270l-136-35.2z" stroke="#000000" stroke-miterlimit="10" fill="none"/></g><g transform="matrix(.103 0 0 .103 -5.49 -130)"><g clip-path="url(#c)"><g transform="translate(1.46e3 4.39e3)"><path d="m0 0c0-10-8.14-18.2-18.2-18.2-10 0-18.2 8.14-18.2 18.2 0 10 8.14 18.2 18.2 18.2s18.2-8.2 18.2-18.2" fill="#000000"/></g><g transform="translate(1.46e3 4.39e3)"><path d="m0 0c0-10-8.14-18.2-18.2-18.2-10 0-18.2 8.14-18.2 18.2 0 10 8.14 18.2 18.2 18.2s18.2-8.2 18.2-18.2z" stroke="#000000" stroke-miterlimit="10" fill="none"/></g><g transform="translate(1.6e3 4.39e3)"><path d="m0 0c0-10-8.14-18.2-18.2-18.2-10 0-18.2 8.14-18.2 18.2 0 10 8.14 18.2 18.2 18.2s18.2-8.2 18.2-18.2" fill="#000000"/></g><g transform="translate(1.6e3 4.39e3)"><path d="m0 0c0-10-8.14-18.2-18.2-18.2-10 0-18.2 8.14-18.2 18.2 0 10 8.14 18.2 18.2 18.2s18.2-8.2 18.2-18.2z" stroke="#000000" stroke-miterlimit="10" fill="none"/></g></g></g><g transform="matrix(.103 0 0 .103 136 322)"><path d="m0 0 2.44 4.3 22.2 39.1h231l14-43.4v61h-270" stroke="#000000" stroke-miterlimit="10" fill="#ff0000"/></g></g></svg>
