<?xml version="1.0" encoding="utf-8"?>
<!-- Generator: Adobe Illustrator 16.0.0, SVG Export Plug-In . SVG Version: 6.00 Build 0)  -->
<!DOCTYPE svg PUBLIC "-//W3C//DTD SVG 1.1//EN" "http://www.w3.org/Graphics/SVG/1.1/DTD/svg11.dtd">
<svg version="1.1" id="Layer_1" xmlns="http://www.w3.org/2000/svg" xmlns:xlink="http://www.w3.org/1999/xlink" x="0px" y="0px"
	width="301.018px" height="301.171px" viewBox="0 0 301.018 301.171" enable-background="new 0 0 301.018 301.171"
	xml:space="preserve">
	<g>

			<line fill="none" stroke="#000000" stroke-width="2" stroke-miterlimit="10" x1="143.618" y1="153.435" x2="102.618" y2="112.435"/>
		<path fill="none" stroke="#000000" stroke-width="2" stroke-miterlimit="10" d="M226.339,198.066l-58.438-58.438l-15.709-15.709
			l-49.193-49.193c8.37-19.275,4.691-42.527-11.07-58.288C75.899,0.407,52.114-3.137,32.651,5.796l41.673,14.694l17.907,43.683
			l-27.21,27.209l-44.16-17.428L7.078,30.993c-9.356,19.595-5.932,43.769,10.296,59.999c15.761,15.76,39.013,19.44,58.289,11.07
			l49.193,49.193l15.709,15.709l57.877,57.877c-8.934,19.465-5.391,43.249,10.639,59.278c20.588,20.589,53.966,20.589,74.554,0
			c20.587-20.587,20.587-53.966,0-74.553C268.146,194.076,245.415,190.245,226.339,198.066z M284.99,259.338l-26.09,26.088
			l-34.935-8.85l-14.986-42.209l25.198-25.197l41.962,15.232L284.99,259.338z"/>
		<path fill="#FFFFFF" stroke="#000000" stroke-width="2" stroke-miterlimit="10" d="M102.06,226.45l59.329-59.33l5.573-5.573
			l59.331-59.329c19.275,8.37,42.527,4.69,58.288-11.07c16.03-16.03,19.575-39.814,10.641-59.277l-14.694,41.674l-43.682,17.907
			l-27.21-27.209l17.429-44.161l42.961-13.783c-19.594-9.357-43.769-5.933-59.999,10.296c-15.759,15.761-19.439,39.013-11.07,58.289
			l-59.329,59.329l-5.573,5.573l-59.329,59.329c-19.276-8.37-42.528-4.69-58.288,11.071c-16.03,16.029-19.575,39.814-10.641,59.278
			l14.694-41.675l43.682-17.907l27.208,27.21l-17.427,44.162l-42.96,13.78c19.592,9.359,43.768,5.934,59.997-10.295
			C106.751,268.978,110.431,245.726,102.06,226.45z"/>
		<circle fill="#FFFFFF" stroke="#000000" stroke-width="2" stroke-miterlimit="10" cx="98.602" cy="201.301" r="8.786"/>
		<circle fill="#FFFFFF" stroke="#000000" stroke-width="2" stroke-miterlimit="10" cx="203.869" cy="96.033" r="8.786"/>
		<circle fill="#FFFFFF" stroke="#000000" stroke-width="2" stroke-miterlimit="10" cx="96.928" cy="96.033" r="8.786"/>
		<circle fill="#FFFFFF" stroke="#000000" stroke-width="2" stroke-miterlimit="10" cx="206.708" cy="205.815" r="8.786"/>

			<line fill="none" stroke="#000000" stroke-width="2" stroke-miterlimit="10" x1="197.922" y1="115.196" x2="156.922" y2="156.195"/>
	</g>
</svg>
