<?xml version="1.0" encoding="UTF-8"?>
<svg width="300" height="85" version="1.1" viewBox="0 0 300 85" xml:space="preserve" xmlns="http://www.w3.org/2000/svg" xmlns:cc="http://creativecommons.org/ns#" xmlns:dc="http://purl.org/dc/elements/1.1/" xmlns:rdf="http://www.w3.org/1999/02/22-rdf-syntax-ns#"><metadata><rdf:RDF><cc:Work rdf:about=""><dc:format>image/svg+xml</dc:format><dc:type rdf:resource="http://purl.org/dc/dcmitype/StillImage"/><dc:title/></cc:Work></rdf:RDF></metadata><defs><clipPath id="a"><path d="m0 842h1191v-842h-1191z"/></clipPath></defs><g transform="matrix(1.33 0 0 -1.33 0 85)"><g transform="matrix(.292 0 0 .292 -61.1 -91.2)"><g clip-path="url(#a)"><g transform="translate(581 348)"><path d="m0 0h-17.1v30.3h17.1c11.8 0 18.5-4.81 18.5-14.9 0-10.4-6.67-15.4-18.5-15.4m0.547 41.9h-30.5v-76.6h12.9v23.1h17.6c19.2 0 30.3 10.1 30.3 27.3 0 16.6-11 26.1-30.3 26.1" fill="#27b67d"/></g><g transform="translate(638 390)"><path d="m0 0h-12.9v-76.6h46v11.7h-33.1z" fill="#27b67d"/></g><g transform="translate(701 342)"><path d="m0 0 14.4 34 14.4-34zm8.2 47.8-33.8-76.6h13.5l7.33 17.3h38.6l7.33-17.3h13.8l-33.5 76.6z" fill="#27b67d"/></g><g transform="translate(822 335)"><path d="m0 0-41 55h-12.7v-76.6h12.9v54.9l40.8-54.9h12.7v76.6h-12.7z" fill="#27b67d"/></g><g transform="translate(869 346)"><path d="m0 0h37.4v11.6h-37.4v20.7h41.8v11.6h-54.7v-76.6h56v11.6h-43.1z" fill="#27b67d"/></g><g transform="translate(920 390)"><path d="m0 0v-11.6h24.2v-65h12.9v65h24.3v11.6z" fill="#27b67d"/></g><g transform="translate(244 350)"><path d="m0 0h-14.8v24.4h14.8c8.42 0 13.3-4.05 13.3-12 0-8.09-4.92-12.4-13.3-12.4m31.8 13c0 17.1-11.6 26.7-31.8 26.7h-34.2v-76.6h19.5v21.5h15.3l11.4-21.5h22.1l-16.1 25.3c8.97 4.48 13.9 12.9 13.9 24.6" fill="#502c78"/></g><g transform="translate(399 375)"><path d="m0 0h15.8c5.69 0 9.3-2.84 9.3-7.77s-3.61-7.98-9.3-7.98h-15.8zm27.4-37.6c7e-3 -0.14 0.023-0.277 0.023-0.42 0-5.47-4.48-8.64-11.7-8.64h-15.8v20s12.8 0.707 32 5.54c-0.065 0.013-0.125 0.031-0.19 0.045 8.09 2.3 13.1 8.75 13.1 16.8 0 11.7-10.9 19.1-28.1 19.1h-36.2v-76.6h37.5c18 0 29.4 8.2 29.4 21.2 0 2.38-0.359 4.62-1.02 6.68-6.06-1.5-12.4-2.8-19.1-3.85" fill="#502c78"/></g><g transform="translate(495 391)"><path d="m0 0c-20.1 0-35.9-11.9-40.2-29.2 16.4 6.02 34.8 14.8 52.8 27.5-3.94 1.09-8.15 1.67-12.6 1.67" fill="#502c78"/></g><g transform="translate(524 380)"><path d="m0 0c-2.92-2.48-7.94-6.46-15-11.1 4.45-4.08 7.25-10.2 7.25-17.2 0-12.9-9.41-22.9-21.2-22.9-11.3 0-21 9.33-21.6 21.6-5.92-2.37-12.3-4.62-19.2-6.64 3.65-18.3 19.8-31.3 40.6-31.3 23.7 0 41.5 17 41.5 39.3 0 11.3-4.62 21.2-12.3 28.2" fill="#502c78"/></g><g transform="translate(326 391)"><path d="m0 0c-23.6 0-41.3-16.5-41.3-38.8 0-22.4 17.7-39.3 41.3-39.3 17.5 0 31.7 9.19 38 22.9-5.36 0.568-16.3 1.78-20.5 2.67-3.84-5.69-10.1-9.3-17.2-9.3-11.7 0-21.7 9.95-21.7 22.9 0 12.9 9.84 22.6 21.7 22.6 11.8 0 21.2-9.73 21.2-22.6 0-2.17-0.271-4.26-0.771-6.23 3.75-0.055 13.9-0.186 20.3-0.094 0.333 2.08 0.512 4.23 0.512 6.43 0 22.2-17.7 38.8-41.5 38.8" fill="#502c78"/></g><g transform="translate(629 470)"><path d="m0 0c-2.09 2.09-5.5 2.07-7.61-0.033-2.11-2.11-2.12-5.52-0.036-7.61 2.09-2.09 5.5-2.08 7.61 0.036 2.11 2.11 2.12 5.52 0.033 7.61" fill="#27b67d"/></g><g transform="translate(603 496)"><path d="m0 0c-2.09 2.09-5.5 2.08-7.61-0.033-2.11-2.11-2.12-5.52-0.035-7.61 2.09-2.09 5.5-2.07 7.61 0.035 2.11 2.11 2.12 5.52 0.033 7.61" fill="#27b67d"/></g><g transform="translate(620 455)"><path d="m0 0c-2.32 1.2-5.75 5.19-7.16 7.16-0.572 0.808-1.93 2.49-3.32 4.19 2.59-1.21 3.65-0.018 4.14 0.478 0.74 0.74 0.851 2.29 0 3.14-0.814 0.814-4 1.08-5.98 3.06-1.92 1.92-2.24 5.16-3.06 5.98-0.85 0.851-2.4 0.74-3.14 0-0.486-0.485-1.64-1.52-0.537-4.01-1.84 1.52-3.76 3.06-4.64 3.69-1.96 1.4-5.95 4.83-7.15 7.15 0 0-4.63 5.48 1.88 12 0 0 7.22 7.22 16.7 6.55 9.15-0.642 17.4-7.09 20.4-9.92l5e-3 5e-3c0.04-0.04 0.086-0.096 0.125-0.136 0.047-0.047 0.103-0.092 0.142-0.131 0.041-0.041 0.088-0.098 0.133-0.143 0.039-0.039 0.096-0.085 0.137-0.126l-6e-3 -6e-3c2.83-2.95 9.28-11.2 9.92-20.4 0.669-9.44-6.55-16.7-6.55-16.7-6.51-6.51-12-1.88-12-1.88m40.6 2.13c-2.79 2.79-7.33 2.77-10.1-0.046-2.02-2.02-2.58-4.93-1.71-7.44l-14.5-14.5c-0.447 1.4-1.19 2.71-2.19 3.87l6.62 6.62s18.1 20.1 8.27 41.8c-2.91 6.44-6.48 11.4-10 15.3-3.84 3.56-8.83 7.13-15.3 10-21.7 9.81-41.8-8.27-41.8-8.27s-2.62-2.62-6.42-6.4c-1.17 1-2.48 1.75-3.89 2.2l14.5 14.5c2.52-0.868 5.42-0.314 7.44 1.71 2.82 2.82 2.83 7.36 0.045 10.1-2.79 2.79-7.33 2.77-10.1-0.047-2.02-2.02-2.58-4.93-1.71-7.44l-21.7-21.7c-4.25-4.25-4.46-11-0.638-15.4-6.29-6.29-11.5-11.5-11.6-11.7l-0.121-0.121 6e-3 -5e-3c-7.71-9.06-7.93-22.3-0.593-31.4l-0.127-0.104 28-28 0.109 0.122c9.16-7.33 22.4-7.12 31.4 0.594l6e-3 -6e-3 11.6 11.6c4.44-3.81 11.2-3.6 15.4 0.642l21.7 21.7c2.51-0.868 5.43-0.307 7.44 1.71 2.82 2.82 2.83 7.36 0.047 10.1" fill="#502c78"/></g><g transform="translate(642 514)"><path d="m0 0-0.033 0.033-5.24-5.24 4.81-4.81 5.08 5.08c2.5-0.816 5.35-0.25 7.34 1.74 2.82 2.82 2.84 7.35 0.047 10.1-2.79 2.79-7.33 2.77-10.1-0.045-1.89-1.88-2.49-4.53-1.86-6.91" fill="#502c78"/></g><g transform="translate(548 414)"><path d="m0 0c5.7-5.7 14.2-6.89 21.2-3.61l-24.8 24.8c-3.28-6.96-2.09-15.5 3.62-21.2" fill="#502c78"/></g></g></g></g></svg>
