<?xml version="1.0" encoding="utf-8"?>
<!-- Generator: Adobe Illustrator 16.0.0, SVG Export Plug-In . SVG Version: 6.00 Build 0)  -->
<!DOCTYPE svg PUBLIC "-//W3C//DTD SVG 1.1//EN" "http://www.w3.org/Graphics/SVG/1.1/DTD/svg11.dtd" [
	<!ENTITY ns_extend "http://ns.adobe.com/Extensibility/1.0/">
	<!ENTITY ns_ai "http://ns.adobe.com/AdobeIllustrator/10.0/">
	<!ENTITY ns_graphs "http://ns.adobe.com/Graphs/1.0/">
	<!ENTITY ns_vars "http://ns.adobe.com/Variables/1.0/">
	<!ENTITY ns_imrep "http://ns.adobe.com/ImageReplacement/1.0/">
	<!ENTITY ns_sfw "http://ns.adobe.com/SaveForWeb/1.0/">
	<!ENTITY ns_custom "http://ns.adobe.com/GenericCustomNamespace/1.0/">
	<!ENTITY ns_adobe_xpath "http://ns.adobe.com/XPath/1.0/">
]>
<svg version="1.1" id="Layer_1" xmlns:x="&ns_extend;" xmlns:i="&ns_ai;" xmlns:graph="&ns_graphs;"
	 xmlns="http://www.w3.org/2000/svg" xmlns:xlink="http://www.w3.org/1999/xlink" x="0px" y="0px" width="301.018px"
	 height="301.171px" viewBox="0 0 301.018 301.171" enable-background="new 0 0 301.018 301.171" xml:space="preserve">
<switch>
	<g i:extraneous="self">
		<path fill="none" stroke="#000000" stroke-width="2" stroke-linecap="square" stroke-miterlimit="1" d="M439.888,276.733"/>
		<line fill="none" stroke="#000000" stroke-width="3" stroke-miterlimit="10" x1="116.284" y1="66.81" x2="259.997" y2="66.81"/>
		<line fill="none" stroke="#000000" stroke-width="3" stroke-miterlimit="10" x1="116.284" y1="86.946" x2="259.997" y2="86.946"/>
		<path fill="#FFFFFF" stroke="#000000" stroke-width="2" stroke-miterlimit="10" d="M157.269,183.716
			c0-5.013-4.063-9.078-9.073-9.078c-5.016,0-9.078,4.065-9.078,9.078c0,5.015,4.062,9.077,9.078,9.077
			C153.207,192.792,157.269,188.73,157.269,183.716z"/>
		
			<rect x="3.751" y="6.016" fill="none" stroke="#000000" stroke-width="3" stroke-linecap="square" stroke-miterlimit="1" width="295.768" height="193.544"/>
		
			<rect x="121.968" y="199.56" fill="none" stroke="#000000" stroke-width="3" stroke-linecap="square" stroke-miterlimit="1" width="53.587" height="56.952"/>
		
			<rect x="69.598" y="256.512" fill="none" stroke="#000000" stroke-width="3" stroke-linecap="square" stroke-miterlimit="1" width="158.327" height="31.502"/>
		
			<line fill="none" stroke="#000000" stroke-width="3" stroke-linecap="square" stroke-miterlimit="1" x1="19.501" y1="168.7" x2="282.729" y2="168.7"/>
		
			<line fill="#FFFFFF" stroke="#000000" stroke-width="3" stroke-miterlimit="10" x1="19.665" y1="169.519" x2="19.665" y2="23.371"/>
		
			<line fill="#FFFFFF" stroke="#000000" stroke-width="3" stroke-miterlimit="10" x1="282.729" y1="169.519" x2="282.729" y2="23.371"/>
		
			<line fill="none" stroke="#000000" stroke-width="3" stroke-linecap="square" stroke-miterlimit="1" x1="19.665" y1="23.371" x2="282.729" y2="23.371"/>
		
			<rect x="91.657" y="113.496" fill="#FFFFFF" stroke="#000000" stroke-width="3" stroke-miterlimit="10" width="116.919" height="31.396"/>
		<polyline fill="#FFFFFF" stroke="#000000" stroke-width="3" stroke-miterlimit="10" points="223.536,102.618 233.521,109.444 
			215.553,118.066 197.584,126.691 199.1,106.819 200.614,86.946 211.054,94.081 		"/>
		<polyline fill="#FFFFFF" stroke="#000000" stroke-width="3" stroke-miterlimit="10" points="210.651,97.028 236.931,63.353 
			246.142,70.511 220.521,103.477 		"/>
		
			<rect x="43.211" y="39.61" fill="#FFFFFF" stroke="#000000" stroke-width="3" stroke-miterlimit="10" width="46.279" height="54.399"/>
		<line fill="none" stroke="#000000" stroke-width="3" stroke-miterlimit="10" x1="116.284" y1="47.729" x2="259.997" y2="47.729"/>
		<path fill="#FFFFFF" stroke="#000000" stroke-width="2" stroke-miterlimit="10" d="M75.632,61.48c0-5.21-4.223-9.436-9.431-9.436
			c-5.214,0-9.437,4.226-9.437,9.436c0,5.211,4.223,9.438,9.437,9.438C71.41,70.918,75.632,66.692,75.632,61.48z"/>
		<path fill="#FFFFFF" stroke="#000000" stroke-width="2" stroke-miterlimit="10" d="M79.341,91.676
			c0-6.08-0.913-20.758-12.987-20.758c-13.501,0-13.299,14.94-13.299,20.656"/>
		
			<line fill="none" stroke="#000000" stroke-width="3" stroke-linecap="square" stroke-miterlimit="1" x1="108.467" y1="127.515" x2="190.671" y2="127.515"/>
	</g>
</switch>
</svg>
