<?xml version="1.0" encoding="UTF-8" standalone="no"?>
<svg xmlns:rdf="http://www.w3.org/1999/02/22-rdf-syntax-ns#" xmlns="http://www.w3.org/2000/svg" xml:space="preserve" height="148mm" viewBox="0 0 372.04725 524.40945" width="105mm" version="1.1" xmlns:cc="http://creativecommons.org/ns#" xmlns:dc="http://purl.org/dc/elements/1.1/"><defs><clipPath id="c" clipPathUnits="userSpaceOnUse"><path d="m0 5.5e3h3e3v-5.5e3h-3e3v5.5e3z"/></clipPath><clipPath id="b" clipPathUnits="userSpaceOnUse"><path d="m0 5.5e3h3e3v-5.5e3h-3e3v5.5e3z"/></clipPath><clipPath id="a" clipPathUnits="userSpaceOnUse"><path d="m0 5.5e3h3e3v-5.5e3h-3e3v5.5e3z"/></clipPath><clipPath id="f" clipPathUnits="userSpaceOnUse"><path d="m0 5.5e3h3e3v-5.5e3h-3e3v5.5e3z"/></clipPath><clipPath id="e" clipPathUnits="userSpaceOnUse"><path d="m0 5.5e3h3e3v-5.5e3h-3e3v5.5e3z"/></clipPath><clipPath id="d" clipPathUnits="userSpaceOnUse"><path d="m0 5.5e3h3e3v-5.5e3h-3e3v5.5e3z"/></clipPath></defs><g transform="matrix(1.25 0 0 -1.25 0 524)"><g transform="matrix(.117 0 0 .117 -33.1 -170)"><g clip-path="url(#c)"><g transform="translate(1.77e3 3.44e3)"><path d="m0 0c0-31.3-25.3-56.6-56.6-56.6s-56.6 25.3-56.6 56.6 25.3 56.6 56.6 56.6c31.1 0 56.4-25.3 56.4-56.6" fill="#ff0000"/></g><g transform="translate(1.77e3 3.44e3)"><path d="m0 0c0-31.3-25.3-56.6-56.6-56.6s-56.6 25.3-56.6 56.6 25.3 56.6 56.6 56.6c31.1 0 56.4-25.3 56.4-56.6z" stroke="#000000" stroke-miterlimit="10" fill="none"/></g><g transform="translate(1.23e3 3.35e3)"><path d="m0 0c0-31.3-25.3-56.6-56.6-56.6s-56.6 25.3-56.6 56.6 25.3 56.6 56.6 56.6c31.1 0 56.4-25.3 56.4-56.6" fill="#ff0000"/></g><g transform="translate(1.23e3 3.35e3)"><path d="m0 0c0-31.3-25.3-56.6-56.6-56.6s-56.6 25.3-56.6 56.6 25.3 56.6 56.6 56.6c31.1 0 56.4-25.3 56.4-56.6z" stroke="#000000" stroke-miterlimit="10" fill="none"/></g><g transform="translate(1.66e3 2.95e3)"><path d="m0 0c0-31.3-25.3-56.6-56.6-56.6s-56.6 25.3-56.6 56.6 25.3 56.6 56.6 56.6c31.1 0 56.4-25.3 56.4-56.6" fill="#ff0000"/></g><g transform="translate(1.66e3 2.95e3)"><path d="m0 0c0-31.3-25.3-56.6-56.6-56.6s-56.6 25.3-56.6 56.6 25.3 56.6 56.6 56.6c31.1 0 56.4-25.3 56.4-56.6z" stroke="#000000" stroke-miterlimit="10" fill="none"/></g></g></g><g transform="matrix(.117 0 0 .117 -33.1 -170)"><g clip-path="url(#b)"><g transform="translate(1.41e3 4.06e3)"><path d="m0 0c0-50-40.6-90.6-90.6-90.6s-90.6 40.6-90.6 90.6 40.6 90.6 90.6 90.6c49.8 0 90.4-40.6 90.4-90.6" fill="#ff0000"/></g><g transform="translate(1.41e3 4.06e3)"><path d="m0 0c0-50-40.6-90.6-90.6-90.6s-90.6 40.6-90.6 90.6 40.6 90.6 90.6 90.6c49.8 0 90.4-40.6 90.4-90.6z" stroke="#000000" stroke-miterlimit="10" fill="none"/></g></g></g><g transform="matrix(.117 0 0 .117 -33.1 -170)"><g clip-path="url(#a)"><g transform="translate(1.89e3 3.98e3)"><path d="m0 0c0-50-40.6-90.6-90.6-90.6s-90.6 40.6-90.6 90.6 40.6 90.6 90.6 90.6c49.8 0 90.4-40.6 90.4-90.6" fill="#ff0000"/></g><g transform="translate(1.89e3 3.98e3)"><path d="m0 0c0-50-40.6-90.6-90.6-90.6s-90.6 40.6-90.6 90.6 40.6 90.6 90.6 90.6c49.8 0 90.4-40.6 90.4-90.6z" stroke="#000000" stroke-miterlimit="10" fill="none"/></g><g transform="translate(1.03e3 3.83e3)"><path d="m0 0c0-50-40.6-90.6-90.6-90.6s-90.6 40.6-90.6 90.6 40.6 90.6 90.6 90.6c49.8 0 90.4-40.6 90.4-90.6" fill="#ff0000"/></g><g transform="translate(1.03e3 3.83e3)"><path d="m0 0c0-50-40.6-90.6-90.6-90.6s-90.6 40.6-90.6 90.6 40.6 90.6 90.6 90.6c49.8 0 90.4-40.6 90.4-90.6z" stroke="#000000" stroke-miterlimit="10" fill="none"/></g><g transform="translate(1.71e3 3.19e3)"><path d="m0 0c0-50-40.6-90.6-90.6-90.6s-90.6 40.6-90.6 90.6 40.6 90.6 90.6 90.6c49.8 0 90.4-40.6 90.4-90.6" fill="#ff0000"/></g><g transform="translate(1.71e3 3.19e3)"><path d="m0 0c0-50-40.6-90.6-90.6-90.6s-90.6 40.6-90.6 90.6 40.6 90.6 90.6 90.6c49.8 0 90.4-40.6 90.4-90.6z" stroke="#000000" stroke-miterlimit="10" fill="none"/></g><g transform="translate(1.42e3 4.04e3)"><path d="m0 0c0-50-40.6-90.6-90.6-90.6s-90.6 40.6-90.6 90.6 40.6 90.6 90.6 90.6c49.8 0 90.4-40.6 90.4-90.6" fill="#ff0000"/></g><g transform="translate(1.42e3 4.04e3)"><path d="m0 0c0-50-40.6-90.6-90.6-90.6s-90.6 40.6-90.6 90.6 40.6 90.6 90.6 90.6c49.8 0 90.4-40.6 90.4-90.6z" stroke="#000000" stroke-miterlimit="10" fill="none"/></g></g></g><g transform="matrix(.117 0 0 .117 -33.1 -170)" clip-path="url(#f)"><g transform="translate(805 3.89e3)"><path d="m0 0c7.2 0 108-194 108-194l-370-278 530-106 43.2-36v-38.4l-264 21.6-96 43.2-468 9.6 517 577z" fill="#000000"/></g><g transform="translate(805 3.89e3)"><path d="m0 0c7.2 0 108-194 108-194l-370-278 530-106 43.2-36v-38.4l-264 21.6-96 43.2-468 9.6 517 577z" stroke="#000000" stroke-miterlimit="10" fill="none"/></g><g transform="translate(932 3.94e3)"><path d="m0 0 446-715 389 101-36 761l-799-147z" fill="#000000"/></g><g transform="translate(932 3.94e3)"><path d="m0 0 446-715 389 101-36 761l-799-147z" stroke="#000000" stroke-miterlimit="10" fill="none"/></g><g transform="translate(1.86e3 4.07e3)"><path d="m0 0v-245l734 696 106 54.4 108 108-31.2 64.8 67.2 69.6-190-81.6-62.4-146-732-520z" fill="#000000"/></g><g transform="translate(1.86e3 4.07e3)"><path d="m0 0v-245l734 696 106 54.4 108 108-31.2 64.8 67.2 69.6-190-81.6-62.4-146-732-520z" stroke="#000000" stroke-miterlimit="10" fill="none"/></g><g transform="translate(1.39e3 3.16e3)"><path d="m0 0-310-425-410-816 55.2-9.6-22.8-72h174l-38.4-88.8 346 43.2-7.2 19.2 98.4 12 173-7.2-139 814 312 322 81.6-367s-48-698-40.8-698 52.8-24 52.8-24l-9.6-26.4h86.4l81.6-101 288 118v21.6s182-4.8 175-2.4c-7.2 2.4-422 802-422 802l9 389-19 101-39 48-235-76.8-240 28.8z" fill="#000000"/></g><g transform="translate(1.39e3 3.16e3)"><path d="m0 0-310-425-410-816 55.2-9.6-22.8-72h174l-38.4-88.8 346 43.2-7.2 19.2 98.4 12 173-7.2-139 814 312 322 81.6-367s-48-698-40.8-698 52.8-24 52.8-24l-9.6-26.4h86.4l81.6-101 288 118v21.6s182-4.8 175-2.4c-7.2 2.4-422 802-422 802l9 389-19 101-39 48-235-76.8-240 28.8z" stroke="#000000" stroke-miterlimit="10" fill="none"/></g><g transform="translate(1.12e3 4.11e3)"><path d="m0 0c4.8-2.4 307 76.8 307 76.8l9.6 298-84 173-329-54 19.2-372 76.8-110" stroke="#000000" stroke-miterlimit="10" fill="#000000"/></g></g><g transform="matrix(.117 0 0 .117 91.8 333)"><path d="m0 0 69.6 36 115 24 113 12 24-19.2-16.8 84-40.8 9.6l-238-51-26-22.8v-73.2z" fill="#ff0000"/></g><g transform="matrix(.117 0 0 .117 91.8 333)"><path d="m0 0 69.6 36 115 24 113 12 24-19.2-16.8 84-40.8 9.6l-238-51-26-22.8v-73.2z" stroke="#000000" stroke-miterlimit="10" fill="none"/></g><g transform="matrix(.117 0 0 .117 115 295)"><path d="m0 0-290-56.4 417-663-336 624 209 95z" fill="#f2f2f2"/></g><g transform="matrix(.117 0 0 .117 115 295)"><path d="m0 0-290-56.4 417-663-336 624 209 95z" stroke="#000000" stroke-miterlimit="10" fill="none"/></g><g transform="matrix(.117 0 0 .117 -33.1 -170)"><g clip-path="url(#e)"><g transform="translate(807 3.84e3)"><path d="m0 0s-482-518-478-511c5 7 500 482 500 482l-22 29z" fill="#f2f2f2"/></g><g transform="translate(807 3.84e3)"><path d="m0 0s-482-518-478-511c5 7 500 482 500 482l-22 29z" stroke="#000000" stroke-miterlimit="10" fill="none"/></g><g transform="translate(1.88e3 4.05e3)"><path d="m0 0 705 511-705-559 9.6 99.9" stroke="#000000" stroke-miterlimit="10" fill="#f2f2f2"/></g><g transform="translate(1.4e3 3.13e3)"><path d="m0 0-307-406-367-864 389 847l309 423h-24z" fill="#f2f2f2"/></g><g transform="translate(1.4e3 3.13e3)"><path d="m0 0-307-406-367-864 389 847l309 423h-24z" stroke="#000000" stroke-miterlimit="10" fill="none"/></g><g transform="translate(1.86e3 3.17e3)"><path d="m0 0-233-91.2-235 72l240-28.8 228 48z" fill="#f2f2f2"/></g><g transform="translate(1.86e3 3.17e3)"><path d="m0 0-233-91.2-235 72l240-28.8 228 48z" stroke="#000000" stroke-miterlimit="10" fill="none"/></g></g></g><g transform="matrix(.117 0 0 .117 -33.1 -170)"><g clip-path="url(#d)"><g transform="translate(1.32e3 4.54e3)"><path d="m0 0-141-38.4h-68.8s-44.4-45.6-42.2-40.8c2.22 4.8-20.5-52.8-20.5-52.8v-120l18.3-24-6.66-43.2 22.2-62.4-33.9-19.2-43.8 50.4-8.88 62.4-75.5 48-39.4 67.2-27.2 57.6-13.3 91.2-8.88 38.4 33.3 21.6 16.1 74.4 50.5 21.6-11.1 69.6 79.9 31.2 76.3 31.2c23.6 4.8 25.8-16.8 32.5-16.8 6.66 0 48.8 17.5 48.8 17.5h144l8.88-39.1 48.8-31.2 82-74.4v-40.8l37.9-19.2v-52.8-43.2s-20-43.2-20-50.4-2.22-130-2.22-130v-55.2l-28.8-12-14.2 127-26.7 87.9-15.5 56.1-51.6 12z" fill="#ff0000"/></g><g transform="translate(1.32e3 4.54e3)"><path d="m0 0-141-38.4h-68.8s-44.4-45.6-42.2-40.8c2.22 4.8-20.5-52.8-20.5-52.8v-120l18.3-24-6.66-43.2 22.2-62.4-33.9-19.2-43.8 50.4-8.88 62.4-75.5 48-39.4 67.2-27.2 57.6-13.3 91.2-8.88 38.4 33.3 21.6 16.1 74.4 50.5 21.6-11.1 69.6 79.9 31.2 76.3 31.2c23.6 4.8 25.8-16.8 32.5-16.8 6.66 0 48.8 17.5 48.8 17.5h144l8.88-39.1 48.8-31.2 82-74.4v-40.8l37.9-19.2v-52.8-43.2s-20-43.2-20-50.4-2.22-130-2.22-130v-55.2l-28.8-12-14.2 127-26.7 87.9-15.5 56.1-51.6 12z" stroke="#000000" stroke-miterlimit="10" fill="none"/></g></g></g></g></svg>
