<?xml version="1.0" encoding="UTF-8" standalone="no"?>
<svg xmlns:rdf="http://www.w3.org/1999/02/22-rdf-syntax-ns#" xmlns="http://www.w3.org/2000/svg" xml:space="preserve" height="148mm" viewBox="0 0 372.04724 524.40945" width="105mm" version="1.1" xmlns:cc="http://creativecommons.org/ns#" xmlns:xlink="http://www.w3.org/1999/xlink" xmlns:dc="http://purl.org/dc/elements/1.1/"><metadata><rdf:RDF><cc:Work rdf:about=""><dc:format>image/svg+xml</dc:format><dc:type rdf:resource="http://purl.org/dc/dcmitype/StillImage"/><dc:title/></cc:Work></rdf:RDF></metadata><defs><clipPath id="c" clipPathUnits="userSpaceOnUse"><path d="m0 5.5e3h3e3v-5.5e3h-3e3v5.5e3z"/></clipPath><clipPath id="b" clipPathUnits="userSpaceOnUse"><path d="m0 5.5e3h3e3v-5.5e3h-3e3v5.5e3z"/></clipPath><clipPath id="a" clipPathUnits="userSpaceOnUse"><path d="m0 5.5e3h3e3v-5.5e3h-3e3v5.5e3z"/></clipPath><clipPath id="g" clipPathUnits="userSpaceOnUse"><path d="m0 5.5e3h3e3v-5.5e3h-3e3v5.5e3z"/></clipPath><clipPath id="f" clipPathUnits="userSpaceOnUse"><path d="m0 5.5e3h3e3v-5.5e3h-3e3v5.5e3z"/></clipPath><clipPath id="e" clipPathUnits="userSpaceOnUse"><path d="m0 5.5e3h3e3v-5.5e3h-3e3v5.5e3z"/></clipPath><clipPath id="d" clipPathUnits="userSpaceOnUse"><path d="m0 5.5e3h3e3v-5.5e3h-3e3v5.5e3z"/></clipPath></defs><g transform="matrix(1.25 0 0 -1.25 0 524)"><g transform="matrix(.110 0 0 .110 -16.1 -55.4)"><g clip-path="url(#c)"><g transform="translate(1.74e3 1.15e3)"><path d="m0 0c0-47.8-38.7-86.5-86.5-86.5s-86.5 38.7-86.5 86.5 38.7 86.5 86.5 86.5 86.5-38.7 86.5-86.5" fill="#ff0000"/></g><g transform="translate(1.74e3 1.15e3)"><path d="m0 0c0-47.8-38.7-86.5-86.5-86.5s-86.5 38.7-86.5 86.5 38.7 86.5 86.5 86.5 86.5-38.7 86.5-86.5z" stroke="#000000" stroke-miterlimit="10" fill="none"/></g><g transform="translate(1.95e3 1.15e3)"><path d="m0 0c0-47.8-38.7-86.5-86.5-86.5s-86.5 38.7-86.5 86.5 38.7 86.5 86.5 86.5 86.5-38.7 86.5-86.5" fill="#ff0000"/></g><g transform="translate(1.95e3 1.15e3)"><path d="m0 0c0-47.8-38.7-86.5-86.5-86.5s-86.5 38.7-86.5 86.5 38.7 86.5 86.5 86.5 86.5-38.7 86.5-86.5z" stroke="#000000" stroke-miterlimit="10" fill="none"/></g></g></g><g transform="matrix(.110 0 0 .110 -16.1 -55.4)"><g clip-path="url(#b)"><g transform="translate(1.58e3 1.07e3)"><path d="m0 0c28 21.2 152 0 152 0l-52.7-348h-48.2" stroke="#000000" stroke-miterlimit="10" fill="#000000"/></g><g transform="translate(1.79e3 1.07e3)"><path d="m0 0c28 21.2 152 0 152 0l-52.7-348h-48.2" stroke="#000000" stroke-miterlimit="10" fill="#000000"/></g></g></g><g transform="matrix(.110 0 0 .110 164 23.8)"><path d="m0 0h45.7l54.5-211h-148" stroke="#000000" stroke-miterlimit="10" fill="#000000"/></g><g transform="matrix(.110 0 0 .110 187 23.8)"><path d="m0 0h45.7l54.5-211h-148" stroke="#000000" stroke-miterlimit="10" fill="#000000"/></g><g transform="matrix(.110 0 0 .110 -16.1 -55.4)"><g clip-path="url(#a)"><g transform="translate(2.03e3 2.01e3)"><path d="m0 0c0 34.2-27.7 61.9-61.9 61.9s-61.9-27.7-61.9-61.9 27.7-61.9 61.9-61.9c34.4 0 62.1 27.7 62.1 61.9" fill="#ff0000"/></g><g transform="translate(2.03e3 2.01e3)"><path d="m0 0c0 34.2-27.7 61.9-61.9 61.9s-61.9-27.7-61.9-61.9 27.7-61.9 61.9-61.9c34.4 0 62.1 27.7 62.1 61.9z" stroke="#000000" stroke-miterlimit="10" fill="none"/></g><g transform="translate(1.6e3 2.01e3)"><path d="m0 0c0 34.2-27.7 61.9-61.9 61.9s-61.9-27.7-61.9-61.9 27.7-61.9 61.9-61.9c34.4 0 62.1 27.7 62.1 61.9" fill="#ff0000"/></g><g transform="translate(1.6e3 2.01e3)"><path d="m0 0c0 34.2-27.7 61.9-61.9 61.9s-61.9-27.7-61.9-61.9 27.7-61.9 61.9-61.9c34.4 0 62.1 27.7 62.1 61.9z" stroke="#000000" stroke-miterlimit="10" fill="none"/></g><g transform="translate(1.9e3 1.56e3)"><path d="m0 0c0-68.6-63.6-124-142-124-78.5 0-142 55.6-142 124 0 68.6 63.6 124 142 124s142-55.4 142-124" fill="#ff0000"/></g><g transform="translate(1.9e3 1.56e3)"><path d="m0 0c0-68.6-63.6-124-142-124-78.5 0-142 55.6-142 124 0 68.6 63.6 124 142 124s142-55.4 142-124z" stroke="#000000" stroke-miterlimit="10" fill="none"/></g><g transform="translate(1.3e3 2.35e3)"><path d="m0 0c0-28-22.7-50.7-50.7-50.7s-50.7 22.7-50.7 50.7 22.7 50.7 50.7 50.7c27.6 0 50.3-22.7 50.3-50.7" fill="#ff0000"/></g><g transform="translate(1.3e3 2.35e3)"><path d="m0 0c0-28-22.7-50.7-50.7-50.7s-50.7 22.7-50.7 50.7 22.7 50.7 50.7 50.7c27.6 0 50.3-22.7 50.3-50.7z" stroke="#000000" stroke-miterlimit="10" fill="none"/></g><g transform="translate(2.22e3 1.6e3)"><path d="m0 0c0-23.9-19.4-43.3-43.3-43.3s-43.3 19.4-43.3 43.3 19.4 43.3 43.3 43.3 43.3-19.4 43.3-43.3" fill="#ff0000"/></g><g transform="translate(2.22e3 1.6e3)"><path d="m0 0c0-23.9-19.4-43.3-43.3-43.3s-43.3 19.4-43.3 43.3 19.4 43.3 43.3 43.3 43.3-19.4 43.3-43.3z" stroke="#000000" stroke-miterlimit="10" fill="none"/></g></g></g><g transform="matrix(.110 0 0 .110 -16.1 -55.4)"><g clip-path="url(#g)"><g transform="translate(1.81e3 2.11e3)"><path d="m0 0c0 34.2-27.7 61.9-61.9 61.9s-61.9-27.7-61.9-61.9 27.7-61.9 61.9-61.9c34.4 0 62.1 27.7 62.1 61.9" fill="#ff0000"/></g><g transform="translate(1.81e3 2.11e3)"><path d="m0 0c0 34.2-27.7 61.9-61.9 61.9s-61.9-27.7-61.9-61.9 27.7-61.9 61.9-61.9c34.4 0 62.1 27.7 62.1 61.9z" stroke="#000000" stroke-miterlimit="10" fill="none"/></g><g transform="translate(1.99e3 1.6e3)"><path d="m0 0h-482l46.1 518c0.83 0 189-53.1 189-53.1l188 53 72.8-518h-472" stroke="#000000" stroke-miterlimit="10" fill="#000000"/></g><g transform="translate(1.54e3 1.56e3)"><path d="m0 0h430l62.9-388h-548" stroke="#000000" stroke-miterlimit="10" fill="#000000"/></g><g transform="translate(2.05e3 2.01e3)"><path d="m0 0-74.7-61.9 166-348 62.3 43.2" stroke="#000000" stroke-miterlimit="10" fill="#000000"/></g><g transform="translate(1.53e3 2.07e3)"><path d="m0 0-51.7-71.8-234 289 65 51 221-268z" fill="#000000"/></g><g transform="translate(1.53e3 2.07e3)"><path d="m0 0-51.7-71.8-234 289 65 51 221-268z" stroke="#000000" stroke-miterlimit="10" fill="none"/></g><g transform="translate(2.15e3 1.57e3)"><path d="m0 0 43.3-219h53.1l-36.5 248-59.9-29z" fill="#000000"/></g><g transform="translate(2.15e3 1.57e3)"><path d="m0 0 43.3-219h53.1l-36.5 248-59.9-29z" stroke="#000000" stroke-miterlimit="10" fill="none"/></g><g transform="translate(2.22e3 1.34e3)"><path d="m0 0-50.5-73.6h50.5v-73.4l32.2 120-32.2 27z" fill="#000000"/></g><g transform="translate(2.22e3 1.34e3)"><path d="m0 0-50.5-73.6h50.5v-73.4l32.2 120-32.2 27z" stroke="#000000" stroke-miterlimit="10" fill="none"/></g><g transform="translate(1.25e3 2.43e3)"><path d="m0 0-73.4-33.1-76.4 242 59.8 13.3l90.2-222z" fill="#000000"/></g><g transform="translate(1.25e3 2.43e3)"><path d="m0 0-73.4-33.1-76.4 242 59.8 13.3l90.2-222z" stroke="#000000" stroke-miterlimit="10" fill="none"/></g><g transform="translate(1.1e3 2.78e3)"><path d="m0 0-16-8.2-42.4-21.7s11-95.9 29.2-91.5c18.2 4.33 55.5 21.8 55.5 21.8" stroke="#000000" stroke-miterlimit="10" fill="#000000"/></g><g transform="translate(1.1e3 2.83e3)"><path d="m0 0s41.3 22.4 41.3 12.5v-123l-41.3 97.5" stroke="#000000" stroke-miterlimit="10" fill="#000000"/></g></g></g><g transform="matrix(.110 0 0 .110 -16.1 -55.4)"><g clip-path="url(#f)"><g transform="translate(1.95e3 2.42e3)"><path d="m0 0c0-115-93.5-209-209-209-115 0-209 93.5-209 209 0 115 93.5 209 209 209s209-94 209-209" fill="#000000"/></g><g transform="translate(1.95e3 2.42e3)"><path d="m0 0c0-115-93.5-209-209-209-115 0-209 93.5-209 209 0 115 93.5 209 209 209s209-94 209-209z" stroke="#000000" stroke-miterlimit="10" fill="none"/></g><g transform="translate(1.87e3 2.23e3)"><path d="m0 0c0-69.9-56.7-127-127-127-69.9 0-127 56.7-127 127 0 69.9 56.7 127 127 127s127-57.1 127-127" fill="#000000"/></g><g transform="translate(1.87e3 2.23e3)"><path d="m0 0c0-69.9-56.7-127-127-127-69.9 0-127 56.7-127 127 0 69.9 56.7 127 127 127s127-57.1 127-127z" stroke="#000000" stroke-miterlimit="10" fill="none"/></g><g transform="translate(1.87e3 2.2e3)"><path d="m0 0h-243l-74 149h391" stroke="#000000" stroke-miterlimit="10" fill="#000000"/></g><g transform="translate(1.72e3 2.38e3)"><path d="m0 0c0-38-30.8-68.9-68.9-68.9-38 0-68.9 30.8-68.9 68.9 0 38 30.8 68.9 68.9 68.9 38.3 0 69.1-30.9 69.1-68.9" fill="#ff0000"/></g><g transform="translate(1.72e3 2.38e3)"><path d="m0 0c0-38-30.8-68.9-68.9-68.9-38 0-68.9 30.8-68.9 68.9 0 38 30.8 68.9 68.9 68.9 38.3 0 69.1-30.9 69.1-68.9z" stroke="#000000" stroke-miterlimit="10" fill="none"/></g><g transform="translate(1.92e3 2.38e3)"><path d="m0 0c0-38-30.8-68.9-68.9-68.9-38 0-68.9 30.8-68.9 68.9 0 38 30.8 68.9 68.9 68.9 38.3 0 69.1-30.9 69.1-68.9" fill="#ff0000"/></g><g transform="translate(1.92e3 2.38e3)"><path d="m0 0c0-38-30.8-68.9-68.9-68.9-38 0-68.9 30.8-68.9 68.9 0 38 30.8 68.9 68.9 68.9 38.3 0 69.1-30.9 69.1-68.9z" stroke="#000000" stroke-miterlimit="10" fill="none"/></g><g transform="translate(1.71e3 2.38e3)"><path d="m0 0c0-31.6-25.6-57.1-57.1-57.1-31.6 0-57.1 25.6-57.1 57.1 0 31.6 25.6 57.1 57.1 57.1 31.3 0 56.9-25.5 56.9-57.1" fill="#f2f2f2"/></g><g transform="translate(1.71e3 2.38e3)"><path d="m0 0c0-31.6-25.6-57.1-57.1-57.1-31.6 0-57.1 25.6-57.1 57.1 0 31.6 25.6 57.1 57.1 57.1 31.3 0 56.9-25.5 56.9-57.1z" stroke="#000000" stroke-miterlimit="10" fill="none"/></g><g transform="translate(1.9e3 2.38e3)"><path d="m0 0c0-30.7-24.9-55.5-55.5-55.5-30.7 0-55.5 24.9-55.5 55.5 0 30.7 24.9 55.5 55.5 55.5s55.5-24.8 55.5-55.5" fill="#f2f2f2"/></g><g transform="translate(1.9e3 2.38e3)"><path d="m0 0c0-30.7-24.9-55.5-55.5-55.5-30.7 0-55.5 24.9-55.5 55.5 0 30.7 24.9 55.5 55.5 55.5s55.5-24.8 55.5-55.5z" stroke="#000000" stroke-miterlimit="10" fill="none"/></g></g></g><g transform="matrix(.110 0 0 .110 -16.1 -55.4)"><g clip-path="url(#e)"><g transform="translate(1.59e3 2.26e3)"><path d="m0 0 72.8-33.9 145 3.33s79.7 20.7 77.7 20c-2-0.666-74.7-35.2-74.7-35.2l-150-4.11" stroke="#000000" stroke-miterlimit="10" fill="#f2f2f2"/></g></g></g><g transform="matrix(.110 0 0 .110 81.8 380)"><path d="m0 0h39.9-39.9z" fill="#000000"/></g><g transform="matrix(.110 0 0 .110 81.8 380)"><path d="m0 0h39.9" stroke="#000000" stroke-miterlimit="10" fill="none"/></g><g transform="matrix(.110 0 0 .110 -16.1 -55.4)"><g clip-path="url(#d)"><g transform="translate(697 4.02e3)"><path d="m0 0c0-145 99.6-262 223-262s223 117 223 262-99.6 262-223 262-223-117-223-262" fill="#ff0000"/></g><g transform="translate(697 4.02e3)"><path d="m0 0c0-145 99.6-262 223-262s223 117 223 262-99.6 262-223 262-223-117-223-262z" stroke="#000000" stroke-miterlimit="10" fill="none"/></g><g transform="translate(966 3.5e3)"><path d="m0 0 157 412-394-23 237-389z" fill="#ff0000"/></g><g transform="translate(940 3.46e3)"><path d="m0 0c0.126-0.962 56.5 11.7 56.5 11.7s-43.1 87.2-43.1 69.8c0-17.5-13.4-81.5-13.4-81.5" fill="#ff0000"/></g><g transform="translate(940 3.46e3)"><path d="m0 0c0.126-0.962 56.5 11.7 56.5 11.7s-43.1 87.2-43.1 69.8c0-17.5-13.4-81.5-13.4-81.5z" stroke="#000000" stroke-miterlimit="10" fill="none"/></g><g transform="translate(984 3.55e3)"><path d="m0 0c-14.2 2.58-46.9-7.83-46.9-7.83l14.1-23.2h19.6" stroke="#000000" stroke-miterlimit="10" fill="#000000"/></g><g transform="translate(968 3.46e3)"><path d="m0 0c0.745 0.161 116-684 116-684l-87.8 661" stroke="#000000" stroke-miterlimit="10" fill="#000000"/></g></g></g></g></svg>
