<?xml version="1.0" encoding="UTF-8" standalone="no"?>
<svg xmlns:rdf="http://www.w3.org/1999/02/22-rdf-syntax-ns#" xmlns="http://www.w3.org/2000/svg" xml:space="preserve" height="148mm" viewBox="0 0 372.04724 524.40945" width="105mm" version="1.1" xmlns:cc="http://creativecommons.org/ns#" xmlns:dc="http://purl.org/dc/elements/1.1/"><metadata><rdf:RDF><cc:Work rdf:about=""><dc:format>image/svg+xml</dc:format><dc:type rdf:resource="http://purl.org/dc/dcmitype/StillImage"/><dc:title/></cc:Work></rdf:RDF></metadata><defs><clipPath id="c" clipPathUnits="userSpaceOnUse"><path d="m0 5.5e3h3e3v-5.5e3h-3e3v5.5e3z"/></clipPath><clipPath id="b" clipPathUnits="userSpaceOnUse"><path d="m0 5.5e3h3e3v-5.5e3h-3e3v5.5e3z"/></clipPath><clipPath id="a" clipPathUnits="userSpaceOnUse"><path d="m0 5.5e3h3e3v-5.5e3h-3e3v5.5e3z"/></clipPath><clipPath id="e" clipPathUnits="userSpaceOnUse"><path d="m0 5.5e3h3e3v-5.5e3h-3e3v5.5e3z"/></clipPath><clipPath id="d" clipPathUnits="userSpaceOnUse"><path d="m0 5.5e3h3e3v-5.5e3h-3e3v5.5e3z"/></clipPath></defs><g transform="matrix(1.25 0 0 -1.25 0 524)"><g transform="matrix(.138 0 0 .138 -68.8 -218)"><g clip-path="url(#c)"><g transform="translate(1.64e3 4.13e3)"><path d="m0 0c0-43.6-35.3-78.9-78.9-78.9s-78.9 35.3-78.9 78.9 35.3 78.9 78.9 78.9c43.8 0 79.1-35.3 79.1-78.9" fill="#ff0000"/></g><g transform="translate(1.64e3 4.13e3)"><path d="m0 0c0-43.6-35.3-78.9-78.9-78.9s-78.9 35.3-78.9 78.9 35.3 78.9 78.9 78.9c43.8 0 79.1-35.3 79.1-78.9z" stroke="#000000" stroke-miterlimit="10" fill="none"/></g></g></g><g transform="matrix(.138 0 0 .138 -68.8 -218)"><g clip-path="url(#b)"><g transform="translate(1.35e3 4.51e3)"><path d="m0 0v-190l127-151h163l119 143v220c0-0.2-211 218-409-22" fill="#000000"/></g><g transform="translate(1.35e3 4.51e3)"><path d="m0 0v-190l127-151h163l119 143v220c0-0.2-211 218-409-22z" stroke="#000000" stroke-miterlimit="10" fill="none"/></g></g></g><path d="m166 389h-40.3v-10.4h40.3v10.4z" stroke="#000000" stroke-miterlimit="10" stroke-width=".138" fill="#ff0000"/><g transform="matrix(.138 0 0 .138 123 392)"><path d="m0 0h333l-23.8-96.6v75.4h-292v-75.4l-17 96.6z" fill="#9d1f28"/></g><g transform="matrix(.138 0 0 .138 -68.8 -218)"><g clip-path="url(#a)"><g transform="translate(1.12e3 3.9e3)"><path d="m0 0c0-54.1-43.8-97.9-97.9-97.9s-97.9 43.8-97.9 97.9 43.8 97.9 97.9 97.9c54.3 0 98.1-43.8 98.1-97.9" fill="#ff0000"/></g><g transform="translate(1.12e3 3.9e3)"><path d="m0 0c0-54.1-43.8-97.9-97.9-97.9s-97.9 43.8-97.9 97.9 43.8 97.9 97.9 97.9c54.3 0 98.1-43.8 98.1-97.9z" stroke="#000000" stroke-miterlimit="10" fill="none"/></g><g transform="translate(2.21e3 3.9e3)"><path d="m0 0c0-54.1-43.8-97.9-97.9-97.9s-97.9 43.8-97.9 97.9 43.8 97.9 97.9 97.9c54.3 0 98.1-43.8 98.1-97.9" fill="#ff0000"/></g><g transform="translate(2.21e3 3.9e3)"><path d="m0 0c0-54.1-43.8-97.9-97.9-97.9s-97.9 43.8-97.9 97.9 43.8 97.9 97.9 97.9c54.3 0 98.1-43.8 98.1-97.9z" stroke="#000000" stroke-miterlimit="10" fill="none"/></g></g></g><g transform="matrix(.138 0 0 .138 68.6 337)"><path d="m0 0 427 88 140-113 167 113 416-88l-112-136 3.97-153-315-702h-349l-234 563" stroke="#000000" stroke-miterlimit="10" fill="#000000"/></g><g transform="matrix(.138 0 0 .138 121 200)"><path d="m0 0-117-566 146-881 116 1.06e3h53.4l119-1.06e3 140 889-108 561h-349z" fill="#000000"/></g><g transform="matrix(.138 0 0 .138 121 200)"><path d="m0 0-117-566 146-881 116 1.06e3h53.4l119-1.06e3 140 889-108 561h-349z" stroke="#000000" stroke-miterlimit="10" fill="none"/></g><g transform="matrix(.138 0 0 .138 127 349)"><path d="m0 0v72.3l140-76.1 168 76.1v-72.3l-173-129-135 129z" fill="#000000"/></g><g transform="matrix(.138 0 0 .138 127 349)"><path d="m0 0v72.3l140-76.1 168 76.1v-72.3l-173-129-135 129z" stroke="#000000" stroke-miterlimit="10" fill="none"/></g><g transform="matrix(.138 0 0 .138 89.8 278)"><path d="m0 0 265-576-132-577 116-767-87.3 788 153 561l-315 569z" fill="#ffffff"/></g><g transform="matrix(.138 0 0 .138 89.8 278)"><path d="m0 0 265-576-132-577 116-767-87.3 788 153 561l-315 569z" stroke="#000000" stroke-miterlimit="10" fill="none"/></g><g transform="matrix(.138 0 0 .138 201 278)"><path d="m0 0-265-576 132-577-116-767 87.3 788-153 561l315 569z" fill="#ffffff"/></g><g transform="matrix(.138 0 0 .138 201 278)"><path d="m0 0-265-576 132-577-116-767 87.3 788-153 561l315 569z" stroke="#000000" stroke-miterlimit="10" fill="none"/></g><g transform="matrix(.138 0 0 .138 96 282)"><path d="m0 0 706 3.94 71.4 223-18.5 196 56.8-212-93.9-254-743 15.3h-12.3l-33.6 276 60 194-21.2-204 29.1-238z" fill="#ffffff"/></g><g transform="matrix(.138 0 0 .138 96 282)"><path d="m0 0 706 3.94 71.4 223-18.5 196 56.8-212-93.9-254-743 15.3h-12.3l-33.6 276 60 194-21.2-204 29.1-238z" stroke="#000000" stroke-miterlimit="10" fill="none"/></g><g transform="matrix(.138 0 0 .138 193 216)"><path d="m0 0-67.5 312 13.2 87.3 20.5 72.8 52.3 68.8 147 74.1 103 14.6 119-26.5 68.8-34.4 63.6-110 7.86-111l-130-157-252-184-50.4-23.9h-46.3l-50.3 15.9z" fill="#ff0000"/></g><g transform="matrix(.138 0 0 .138 193 216)"><path d="m0 0-67.5 312 13.2 87.3 20.5 72.8 52.3 68.8 147 74.1 103 14.6 119-26.5 68.8-34.4 63.6-110 7.86-111l-130-157-252-184-50.4-23.9h-46.3l-50.3 15.9z" stroke="#000000" stroke-miterlimit="10" fill="none"/></g><g transform="matrix(.138 0 0 .138 185 260)"><path d="m0 0 1.73-11.2 17.4-113 73.8-18.5h77.9l62.9 10.6 61.5 23.8 30.1 18.5 42.4 51.6-13 66.3-116-40.6-132-15.3-61.9 5.3-45.1 21.2z" fill="#ffffff"/></g><g transform="matrix(.138 0 0 .138 185 260)"><path d="m0 0 1.73-11.2 17.4-113 73.8-18.5h77.9l62.9 10.6 61.5 23.8 30.1 18.5 42.4 51.6-13 66.3-116-40.6-132-15.3-61.9 5.3-45.1 21.2z" stroke="#000000" stroke-miterlimit="10" fill="none"/></g><g transform="matrix(.138 0 0 .138 184 258)"><path d="m0 0 1.73-11.2 17.4-113 73.8-18.5h77.9l62.9 10.6 61.5 23.8 30.1 18.5 42.4 51.6-3.7 67.8-115-42.1-142-15.3-61.9 5.3-45.1 21.2z" fill="#000000"/></g><g transform="matrix(.138 0 0 .138 184 258)"><path d="m0 0 1.73-11.2 17.4-113 73.8-18.5h77.9l62.9 10.6 61.5 23.8 30.1 18.5 42.4 51.6-3.7 67.8-115-42.1-142-15.3-61.9 5.3-45.1 21.2z" stroke="#000000" stroke-miterlimit="10" fill="none"/></g><g transform="matrix(.138 0 0 .138 215 240)"><path d="m0 0-43.7 21.2 1.7-11.3" stroke="#000000" stroke-miterlimit="10" fill="#000000"/></g><g transform="matrix(.138 0 0 .138 -68.8 -218)"><g clip-path="url(#e)"><g transform="translate(2.28e3 3.44e3)"><path d="m0 0c0-43.5-26.7-78.7-59.5-78.7-32.9 0-59.5 35.2-59.5 78.7s26.7 78.7 59.5 78.7 59.5-35.2 59.5-78.7" fill="#ffffff"/></g><g transform="translate(2.28e3 3.44e3)"><path d="m0 0c0-43.5-26.7-78.7-59.5-78.7-32.9 0-59.5 35.2-59.5 78.7s26.7 78.7 59.5 78.7 59.5-35.2 59.5-78.7z" stroke="#000000" stroke-miterlimit="10" fill="none"/></g><g transform="translate(2.29e3 3.44e3)"><path d="m0 0c0-43.5-26.7-78.7-59.5-78.7-32.9 0-59.5 35.2-59.5 78.7s26.7 78.7 59.5 78.7 59.5-35.2 59.5-78.7" fill="#000000"/></g><g transform="translate(2.29e3 3.44e3)"><path d="m0 0c0-43.5-26.7-78.7-59.5-78.7-32.9 0-59.5 35.2-59.5 78.7s26.7 78.7 59.5 78.7 59.5-35.2 59.5-78.7z" stroke="#000000" stroke-miterlimit="10" fill="none"/></g></g></g><g transform="matrix(.138 0 0 .138 72.3 304)"><path d="m0 0-111 219-388-434 408-440-171 421 262 234z" fill="#000000"/></g><g transform="matrix(.138 0 0 .138 72.3 304)"><path d="m0 0-111 219-388-434 408-440-171 421 262 234z" stroke="#000000" stroke-miterlimit="10" fill="none"/></g><g transform="matrix(.138 0 0 .138 226 219)"><path d="m0 0 492 459-426 397-108-255 316-142-274-459z" fill="#000000"/></g><g transform="matrix(.138 0 0 .138 226 219)"><path d="m0 0 492 459-426 397-108-255 316-142-274-459z" stroke="#000000" stroke-miterlimit="10" fill="none"/></g><g transform="matrix(.138 0 0 .138 -68.8 -218)"><g clip-path="url(#d)"><g transform="translate(983 3.79e3)"><path d="m0 0c-5.25 2.8-246-233-246-233l153-367-178 365 255 273 16-38z" fill="#ffffff"/></g><g transform="translate(983 3.79e3)"><path d="m0 0c-5.25 2.8-246-233-246-233l153-367-178 365 255 273 16-38z" stroke="#000000" stroke-miterlimit="10" fill="none"/></g><g transform="translate(2.21e3 3.98e3)"><path d="m0 0-17.9-31.7 387-318-369-358 395 358-395 350z" fill="#ffffff"/></g><g transform="translate(2.21e3 3.98e3)"><path d="m0 0-17.9-31.7 387-318-369-358 395 358-395 350z" stroke="#000000" stroke-miterlimit="10" fill="none"/></g><g transform="translate(1.52e3 4.37e3)"><path d="m0 0c0-14.1-11.4-25.5-25.5-25.5s-25.5 11.4-25.5 25.5 11.4 25.5 25.5 25.5 25.5-11.4 25.5-25.5" fill="#ffffff"/></g><g transform="translate(1.52e3 4.37e3)"><path d="m0 0c0-14.1-11.4-25.5-25.5-25.5s-25.5 11.4-25.5 25.5 11.4 25.5 25.5 25.5 25.5-11.4 25.5-25.5z" stroke="#000000" stroke-miterlimit="10" fill="none"/></g><g transform="translate(1.65e3 4.37e3)"><path d="m0 0c0-14.1-11.4-25.5-25.5-25.5s-25.5 11.4-25.5 25.5 11.4 25.5 25.5 25.5 25.5-11.4 25.5-25.5" fill="#ffffff"/></g><g transform="translate(1.65e3 4.37e3)"><path d="m0 0c0-14.1-11.4-25.5-25.5-25.5s-25.5 11.4-25.5 25.5 11.4 25.5 25.5 25.5 25.5-11.4 25.5-25.5z" stroke="#000000" stroke-miterlimit="10" fill="none"/></g><g transform="translate(1.5e3 4.53e3)"><path d="m0 0-92.6-22.5-35.7-52.3 43.7 33.7l90.6 16.6-6.3 24.5z" fill="#ffffff"/></g><g transform="translate(1.5e3 4.53e3)"><path d="m0 0-92.6-22.5-35.7-52.3 43.7 33.7l90.6 16.6-6.3 24.5z" stroke="#000000" stroke-miterlimit="10" fill="none"/></g><g transform="translate(1.62e3 4.53e3)"><path d="m0 0 92.6-22.5 35.4-52.2-43.3 33.7-91 16.5 6.3 24.5z" fill="#ffffff"/></g><g transform="translate(1.62e3 4.53e3)"><path d="m0 0 92.6-22.5 35.4-52.2-43.3 33.7-91 16.5 6.3 24.5z" stroke="#000000" stroke-miterlimit="10" fill="none"/></g></g></g></g></svg>
